  0
SECTION
  2
HEADER
  9
$ACADVER
  1
AC1015
  9
$ACADMAINTVER
 70
     6
  9
$DWGCODEPAGE
  3
ANSI_1252
  9
$INSBASE
 10
0.0
 20
0.0
 30
0.0
  9
$EXTMIN
 10
0.0
 20
0.0
 30
0.0
  9
$EXTMAX
 10
431.8
 20
279.4
 30
0.0
  9
$LIMMIN
 10
0.0
 20
0.0
  9
$LIMMAX
 10
431.8
 20
279.4
  9
$ORTHOMODE
 70
     0
  9
$REGENMODE
 70
     1
  9
$FILLMODE
 70
     1
  9
$QTEXTMODE
 70
     0
  9
$MIRRTEXT
 70
     1
  9
$LTSCALE
 40
1.0
  9
$ATTMODE
 70
     1
  9
$TEXTSIZE
 40
3.5
  9
$TRACEWID
 40
1.0
  9
$TEXTSTYLE
  7
Standard
  9
$CLAYER
  8
0
  9
$CELTYPE
  6
ByLayer
  9
$CECOLOR
 62
   256
  9
$CELTSCALE
 40
1.0
  9
$DISPSILH
 70
     0
  9
$DIMSCALE
 40
1.0
  9
$DIMASZ
 40
6.0
  9
$DIMEXO
 40
1.0
  9
$DIMDLI
 40
3.75
  9
$DIMRND
 40
0.0
  9
$DIMDLE
 40
0.0
  9
$DIMEXE
 40
1.0
  9
$DIMTP
 40
0.0
  9
$DIMTM
 40
0.0
  9
$DIMTXT
 40
3.5
  9
$DIMCEN
 40
2.5
  9
$DIMTSZ
 40
0.0
  9
$DIMTOL
 70
     0
  9
$DIMLIM
 70
     0
  9
$DIMTIH
 70
     1
  9
$DIMTOH
 70
     1
  9
$DIMSE1
 70
     0
  9
$DIMSE2
 70
     0
  9
$DIMTAD
 70
     1
  9
$DIMZIN
 70
     0
  9
$DIMBLK
  1

  9
$DIMASO
 70
     1
  9
$DIMSHO
 70
     1
  9
$DIMPOST
  1

  9
$DIMAPOST
  1

  9
$DIMALT
 70
     0
  9
$DIMALTD
 70
     3
  9
$DIMALTF
 40
0.0393700787
  9
$DIMLFAC
 40
1.0
  9
$DIMTOFL
 70
     1
  9
$DIMTVP
 40
0.0
  9
$DIMTIX
 70
     0
  9
$DIMSOXD
 70
     0
  9
$DIMSAH
 70
     0
  9
$DIMBLK1
  1

  9
$DIMBLK2
  1

  9
$DIMSTYLE
  2
ISO-25
  9
$DIMCLRD
 70
     0
  9
$DIMCLRE
 70
     0
  9
$DIMCLRT
 70
     0
  9
$DIMTFAC
 40
1.0
  9
$DIMGAP
 40
1.524
  9
$DIMJUST
 70
     0
  9
$DIMSD1
 70
     0
  9
$DIMSD2
 70
     0
  9
$DIMTOLJ
 70
     0
  9
$DIMTZIN
 70
     0
  9
$DIMALTZ
 70
     0
  9
$DIMALTTZ
 70
     0
  9
$DIMUPT
 70
     0
  9
$DIMDEC
 70
     2
  9
$DIMTDEC
 70
     2
  9
$DIMALTU
 70
     2
  9
$DIMALTTD
 70
     3
  9
$DIMTXSTY
  7
Standard
  9
$DIMAUNIT
 70
     0
  9
$DIMADEC
 70
     0
  9
$DIMALTRND
 40
0.0
  9
$DIMAZIN
 70
     0
  9
$DIMDSEP
 70
    44
  9
$DIMATFIT
 70
     3
  9
$DIMFRAC
 70
     0
  9
$DIMLDRBLK
  1

  9
$DIMLUNIT
 70
     2
  9
$DIMLWD
 70
    -2
  9
$DIMLWE
 70
    -2
  9
$DIMTMOVE
 70
     0
  9
$LUNITS
 70
     2
  9
$LUPREC
 70
     2
  9
$SKETCHINC
 40
1.0
  9
$FILLETRAD
 40
10.0
  9
$AUNITS
 70
     0
  9
$AUPREC
 70
     0
  9
$MENU
  1
.
  9
$ELEVATION
 40
0.0
  9
$PELEVATION
 40
0.0
  9
$THICKNESS
 40
0.0
  9
$LIMCHECK
 70
     0
  9
$CHAMFERA
 40
10.0
  9
$CHAMFERB
 40
10.0
  9
$CHAMFERC
 40
20.0
  9
$CHAMFERD
 40
0.0
  9
$SKPOLY
 70
     0
  9
$TDCREATE
 40
2456451.454458009
  9
$TDUCREATE
 40
2456451.412791342
  9
$TDUPDATE
 40
2456451.454458021
  9
$TDUUPDATE
 40
2456451.412791354
  9
$TDINDWG
 40
0.0000000116
  9
$TDUSRTIMER
 40
0.0000000116
  9
$USRTIMER
 70
     1
  9
$ANGBASE
 50
0.0
  9
$ANGDIR
 70
     0
  9
$PDMODE
 70
     0
  9
$PDSIZE
 40
-1.0
  9
$PLINEWID
 40
0.0
  9
$SPLFRAME
 70
     0
  9
$SPLINETYPE
 70
     6
  9
$SPLINESEGS
 70
     8
  9
$HANDSEED
  5
139
  9
$SURFTAB1
 70
     6
  9
$SURFTAB2
 70
     6
  9
$SURFTYPE
 70
     6
  9
$SURFU
 70
     6
  9
$SURFV
 70
     6
  9
$UCSBASE
  2

  9
$UCSNAME
  2

  9
$UCSORG
 10
0.0
 20
0.0
 30
0.0
  9
$UCSXDIR
 10
1.0
 20
0.0
 30
0.0
  9
$UCSYDIR
 10
0.0
 20
1.0
 30
0.0
  9
$UCSORTHOREF
  2

  9
$UCSORTHOVIEW
 70
     0
  9
$UCSORGTOP
 10
0.0
 20
0.0
 30
0.0
  9
$UCSORGBOTTOM
 10
0.0
 20
0.0
 30
0.0
  9
$UCSORGLEFT
 10
0.0
 20
0.0
 30
0.0
  9
$UCSORGRIGHT
 10
0.0
 20
0.0
 30
0.0
  9
$UCSORGFRONT
 10
0.0
 20
0.0
 30
0.0
  9
$UCSORGBACK
 10
0.0
 20
0.0
 30
0.0
  9
$PUCSBASE
  2

  9
$PUCSNAME
  2

  9
$PUCSORG
 10
0.0
 20
0.0
 30
0.0
  9
$PUCSXDIR
 10
1.0
 20
0.0
 30
0.0
  9
$PUCSYDIR
 10
0.0
 20
1.0
 30
0.0
  9
$PUCSORTHOREF
  2

  9
$PUCSORTHOVIEW
 70
     0
  9
$PUCSORGTOP
 10
0.0
 20
0.0
 30
0.0
  9
$PUCSORGBOTTOM
 10
0.0
 20
0.0
 30
0.0
  9
$PUCSORGLEFT
 10
0.0
 20
0.0
 30
0.0
  9
$PUCSORGRIGHT
 10
0.0
 20
0.0
 30
0.0
  9
$PUCSORGFRONT
 10
0.0
 20
0.0
 30
0.0
  9
$PUCSORGBACK
 10
0.0
 20
0.0
 30
0.0
  9
$USERI1
 70
     0
  9
$USERI2
 70
     0
  9
$USERI3
 70
     0
  9
$USERI4
 70
     0
  9
$USERI5
 70
     0
  9
$USERR1
 40
0.0
  9
$USERR2
 40
0.0
  9
$USERR3
 40
0.0
  9
$USERR4
 40
0.0
  9
$USERR5
 40
0.0
  9
$WORLDVIEW
 70
     1
  9
$SHADEDGE
 70
     3
  9
$SHADEDIF
 70
    70
  9
$TILEMODE
 70
     1
  9
$MAXACTVP
 70
    64
  9
$PINSBASE
 10
0.0
 20
0.0
 30
0.0
  9
$PLIMCHECK
 70
     0
  9
$PEXTMIN
 10
0.0
 20
0.0
 30
0.0
  9
$PEXTMAX
 10
431.8
 20
279.4
 30
0.0
  9
$PLIMMIN
 10
0.0
 20
0.0
  9
$PLIMMAX
 10
431.8
 20
279.4
  9
$UNITMODE
 70
     0
  9
$VISRETAIN
 70
     1
  9
$PLINEGEN
 70
     0
  9
$PSLTSCALE
 70
     1
  9
$TREEDEPTH
 70
  3020
  9
$CMLSTYLE
  2
Standard
  9
$CMLJUST
 70
     0
  9
$CMLSCALE
 40
20.0
  9
$PROXYGRAPHICS
 70
     1
  9
$MEASUREMENT
 70
     1
  9
$CELWEIGHT
370
    -1
  9
$ENDCAPS
280
     0
  9
$JOINSTYLE
280
     0
  9
$LWDISPLAY
290
     1
  9
$INSUNITS
 70
     4
  9
$HYPERLINKBASE
  1

  9
$STYLESHEET
  1

  9
$XEDIT
290
     1
  9
$CEPSNTYPE
380
     0
  9
$PSTYLEMODE
290
     1
  9
$FINGERPRINTGUID
  2
{1EBFA34C-3129-4E2B-8AAD-7277C50F8C3E}
  9
$VERSIONGUID
  2
{FAEB1C32-E019-11D5-929B-00C0DF256EC4}
  9
$EXTNAMES
290
     1
  9
$PSVPSCALE
 40
0.0
  9
$OLESTARTUP
290
     0
  0
ENDSEC
  0
SECTION
  2
CLASSES
  0
CLASS
  1
ACDBDICTIONARYWDFLT
  2
AcDbDictionaryWithDefault
  3
ObjectDBX Classes
 90
        0
280
     0
281
     0
  0
CLASS
  1
VISUALSTYLE
  2
AcDbVisualStyle
  3
ObjectDBX Classes
 90
     4095
280
     0
281
     0
  0
CLASS
  1
DICTIONARYVAR
  2
AcDbDictionaryVar
  3
ObjectDBX Classes
 90
        0
280
     0
281
     0
  0
CLASS
  1
ACDBPLACEHOLDER
  2
AcDbPlaceHolder
  3
ObjectDBX Classes
 90
        0
280
     0
281
     0
  0
CLASS
  1
LAYOUT
  2
AcDbLayout
  3
ObjectDBX Classes
 90
        0
280
     0
281
     0
  0
ENDSEC
  0
SECTION
  2
TABLES
  0
TABLE
  2
VPORT
  5
8
330
0
100
AcDbSymbolTable
 70
     1
  0
VPORT
  5
29
330
8
100
AcDbSymbolTableRecord
100
AcDbViewportTableRecord
  2
*Active
 70
     0
 10
0.0
 20
0.0
 11
1.0
 21
1.0
 12
215.9
 22
139.7
 13
0.0
 23
0.0
 14
10.0
 24
10.0
 15
10.0
 25
10.0
 16
0.0
 26
0.0
 36
1.0
 17
0.0
 27
0.0
 37
0.0
 40
279.4
 41
1.5454545455
 42
50.0
 43
0.0
 44
0.0
 50
0.0
 51
0.0
 71
     0
 72
  2000
 73
     1
 74
     3
 75
     0
 76
     0
 77
     0
 78
     0
281
     0
 65
     1
110
0.0
120
0.0
130
0.0
111
1.0
121
0.0
131
0.0
112
0.0
122
1.0
132
0.0
 79
     0
146
0.0
  0
ENDTAB
  0
TABLE
  2
LTYPE
  5
5
330
0
100
AcDbSymbolTable
 70
     6
  0
LTYPE
  5
14
330
5
100
AcDbSymbolTableRecord
100
AcDbLinetypeTableRecord
  2
ByBlock
 70
     0
  3

 72
    65
 73
     0
 40
0.0
  0
LTYPE
  5
15
330
5
100
AcDbSymbolTableRecord
100
AcDbLinetypeTableRecord
  2
ByLayer
 70
     0
  3

 72
    65
 73
     0
 40
0.0
  0
LTYPE
  5
16
330
5
100
AcDbSymbolTableRecord
100
AcDbLinetypeTableRecord
  2
Continuous
 70
     0
  3
Solid line
 72
    65
 73
     0
 40
0.0
  0
LTYPE
  5
3B
330
5
100
AcDbSymbolTableRecord
100
AcDbLinetypeTableRecord
  2
HIDDEN
 70
     0
  3
Hidden __ __ __ __ __ __ __ __ __ __ __ __ __ __
 72
    65
 73
     2
 40
1.905
 49
1.27
 74
     0
 49
-0.635
 74
     0
  0
LTYPE
  5
3C
330
5
100
AcDbSymbolTableRecord
100
AcDbLinetypeTableRecord
  2
PHANTOM
 70
     0
  3
Phantom ______  __  __  ______  __  __  ______
 72
    65
 73
     6
 40
12.7
 49
6.35
 74
     0
 49
-1.27
 74
     0
 49
1.27
 74
     0
 49
-1.27
 74
     0
 49
1.27
 74
     0
 49
-1.27
 74
     0
  0
LTYPE
  5
3D
330
5
100
AcDbSymbolTableRecord
100
AcDbLinetypeTableRecord
  2
CENTER
 70
     0
  3
Center ____ _ ____ _ ____ _ ____ _ ____ _ ____
 72
    65
 73
     4
 40
10.16
 49
6.35
 74
     0
 49
-1.27
 74
     0
 49
1.27
 74
     0
 49
-1.27
 74
     0
  0
LTYPE
  5
3E
330
5
100
AcDbSymbolTableRecord
100
AcDbLinetypeTableRecord
  2
CENTERX2
 70
     0
  3
Center (2x) ________  __  ________  __  _____
 72
    65
 73
     4
 40
20.32
 49
12.7
 74
     0
 49
-2.54
 74
     0
 49
2.54
 74
     0
 49
-2.54
 74
     0
  0
LTYPE
  5
3F
330
5
100
AcDbSymbolTableRecord
100
AcDbLinetypeTableRecord
  2
DOT2
 70
     0
  3
Dot (.5x) ........................................
 72
    65
 73
     2
 40
0.635
 49
0.0
 74
     0
 49
-0.635
 74
     0
  0
ENDTAB
  0
TABLE
  2
LAYER
  5
2
330
0
100
AcDbSymbolTable
 70
     1
  0
LAYER
  5
10
330
2
100
AcDbSymbolTableRecord
100
AcDbLayerTableRecord
  2
0
 70
     0
 62
     7
  6
Continuous
370
    -3
390
F
  0
ENDTAB
  0
TABLE
  2
STYLE
  5
3
330
0
100
AcDbSymbolTable
 70
     1
  0
STYLE
  5
11
330
3
100
AcDbSymbolTableRecord
100
AcDbTextStyleTableRecord
  2
Standard
 70
     0
 40
0.0
 41
1.0
 50
0.0
 71
     0
 42
2.5
  3
txt
  4

  0
ENDTAB
  0
TABLE
  2
VIEW
  5
6
330
0
100
AcDbSymbolTable
 70
     0
  0
ENDTAB
  0
TABLE
  2
UCS
  5
7
330
0
100
AcDbSymbolTable
 70
     0
  0
ENDTAB
  0
TABLE
  2
APPID
  5
9
330
0
100
AcDbSymbolTable
 70
     1
  0
APPID
  5
12
330
9
100
AcDbSymbolTableRecord
100
AcDbRegAppTableRecord
  2
ACAD
 70
     0
  0
ENDTAB
  0
TABLE
  2
DIMSTYLE
  5
A
330
0
100
AcDbSymbolTable
 70
     1
100
AcDbDimStyleTable
  0
DIMSTYLE
105
27
330
A
100
AcDbSymbolTableRecord
100
AcDbDimStyleTableRecord
  2
ISO-25
 70
     0
 41
2.5
 42
0.625
 43
3.75
 44
1.25
 73
     0
 74
     0
 77
     1
 78
     8
140
2.5
141
2.5
143
0.0393700787
147
0.625
171
     3
172
     1
271
     2
272
     2
274
     3
278
    44
283
     0
284
     8
340
11
  0
ENDTAB
  0
TABLE
  2
BLOCK_RECORD
  5
1
330
0
100
AcDbSymbolTable
 70
     1
  0
BLOCK_RECORD
  5
1F
330
1
100
AcDbSymbolTableRecord
100
AcDbBlockTableRecord
  2
*Model_Space
340
22
  0
BLOCK_RECORD
  5
1B
330
1
100
AcDbSymbolTableRecord
100
AcDbBlockTableRecord
  2
*Paper_Space
340
1E
  0
ENDTAB
  0
ENDSEC
  0
SECTION
  2
BLOCKS
  0
BLOCK
  5
20
330
1F
100
AcDbEntity
  8
0
100
AcDbBlockBegin
  2
*Model_Space
 70
     0
 10
0.0
 20
0.0
 30
0.0
  3
*Model_Space
  1

  0
ENDBLK
  5
21
330
1F
100
AcDbEntity
  8
0
100
AcDbBlockEnd
  0
BLOCK
  5
1C
330
1B
100
AcDbEntity
 67
     1
  8
0
100
AcDbBlockBegin
  2
*Paper_Space
 70
     0
 10
0.0
 20
0.0
 30
0.0
  3
*Paper_Space
  1

  0
ENDBLK
  5
1D
330
1B
100
AcDbEntity
 67
     1
  8
0
100
AcDbBlockEnd
  0
ENDSEC
  0
SECTION
  2
ENTITIES
  0
LINE
  5
40
330
1F
100
AcDbEntity
  8
0
  6
Continuous
 62
     7
100
AcDbLine
 10
10.1281289083
 20
272.4658613069
 30
0.0
 11
10.1281289083
 21
257.4659056688
 31
0.0
  0
LINE
  5
41
330
1F
100
AcDbEntity
  8
0
  6
Continuous
 62
     7
100
AcDbLine
 10
10.1281289083
 20
257.4659056688
 30
0.0
 11
6.5004409692
 21
257.4659056688
 31
0.0
  0
LINE
  5
42
330
1F
100
AcDbEntity
  8
0
  6
Continuous
 62
     7
100
AcDbLine
 10
6.5004409692
 20
257.4659056688
 30
0.0
 11
6.5004409692
 21
247.465475897
 31
0.0
  0
LINE
  5
43
330
1F
100
AcDbEntity
  8
0
  6
Continuous
 62
     7
100
AcDbLine
 10
6.5004409692
 20
247.465475897
 30
0.0
 11
10.1281289083
 21
247.465475897
 31
0.0
  0
LINE
  5
44
330
1F
100
AcDbEntity
  8
0
  6
Continuous
 62
     7
100
AcDbLine
 10
10.1281289083
 20
247.465475897
 30
0.0
 11
10.1281289083
 21
232.4655202588
 31
0.0
  0
LINE
  5
45
330
1F
100
AcDbEntity
  8
0
  6
Continuous
 62
     7
100
AcDbLine
 10
10.1281289083
 20
232.4655202588
 30
0.0
 11
34.269995957
 21
232.4655202588
 31
0.0
  0
LINE
  5
46
330
1F
100
AcDbEntity
  8
0
  6
Continuous
 62
     7
100
AcDbLine
 10
34.269995957
 20
232.4655202588
 30
0.0
 11
34.269995957
 21
247.465475897
 31
0.0
  0
LINE
  5
47
330
1F
100
AcDbEntity
  8
0
  6
Continuous
 62
     7
100
AcDbLine
 10
34.269995957
 20
247.465475897
 30
0.0
 11
37.8976838961
 21
247.465475897
 31
0.0
  0
LINE
  5
48
330
1F
100
AcDbEntity
  8
0
  6
Continuous
 62
     7
100
AcDbLine
 10
37.8976838961
 20
247.465475897
 30
0.0
 11
37.8976838961
 21
257.4659056688
 31
0.0
  0
LINE
  5
49
330
1F
100
AcDbEntity
  8
0
  6
Continuous
 62
     7
100
AcDbLine
 10
37.8976838961
 20
257.4659056688
 30
0.0
 11
34.269995957
 21
257.4659056688
 31
0.0
  0
LINE
  5
4A
330
1F
100
AcDbEntity
  8
0
  6
Continuous
 62
     7
100
AcDbLine
 10
34.269995957
 20
257.4659056688
 30
0.0
 11
34.269995957
 21
272.4658613069
 31
0.0
  0
LINE
  5
4B
330
1F
100
AcDbEntity
  8
0
  6
Continuous
 62
     7
100
AcDbLine
 10
34.269995957
 20
272.4658613069
 30
0.0
 11
10.1281289083
 21
272.4658613069
 31
0.0
  0
LINE
  5
4C
330
1F
100
AcDbEntity
  8
0
  6
Continuous
 62
     7
100
AcDbLine
 10
43.5538453952
 20
273.8769733486
 30
0.0
 11
43.5538453952
 21
258.8770177104
 31
0.0
  0
LINE
  5
4D
330
1F
100
AcDbEntity
  8
0
  6
Continuous
 62
     7
100
AcDbLine
 10
43.5538453952
 20
258.8770177104
 30
0.0
 11
39.926157456
 21
258.8770177104
 31
0.0
  0
LINE
  5
4E
330
1F
100
AcDbEntity
  8
0
  6
Continuous
 62
     7
100
AcDbLine
 10
39.926157456
 20
258.8770177104
 30
0.0
 11
39.926157456
 21
248.8765879386
 31
0.0
  0
LINE
  5
4F
330
1F
100
AcDbEntity
  8
0
  6
Continuous
 62
     7
100
AcDbLine
 10
39.926157456
 20
248.8765879386
 30
0.0
 11
43.5538453952
 21
248.8765879386
 31
0.0
  0
LINE
  5
50
330
1F
100
AcDbEntity
  8
0
  6
Continuous
 62
     7
100
AcDbLine
 10
43.5538453952
 20
248.8765879386
 30
0.0
 11
43.5538453952
 21
233.8766323005
 31
0.0
  0
LINE
  5
51
330
1F
100
AcDbEntity
  8
0
  6
Continuous
 62
     7
100
AcDbLine
 10
43.5538453952
 20
233.8766323005
 30
0.0
 11
67.6957124439
 21
233.8766323005
 31
0.0
  0
LINE
  5
52
330
1F
100
AcDbEntity
  8
0
  6
Continuous
 62
     7
100
AcDbLine
 10
67.6957124439
 20
233.8766323005
 30
0.0
 11
67.6957124439
 21
248.8765879386
 31
0.0
  0
LINE
  5
53
330
1F
100
AcDbEntity
  8
0
  6
Continuous
 62
     7
100
AcDbLine
 10
67.6957124439
 20
248.8765879386
 30
0.0
 11
71.323400383
 21
248.8765879386
 31
0.0
  0
LINE
  5
54
330
1F
100
AcDbEntity
  8
0
  6
Continuous
 62
     7
100
AcDbLine
 10
71.323400383
 20
248.8765879386
 30
0.0
 11
71.323400383
 21
258.8770177104
 31
0.0
  0
LINE
  5
55
330
1F
100
AcDbEntity
  8
0
  6
Continuous
 62
     7
100
AcDbLine
 10
71.323400383
 20
258.8770177104
 30
0.0
 11
67.6957124439
 21
258.8770177104
 31
0.0
  0
LINE
  5
56
330
1F
100
AcDbEntity
  8
0
  6
Continuous
 62
     7
100
AcDbLine
 10
67.6957124439
 20
258.8770177104
 30
0.0
 11
67.6957124439
 21
273.8769733486
 31
0.0
  0
LINE
  5
57
330
1F
100
AcDbEntity
  8
0
  6
Continuous
 62
     7
100
AcDbLine
 10
67.6957124439
 20
273.8769733486
 30
0.0
 11
43.5538453952
 21
273.8769733486
 31
0.0
  0
LINE
  5
58
330
1F
100
AcDbEntity
  8
0
  6
Continuous
 62
     7
100
AcDbLine
 10
77.6675479043
 20
273.9641343219
 30
0.0
 11
77.6675479043
 21
258.9641786837
 31
0.0
  0
LINE
  5
59
330
1F
100
AcDbEntity
  8
0
  6
Continuous
 62
     7
100
AcDbLine
 10
77.6675479043
 20
258.9641786837
 30
0.0
 11
74.0398599651
 21
258.9641786837
 31
0.0
  0
LINE
  5
5A
330
1F
100
AcDbEntity
  8
0
  6
Continuous
 62
     7
100
AcDbLine
 10
74.0398599651
 20
258.9641786837
 30
0.0
 11
74.0398599651
 21
248.9637489119
 31
0.0
  0
LINE
  5
5B
330
1F
100
AcDbEntity
  8
0
  6
Continuous
 62
     7
100
AcDbLine
 10
74.0398599651
 20
248.9637489119
 30
0.0
 11
77.6675479043
 21
248.9637489119
 31
0.0
  0
LINE
  5
5C
330
1F
100
AcDbEntity
  8
0
  6
Continuous
 62
     7
100
AcDbLine
 10
77.6675479043
 20
248.9637489119
 30
0.0
 11
77.6675479043
 21
233.963448764
 31
0.0
  0
LINE
  5
5D
330
1F
100
AcDbEntity
  8
0
  6
Continuous
 62
     7
100
AcDbLine
 10
77.6675479043
 20
233.963448764
 30
0.0
 11
101.809414953
 21
233.963448764
 31
0.0
  0
LINE
  5
5E
330
1F
100
AcDbEntity
  8
0
  6
Continuous
 62
     7
100
AcDbLine
 10
101.809414953
 20
233.963448764
 30
0.0
 11
101.809414953
 21
248.9637489119
 31
0.0
  0
LINE
  5
5F
330
1F
100
AcDbEntity
  8
0
  6
Continuous
 62
     7
100
AcDbLine
 10
101.809414953
 20
248.9637489119
 30
0.0
 11
105.4371028921
 21
248.9637489119
 31
0.0
  0
LINE
  5
60
330
1F
100
AcDbEntity
  8
0
  6
Continuous
 62
     7
100
AcDbLine
 10
105.4371028921
 20
248.9637489119
 30
0.0
 11
105.4371028921
 21
258.9641786837
 31
0.0
  0
LINE
  5
61
330
1F
100
AcDbEntity
  8
0
  6
Continuous
 62
     7
100
AcDbLine
 10
105.4371028921
 20
258.9641786837
 30
0.0
 11
101.809414953
 21
258.9641786837
 31
0.0
  0
LINE
  5
62
330
1F
100
AcDbEntity
  8
0
  6
Continuous
 62
     7
100
AcDbLine
 10
101.809414953
 20
258.9641786837
 30
0.0
 11
101.809414953
 21
273.9641343219
 31
0.0
  0
LINE
  5
63
330
1F
100
AcDbEntity
  8
0
  6
Continuous
 62
     7
100
AcDbLine
 10
101.809414953
 20
273.9641343219
 30
0.0
 11
77.6675479043
 21
273.9641343219
 31
0.0
  0
LINE
  5
64
330
1F
100
AcDbEntity
  8
0
  6
Continuous
 62
     7
100
AcDbLine
 10
133.1883988618
 20
202.9610140401
 30
0.0
 11
133.1883988618
 21
187.9610584019
 31
0.0
  0
LINE
  5
65
330
1F
100
AcDbEntity
  8
0
  6
Continuous
 62
     7
100
AcDbLine
 10
133.1883988618
 20
187.9610584019
 30
0.0
 11
129.5607109227
 21
187.9610584019
 31
0.0
  0
LINE
  5
66
330
1F
100
AcDbEntity
  8
0
  6
Continuous
 62
     7
100
AcDbLine
 10
129.5607109227
 20
187.9610584019
 30
0.0
 11
129.5607109227
 21
177.9606286301
 31
0.0
  0
LINE
  5
67
330
1F
100
AcDbEntity
  8
0
  6
Continuous
 62
     7
100
AcDbLine
 10
129.5607109227
 20
177.9606286301
 30
0.0
 11
133.1883988618
 21
177.9606286301
 31
0.0
  0
LINE
  5
68
330
1F
100
AcDbEntity
  8
0
  6
Continuous
 62
     7
100
AcDbLine
 10
133.1883988618
 20
177.9606286301
 30
0.0
 11
133.1883988618
 21
162.9606729919
 31
0.0
  0
LINE
  5
69
330
1F
100
AcDbEntity
  8
0
  6
Continuous
 62
     7
100
AcDbLine
 10
133.1883988618
 20
162.9606729919
 30
0.0
 11
157.3302659105
 21
162.9606729919
 31
0.0
  0
LINE
  5
6A
330
1F
100
AcDbEntity
  8
0
  6
Continuous
 62
     7
100
AcDbLine
 10
157.3302659105
 20
162.9606729919
 30
0.0
 11
157.3302659105
 21
177.9606286301
 31
0.0
  0
LINE
  5
6B
330
1F
100
AcDbEntity
  8
0
  6
Continuous
 62
     7
100
AcDbLine
 10
157.3302659105
 20
177.9606286301
 30
0.0
 11
160.9579538496
 21
177.9606286301
 31
0.0
  0
LINE
  5
6C
330
1F
100
AcDbEntity
  8
0
  6
Continuous
 62
     7
100
AcDbLine
 10
160.9579538496
 20
177.9606286301
 30
0.0
 11
160.9579538496
 21
187.9610584019
 31
0.0
  0
LINE
  5
6D
330
1F
100
AcDbEntity
  8
0
  6
Continuous
 62
     7
100
AcDbLine
 10
160.9579538496
 20
187.9610584019
 30
0.0
 11
157.3302659105
 21
187.9610584019
 31
0.0
  0
LINE
  5
6E
330
1F
100
AcDbEntity
  8
0
  6
Continuous
 62
     7
100
AcDbLine
 10
157.3302659105
 20
187.9610584019
 30
0.0
 11
157.3302659105
 21
202.9610140401
 31
0.0
  0
LINE
  5
6F
330
1F
100
AcDbEntity
  8
0
  6
Continuous
 62
     7
100
AcDbLine
 10
157.3302659105
 20
202.9610140401
 30
0.0
 11
133.1883988618
 21
202.9610140401
 31
0.0
  0
LINE
  5
70
330
1F
100
AcDbEntity
  8
0
  6
Continuous
 62
     7
100
AcDbLine
 10
32.8588839154
 20
68.8390519504
 30
0.0
 11
32.8588839154
 21
83.8391798435
 31
0.0
  0
LINE
  5
71
330
1F
100
AcDbEntity
  8
0
  6
Continuous
 62
     7
100
AcDbLine
 10
32.8588839154
 20
83.8391798435
 30
0.0
 11
36.4865718545
 21
83.8391798435
 31
0.0
  0
LINE
  5
72
330
1F
100
AcDbEntity
  8
0
  6
Continuous
 62
     7
100
AcDbLine
 10
36.4865718545
 20
83.8391798435
 30
0.0
 11
36.4865718545
 21
93.8396096153
 31
0.0
  0
LINE
  5
73
330
1F
100
AcDbEntity
  8
0
  6
Continuous
 62
     7
100
AcDbLine
 10
36.4865718545
 20
93.8396096153
 30
0.0
 11
32.8588839154
 21
93.8396096153
 31
0.0
  0
LINE
  5
74
330
1F
100
AcDbEntity
  8
0
  6
Continuous
 62
     7
100
AcDbLine
 10
32.8588839154
 20
93.8396096153
 30
0.0
 11
32.8588839154
 21
108.8395652534
 31
0.0
  0
LINE
  5
75
330
1F
100
AcDbEntity
  8
0
  6
Continuous
 62
     7
100
AcDbLine
 10
32.8588839154
 20
108.8395652534
 30
0.0
 11
8.7170168667
 21
108.8395652534
 31
0.0
  0
LINE
  5
76
330
1F
100
AcDbEntity
  8
0
  6
Continuous
 62
     7
100
AcDbLine
 10
8.7170168667
 20
108.8395652534
 30
0.0
 11
8.7170168667
 21
93.8396096153
 31
0.0
  0
LINE
  5
77
330
1F
100
AcDbEntity
  8
0
  6
Continuous
 62
     7
100
AcDbLine
 10
8.7170168667
 20
93.8396096153
 30
0.0
 11
5.0893289275
 21
93.8396096153
 31
0.0
  0
LINE
  5
78
330
1F
100
AcDbEntity
  8
0
  6
Continuous
 62
     7
100
AcDbLine
 10
5.0893289275
 20
93.8396096153
 30
0.0
 11
5.0893289275
 21
83.8391798435
 31
0.0
  0
LINE
  5
79
330
1F
100
AcDbEntity
  8
0
  6
Continuous
 62
     7
100
AcDbLine
 10
5.0893289275
 20
83.8391798435
 30
0.0
 11
8.7170168667
 21
83.8391798435
 31
0.0
  0
LINE
  5
7A
330
1F
100
AcDbEntity
  8
0
  6
Continuous
 62
     7
100
AcDbLine
 10
8.7170168667
 20
83.8391798435
 30
0.0
 11
8.7170168667
 21
68.8390519504
 31
0.0
  0
LINE
  5
7B
330
1F
100
AcDbEntity
  8
0
  6
Continuous
 62
     7
100
AcDbLine
 10
8.7170168667
 20
68.8390519504
 30
0.0
 11
32.8588839154
 21
68.8390519504
 31
0.0
  0
LINE
  5
7C
330
1F
100
AcDbEntity
  8
0
  6
Continuous
 62
     7
100
AcDbLine
 10
66.4447974479
 20
68.8390519504
 30
0.0
 11
66.4447974479
 21
83.8391798435
 31
0.0
  0
LINE
  5
7D
330
1F
100
AcDbEntity
  8
0
  6
Continuous
 62
     7
100
AcDbLine
 10
66.4447974479
 20
83.8391798435
 30
0.0
 11
70.0724853871
 21
83.8391798435
 31
0.0
  0
LINE
  5
7E
330
1F
100
AcDbEntity
  8
0
  6
Continuous
 62
     7
100
AcDbLine
 10
70.0724853871
 20
83.8391798435
 30
0.0
 11
70.0724853871
 21
93.8396096153
 31
0.0
  0
LINE
  5
7F
330
1F
100
AcDbEntity
  8
0
  6
Continuous
 62
     7
100
AcDbLine
 10
70.0724853871
 20
93.8396096153
 30
0.0
 11
66.4447974479
 21
93.8396096153
 31
0.0
  0
LINE
  5
80
330
1F
100
AcDbEntity
  8
0
  6
Continuous
 62
     7
100
AcDbLine
 10
66.4447974479
 20
93.8396096153
 30
0.0
 11
66.4447974479
 21
108.8395652534
 31
0.0
  0
LINE
  5
81
330
1F
100
AcDbEntity
  8
0
  6
Continuous
 62
     7
100
AcDbLine
 10
66.4447974479
 20
108.8395652534
 30
0.0
 11
42.3029303993
 21
108.8395652534
 31
0.0
  0
LINE
  5
82
330
1F
100
AcDbEntity
  8
0
  6
Continuous
 62
     7
100
AcDbLine
 10
42.3029303993
 20
108.8395652534
 30
0.0
 11
42.3029303993
 21
93.8396096153
 31
0.0
  0
LINE
  5
83
330
1F
100
AcDbEntity
  8
0
  6
Continuous
 62
     7
100
AcDbLine
 10
42.3029303993
 20
93.8396096153
 30
0.0
 11
38.6752424601
 21
93.8396096153
 31
0.0
  0
LINE
  5
84
330
1F
100
AcDbEntity
  8
0
  6
Continuous
 62
     7
100
AcDbLine
 10
38.6752424601
 20
93.8396096153
 30
0.0
 11
38.6752424601
 21
83.8391798435
 31
0.0
  0
LINE
  5
85
330
1F
100
AcDbEntity
  8
0
  6
Continuous
 62
     7
100
AcDbLine
 10
38.6752424601
 20
83.8391798435
 30
0.0
 11
42.3029303993
 21
83.8391798435
 31
0.0
  0
LINE
  5
86
330
1F
100
AcDbEntity
  8
0
  6
Continuous
 62
     7
100
AcDbLine
 10
42.3029303993
 20
83.8391798435
 30
0.0
 11
42.3029303993
 21
68.8390519504
 31
0.0
  0
LINE
  5
87
330
1F
100
AcDbEntity
  8
0
  6
Continuous
 62
     7
100
AcDbLine
 10
42.3029303993
 20
68.8390519504
 30
0.0
 11
66.4447974479
 21
68.8390519504
 31
0.0
  0
LINE
  5
88
330
1F
100
AcDbEntity
  8
0
  6
Continuous
 62
     7
100
AcDbLine
 10
99.7602708065
 20
68.8390519504
 30
0.0
 11
99.7602708065
 21
83.8391798435
 31
0.0
  0
LINE
  5
89
330
1F
100
AcDbEntity
  8
0
  6
Continuous
 62
     7
100
AcDbLine
 10
99.7602708065
 20
83.8391798435
 30
0.0
 11
103.3879587457
 21
83.8391798435
 31
0.0
  0
LINE
  5
8A
330
1F
100
AcDbEntity
  8
0
  6
Continuous
 62
     7
100
AcDbLine
 10
103.3879587457
 20
83.8391798435
 30
0.0
 11
103.3879587457
 21
93.8396096153
 31
0.0
  0
LINE
  5
8B
330
1F
100
AcDbEntity
  8
0
  6
Continuous
 62
     7
100
AcDbLine
 10
103.3879587457
 20
93.8396096153
 30
0.0
 11
99.7602708065
 21
93.8396096153
 31
0.0
  0
LINE
  5
8C
330
1F
100
AcDbEntity
  8
0
  6
Continuous
 62
     7
100
AcDbLine
 10
99.7602708065
 20
93.8396096153
 30
0.0
 11
99.7602708065
 21
108.8395652534
 31
0.0
  0
LINE
  5
8D
330
1F
100
AcDbEntity
  8
0
  6
Continuous
 62
     7
100
AcDbLine
 10
99.7602708065
 20
108.8395652534
 30
0.0
 11
75.6184037578
 21
108.8395652534
 31
0.0
  0
LINE
  5
8E
330
1F
100
AcDbEntity
  8
0
  6
Continuous
 62
     7
100
AcDbLine
 10
75.6184037578
 20
108.8395652534
 30
0.0
 11
75.6184037578
 21
93.8396096153
 31
0.0
  0
LINE
  5
8F
330
1F
100
AcDbEntity
  8
0
  6
Continuous
 62
     7
100
AcDbLine
 10
75.6184037578
 20
93.8396096153
 30
0.0
 11
71.9907158187
 21
93.8396096153
 31
0.0
  0
LINE
  5
90
330
1F
100
AcDbEntity
  8
0
  6
Continuous
 62
     7
100
AcDbLine
 10
71.9907158187
 20
93.8396096153
 30
0.0
 11
71.9907158187
 21
83.8391798435
 31
0.0
  0
LINE
  5
91
330
1F
100
AcDbEntity
  8
0
  6
Continuous
 62
     7
100
AcDbLine
 10
71.9907158187
 20
83.8391798435
 30
0.0
 11
75.6184037578
 21
83.8391798435
 31
0.0
  0
LINE
  5
92
330
1F
100
AcDbEntity
  8
0
  6
Continuous
 62
     7
100
AcDbLine
 10
75.6184037578
 20
83.8391798435
 30
0.0
 11
75.6184037578
 21
68.8390519504
 31
0.0
  0
LINE
  5
93
330
1F
100
AcDbEntity
  8
0
  6
Continuous
 62
     7
100
AcDbLine
 10
75.6184037578
 20
68.8390519504
 30
0.0
 11
99.7602708065
 21
68.8390519504
 31
0.0
  0
LINE
  5
94
330
1F
100
AcDbEntity
  8
0
  6
Continuous
 62
     7
100
AcDbLine
 10
265.5466431543
 20
95.5292578107
 30
0.0
 11
250.5466875161
 21
95.5292578107
 31
0.0
  0
LINE
  5
95
330
1F
100
AcDbEntity
  8
0
  6
Continuous
 62
     7
100
AcDbLine
 10
250.5466875161
 20
95.5292578107
 30
0.0
 11
250.5466875161
 21
99.1569457498
 31
0.0
  0
LINE
  5
96
330
1F
100
AcDbEntity
  8
0
  6
Continuous
 62
     7
100
AcDbLine
 10
250.5466875161
 20
99.1569457498
 30
0.0
 11
240.5462577443
 21
99.1569457498
 31
0.0
  0
LINE
  5
97
330
1F
100
AcDbEntity
  8
0
  6
Continuous
 62
     7
100
AcDbLine
 10
240.5462577443
 20
99.1569457498
 30
0.0
 11
240.5462577443
 21
95.5292578107
 31
0.0
  0
LINE
  5
98
330
1F
100
AcDbEntity
  8
0
  6
Continuous
 62
     7
100
AcDbLine
 10
240.5462577443
 20
95.5292578107
 30
0.0
 11
225.5463021061
 21
95.5292578107
 31
0.0
  0
LINE
  5
99
330
1F
100
AcDbEntity
  8
0
  6
Continuous
 62
     7
100
AcDbLine
 10
225.5463021061
 20
95.5292578107
 30
0.0
 11
225.5463021061
 21
71.387390762
 31
0.0
  0
LINE
  5
9A
330
1F
100
AcDbEntity
  8
0
  6
Continuous
 62
     7
100
AcDbLine
 10
225.5463021061
 20
71.387390762
 30
0.0
 11
240.5462577443
 21
71.387390762
 31
0.0
  0
LINE
  5
9B
330
1F
100
AcDbEntity
  8
0
  6
Continuous
 62
     7
100
AcDbLine
 10
240.5462577443
 20
71.387390762
 30
0.0
 11
240.5462577443
 21
67.7597028228
 31
0.0
  0
LINE
  5
9C
330
1F
100
AcDbEntity
  8
0
  6
Continuous
 62
     7
100
AcDbLine
 10
240.5462577443
 20
67.7597028228
 30
0.0
 11
250.5466875161
 21
67.7597028228
 31
0.0
  0
LINE
  5
9D
330
1F
100
AcDbEntity
  8
0
  6
Continuous
 62
     7
100
AcDbLine
 10
250.5466875161
 20
67.7597028228
 30
0.0
 11
250.5466875161
 21
71.387390762
 31
0.0
  0
LINE
  5
9E
330
1F
100
AcDbEntity
  8
0
  6
Continuous
 62
     7
100
AcDbLine
 10
250.5466875161
 20
71.387390762
 30
0.0
 11
265.5466431543
 21
71.387390762
 31
0.0
  0
LINE
  5
9F
330
1F
100
AcDbEntity
  8
0
  6
Continuous
 62
     7
100
AcDbLine
 10
265.5466431543
 20
71.387390762
 30
0.0
 11
265.5466431543
 21
95.5292578107
 31
0.0
  0
LINE
  5
A0
330
1F
100
AcDbEntity
  8
0
  6
Continuous
 62
     7
100
AcDbLine
 10
121.4766167787
 20
166.304140366
 30
0.0
 11
121.4766167787
 21
176.3042256281
 31
0.0
  0
LINE
  5
A1
330
1F
100
AcDbEntity
  8
0
  6
Continuous
 62
     7
100
AcDbLine
 10
121.4766167787
 20
176.3042256281
 30
0.0
 11
124.9764915911
 21
176.3042256281
 31
0.0
  0
LINE
  5
A2
330
1F
100
AcDbEntity
  8
0
  6
Continuous
 62
     7
100
AcDbLine
 10
124.9764915911
 20
176.3042256281
 30
0.0
 11
124.9764915911
 21
166.304140366
 31
0.0
  0
LINE
  5
A3
330
1F
100
AcDbEntity
  8
0
  6
Continuous
 62
     7
100
AcDbLine
 10
124.9764915911
 20
166.304140366
 30
0.0
 11
121.4766167787
 21
166.304140366
 31
0.0
  0
LINE
  5
A4
330
1F
100
AcDbEntity
  8
0
  6
Continuous
 62
     7
100
AcDbLine
 10
115.8321686121
 20
166.304140366
 30
0.0
 11
115.8321686121
 21
176.3042256281
 31
0.0
  0
LINE
  5
A5
330
1F
100
AcDbEntity
  8
0
  6
Continuous
 62
     7
100
AcDbLine
 10
115.8321686121
 20
176.3042256281
 30
0.0
 11
119.3320434244
 21
176.3042256281
 31
0.0
  0
LINE
  5
A6
330
1F
100
AcDbEntity
  8
0
  6
Continuous
 62
     7
100
AcDbLine
 10
119.3320434244
 20
176.3042256281
 30
0.0
 11
119.3320434244
 21
166.304140366
 31
0.0
  0
LINE
  5
A7
330
1F
100
AcDbEntity
  8
0
  6
Continuous
 62
     7
100
AcDbLine
 10
119.3320434244
 20
166.304140366
 30
0.0
 11
115.8321686121
 21
166.304140366
 31
0.0
  0
LINE
  5
A8
330
1F
100
AcDbEntity
  8
0
  6
Continuous
 62
     7
100
AcDbLine
 10
74.4880671835
 20
212.6548301114
 30
0.0
 11
64.4881541763
 21
212.6548301114
 31
0.0
  0
LINE
  5
A9
330
1F
100
AcDbEntity
  8
0
  6
Continuous
 62
     7
100
AcDbLine
 10
64.4881541763
 20
212.6548301114
 30
0.0
 11
64.4881541763
 21
216.1550494335
 31
0.0
  0
LINE
  5
AA
330
1F
100
AcDbEntity
  8
0
  6
Continuous
 62
     7
100
AcDbLine
 10
64.4881541763
 20
216.1550494335
 30
0.0
 11
74.4880671835
 21
216.1550494335
 31
0.0
  0
LINE
  5
AB
330
1F
100
AcDbEntity
  8
0
  6
Continuous
 62
     7
100
AcDbLine
 10
74.4880671835
 20
216.1550494335
 30
0.0
 11
74.4880671835
 21
212.6548301114
 31
0.0
  0
LINE
  5
AC
330
1F
100
AcDbEntity
  8
0
  6
Continuous
 62
     7
100
AcDbLine
 10
74.4880671835
 20
126.889121427
 30
0.0
 11
64.4881541763
 21
126.889121427
 31
0.0
  0
LINE
  5
AD
330
1F
100
AcDbEntity
  8
0
  6
Continuous
 62
     7
100
AcDbLine
 10
64.4881541763
 20
126.889121427
 30
0.0
 11
64.4881541763
 21
130.0892727343
 31
0.0
  0
LINE
  5
AE
330
1F
100
AcDbEntity
  8
0
  6
Continuous
 62
     7
100
AcDbLine
 10
64.4881541763
 20
130.0892727343
 30
0.0
 11
74.4880671835
 21
130.0892727343
 31
0.0
  0
LINE
  5
AF
330
1F
100
AcDbEntity
  8
0
  6
Continuous
 62
     7
100
AcDbLine
 10
74.4880671835
 20
130.0892727343
 30
0.0
 11
74.4880671835
 21
126.889121427
 31
0.0
  0
LINE
  5
B0
330
1F
100
AcDbEntity
  8
0
  6
Continuous
 62
     7
100
AcDbLine
 10
62.6803391278
 20
225.3782651511
 30
0.0
 11
52.679909356
 21
225.3782651511
 31
0.0
  0
LINE
  5
B1
330
1F
100
AcDbEntity
  8
0
  6
Continuous
 62
     7
100
AcDbLine
 10
52.679909356
 20
225.3782651511
 30
0.0
 11
52.679909356
 21
228.8784844732
 31
0.0
  0
LINE
  5
B2
330
1F
100
AcDbEntity
  8
0
  6
Continuous
 62
     7
100
AcDbLine
 10
52.679909356
 20
228.8784844732
 30
0.0
 11
62.6803391278
 21
228.8784844732
 31
0.0
  0
LINE
  5
B3
330
1F
100
AcDbEntity
  8
0
  6
Continuous
 62
     7
100
AcDbLine
 10
62.6803391278
 20
228.8784844732
 30
0.0
 11
62.6803391278
 21
225.3782651511
 31
0.0
  0
LINE
  5
B4
330
1F
100
AcDbEntity
  8
0
  6
Continuous
 62
     7
100
AcDbLine
 10
62.6803391278
 20
113.7302260306
 30
0.0
 11
52.679909356
 21
113.7302260306
 31
0.0
  0
LINE
  5
B5
330
1F
100
AcDbEntity
  8
0
  6
Continuous
 62
     7
100
AcDbLine
 10
52.679909356
 20
113.7302260306
 30
0.0
 11
52.679909356
 21
117.230100843
 31
0.0
  0
LINE
  5
B6
330
1F
100
AcDbEntity
  8
0
  6
Continuous
 62
     7
100
AcDbLine
 10
52.679909356
 20
117.230100843
 30
0.0
 11
62.6803391278
 21
117.230100843
 31
0.0
  0
LINE
  5
B7
330
1F
100
AcDbEntity
  8
0
  6
Continuous
 62
     7
100
AcDbLine
 10
62.6803391278
 20
117.230100843
 30
0.0
 11
62.6803391278
 21
113.7302260306
 31
0.0
  0
LINE
  5
B8
330
1F
100
AcDbEntity
  8
0
  6
Continuous
 62
     7
100
AcDbLine
 10
46.3533318333
 20
166.6110985763
 30
0.0
 11
36.3529020615
 21
166.6110985763
 31
0.0
  0
LINE
  5
B9
330
1F
100
AcDbEntity
  8
0
  6
Continuous
 62
     7
100
AcDbLine
 10
36.3529020615
 20
166.6110985763
 30
0.0
 11
36.3529020615
 21
170.1109733886
 31
0.0
  0
LINE
  5
BA
330
1F
100
AcDbEntity
  8
0
  6
Continuous
 62
     7
100
AcDbLine
 10
36.3529020615
 20
170.1109733886
 30
0.0
 11
46.3533318333
 21
170.1109733886
 31
0.0
  0
LINE
  5
BB
330
1F
100
AcDbEntity
  8
0
  6
Continuous
 62
     7
100
AcDbLine
 10
46.3533318333
 20
170.1109733886
 30
0.0
 11
46.3533318333
 21
166.6110985763
 31
0.0
  0
LINE
  5
BC
330
1F
100
AcDbEntity
  8
0
  6
Continuous
 62
     7
100
AcDbLine
 10
46.3529873235
 20
172.5883431863
 30
0.0
 11
36.3529020615
 21
172.5883431863
 31
0.0
  0
LINE
  5
BD
330
1F
100
AcDbEntity
  8
0
  6
Continuous
 62
     7
100
AcDbLine
 10
36.3529020615
 20
172.5883431863
 30
0.0
 11
36.3529020615
 21
176.0885625084
 31
0.0
  0
LINE
  5
BE
330
1F
100
AcDbEntity
  8
0
  6
Continuous
 62
     7
100
AcDbLine
 10
36.3529020615
 20
176.0885625084
 30
0.0
 11
46.3529873235
 21
176.0885625084
 31
0.0
  0
LINE
  5
BF
330
1F
100
AcDbEntity
  8
0
  6
Continuous
 62
     7
100
AcDbLine
 10
46.3529873235
 20
176.0885625084
 30
0.0
 11
46.3529873235
 21
172.5883431863
 31
0.0
  0
LINE
  5
C0
330
1F
100
AcDbEntity
  8
0
  6
Continuous
 62
     7
100
AcDbLine
 10
8.6629288319
 20
172.8574053212
 30
0.0
 11
13.8724334066
 21
172.8574053212
 31
0.0
  0
LINE
  5
C1
330
1F
100
AcDbEntity
  8
0
  6
Continuous
 62
     7
100
AcDbLine
 10
13.8724334066
 20
172.8574053212
 30
0.0
 11
13.8724334066
 21
169.8500072334
 31
0.0
  0
LINE
  5
C2
330
1F
100
AcDbEntity
  8
0
  6
Continuous
 62
     7
100
AcDbLine
 10
13.8724334066
 20
169.8500072334
 30
0.0
 11
8.6663739296
 21
169.8500072334
 31
0.0
  0
LINE
  5
C3
330
1F
100
AcDbEntity
  8
0
  6
Continuous
 62
     7
100
AcDbLine
 10
8.6663739296
 20
169.8500072334
 30
0.0
 11
8.6663739296
 21
169.3375489419
 31
0.0
  0
LINE
  5
C4
330
1F
100
AcDbEntity
  8
0
  6
Continuous
 62
     7
100
AcDbLine
 10
8.6663739296
 20
169.3375489419
 30
0.0
 11
8.6651681454
 21
169.3375489419
 31
0.0
  0
LINE
  5
C5
330
1F
100
AcDbEntity
  8
0
  6
Continuous
 62
     7
100
AcDbLine
 10
8.6651681454
 20
169.3375489419
 30
0.0
 11
8.6663739296
 21
169.1504801336
 31
0.0
  0
LINE
  5
C6
330
1F
100
AcDbEntity
  8
0
  6
Continuous
 62
     7
100
AcDbLine
 10
8.6663739296
 20
169.1504801336
 30
0.0
 11
8.6663739296
 21
169.1373887622
 31
0.0
  0
LINE
  5
C7
330
1F
100
AcDbEntity
  8
0
  6
Continuous
 62
     7
100
AcDbLine
 10
8.6663739296
 20
169.1373887622
 30
0.0
 11
8.6689577529
 21
168.7498152644
 31
0.0
  0
LINE
  5
C8
330
1F
100
AcDbEntity
  8
0
  6
Continuous
 62
     7
100
AcDbLine
 10
103.4181033511
 20
122.0522041748
 30
0.0
 11
100.4794349635
 21
126.2410985387
 31
0.0
  0
LINE
  5
C9
330
1F
100
AcDbEntity
  8
0
  6
Continuous
 62
     7
100
AcDbLine
 10
100.4794349635
 20
126.2410985387
 30
0.0
 11
102.9447469191
 21
127.9698485936
 31
0.0
  0
LINE
  5
CA
330
1F
100
AcDbEntity
  8
0
  6
Continuous
 62
     7
100
AcDbLine
 10
102.9447469191
 20
127.9698485936
 30
0.0
 11
105.8269157034
 21
123.8622585368
 31
0.0
  0
LINE
  5
CB
330
1F
100
AcDbEntity
  8
0
  6
Continuous
 62
     7
100
AcDbLine
 10
105.8420741336
 20
218.0281490845
 30
0.0
 11
102.9447469191
 21
213.898510402
 31
0.0
  0
LINE
  5
CC
330
1F
100
AcDbEntity
  8
0
  6
Continuous
 62
     7
100
AcDbLine
 10
102.9447469191
 20
213.898510402
 30
0.0
 11
100.4794349635
 21
215.627260457
 31
0.0
  0
LINE
  5
CD
330
1F
100
AcDbEntity
  8
0
  6
Continuous
 62
     7
100
AcDbLine
 10
100.4794349635
 20
215.627260457
 30
0.0
 11
103.4339508007
 21
219.8392369759
 31
0.0
  0
LINE
  5
CE
330
1F
100
AcDbEntity
  8
0
  6
Continuous
 62
     7
100
AcDbLine
 10
333.684384875
 20
253.6834604137
 30
0.0
 11
333.684384875
 21
218.4494121137
 31
0.0
  0
LINE
  5
CF
330
1F
100
AcDbEntity
  8
0
  6
Continuous
 62
     7
100
AcDbLine
 10
333.684384875
 20
218.4494121137
 30
0.0
 11
346.0305817102
 21
218.4494121137
 31
0.0
  0
LINE
  5
D0
330
1F
100
AcDbEntity
  8
0
  6
Continuous
 62
     7
100
AcDbLine
 10
346.1769983649
 20
253.3389506379
 30
0.0
 11
340.5332392178
 21
253.3389506379
 31
0.0
  0
LINE
  5
D1
330
1F
100
AcDbEntity
  8
0
  6
Continuous
 62
     7
100
AcDbLine
 10
340.5332392178
 20
253.3389506379
 30
0.0
 11
340.5332392178
 21
250.3389595103
 31
0.0
  0
LINE
  5
D2
330
1F
100
AcDbEntity
  8
0
  6
Continuous
 62
     7
100
AcDbLine
 10
340.5332392178
 20
250.3389595103
 30
0.0
 11
346.1769983649
 21
250.3389595103
 31
0.0
  0
LINE
  5
D3
330
1F
100
AcDbEntity
  8
0
  6
Continuous
 62
     7
100
AcDbLine
 10
345.8538481952
 20
224.9137935467
 30
0.0
 11
340.2100890481
 21
224.9137935467
 31
0.0
  0
LINE
  5
D4
330
1F
100
AcDbEntity
  8
0
  6
Continuous
 62
     7
100
AcDbLine
 10
340.2100890481
 20
224.9137935467
 30
0.0
 11
340.2100890481
 21
221.9138024191
 31
0.0
  0
LINE
  5
D5
330
1F
100
AcDbEntity
  8
0
  6
Continuous
 62
     7
100
AcDbLine
 10
340.2100890481
 20
221.9138024191
 30
0.0
 11
345.8538481952
 21
221.9138024191
 31
0.0
  0
LINE
  5
D6
330
1F
100
AcDbEntity
  8
0
  6
Continuous
 62
     7
100
AcDbLine
 10
346.0302372004
 20
225.1060300016
 30
0.0
 11
346.0302372004
 21
250.1053818823
 31
0.0
  0
LINE
  5
D7
330
1F
100
AcDbEntity
  8
0
  6
Continuous
 62
     7
100
AcDbLine
 10
346.0302372004
 20
218.4494121137
 30
0.0
 11
346.0302372004
 21
221.9138024191
 31
0.0
  0
LINE
  5
D8
330
1F
100
AcDbEntity
  8
0
  6
Continuous
 62
     7
100
AcDbLine
 10
346.1769983649
 20
253.3389506379
 30
0.0
 11
346.0302372004
 21
258.9940786076
 31
0.0
  0
LINE
  5
D9
330
1F
100
AcDbEntity
  8
0
  6
Continuous
 62
     7
100
AcDbLine
 10
333.684384875
 20
253.3124233852
 30
0.0
 11
333.684384875
 21
258.9940786076
 31
0.0
  0
LINE
  5
DA
330
1F
100
AcDbEntity
  8
0
  6
Continuous
 62
     7
100
AcDbLine
 10
105.129972427
 20
109.0547116084
 30
0.0
 11
105.129972427
 21
73.3411057005
 31
0.0
  0
LINE
  5
DB
330
1F
100
AcDbEntity
  8
0
  6
Continuous
 62
     7
100
AcDbLine
 10
105.129972427
 20
73.3411057005
 30
0.0
 11
117.4761692622
 21
73.3411057005
 31
0.0
  0
LINE
  5
DC
330
1F
100
AcDbEntity
  8
0
  6
Continuous
 62
     7
100
AcDbLine
 10
117.6225859169
 20
108.7098573229
 30
0.0
 11
111.9788267698
 21
108.7098573229
 31
0.0
  0
LINE
  5
DD
330
1F
100
AcDbEntity
  8
0
  6
Continuous
 62
     7
100
AcDbLine
 10
111.9788267698
 20
108.7098573229
 30
0.0
 11
111.9788267698
 21
105.7098661952
 31
0.0
  0
LINE
  5
DE
330
1F
100
AcDbEntity
  8
0
  6
Continuous
 62
     7
100
AcDbLine
 10
111.9788267698
 20
105.7098661952
 30
0.0
 11
117.6225859169
 21
105.7098661952
 31
0.0
  0
LINE
  5
DF
330
1F
100
AcDbEntity
  8
0
  6
Continuous
 62
     7
100
AcDbLine
 10
117.2994357472
 20
80.2843557219
 30
0.0
 11
111.6556766001
 21
80.2843557219
 31
0.0
  0
LINE
  5
E0
330
1F
100
AcDbEntity
  8
0
  6
Continuous
 62
     7
100
AcDbLine
 10
111.6556766001
 20
80.2843557219
 30
0.0
 11
111.6556766001
 21
77.2843645943
 31
0.0
  0
LINE
  5
E1
330
1F
100
AcDbEntity
  8
0
  6
Continuous
 62
     7
100
AcDbLine
 10
111.6556766001
 20
77.2843645943
 30
0.0
 11
117.2994357472
 21
77.2843645943
 31
0.0
  0
LINE
  5
E2
330
1F
100
AcDbEntity
  8
0
  6
Continuous
 62
     7
100
AcDbLine
 10
117.4758247524
 20
80.4765921768
 30
0.0
 11
117.4758247524
 21
105.476633077
 31
0.0
  0
LINE
  5
E3
330
1F
100
AcDbEntity
  8
0
  6
Continuous
 62
     7
100
AcDbLine
 10
117.4758247524
 20
73.3411057005
 30
0.0
 11
117.4758247524
 21
77.2843645943
 31
0.0
  0
LINE
  5
E4
330
1F
100
AcDbEntity
  8
0
  6
Continuous
 62
     7
100
AcDbLine
 10
117.6225859169
 20
108.7098573229
 30
0.0
 11
117.6225859169
 21
111.8373170675
 31
0.0
  0
LINE
  5
E5
330
1F
100
AcDbEntity
  8
0
  6
Continuous
 62
     7
100
AcDbLine
 10
105.129972427
 20
108.7098573229
 30
0.0
 11
105.129972427
 21
111.8373170675
 31
0.0
  0
LINE
  5
E6
330
1F
100
AcDbEntity
  8
0
  6
Continuous
 62
     7
100
AcDbLine
 10
117.6225859169
 20
111.8373170675
 30
0.0
 11
105.129972427
 21
111.8373170675
 31
0.0
  0
LINE
  5
E7
330
1F
100
AcDbEntity
  8
0
  6
Continuous
 62
     7
100
AcDbLine
 10
226.0523869668
 20
142.298010169
 30
0.0
 11
226.0523869668
 21
106.5844042611
 31
0.0
  0
LINE
  5
E8
330
1F
100
AcDbEntity
  8
0
  6
Continuous
 62
     7
100
AcDbLine
 10
226.0523869668
 20
106.5844042611
 30
0.0
 11
238.398583802
 21
106.5844042611
 31
0.0
  0
LINE
  5
E9
330
1F
100
AcDbEntity
  8
0
  6
Continuous
 62
     7
100
AcDbLine
 10
238.5450004567
 20
141.9531558834
 30
0.0
 11
232.9012413096
 21
141.9531558834
 31
0.0
  0
LINE
  5
EA
330
1F
100
AcDbEntity
  8
0
  6
Continuous
 62
     7
100
AcDbLine
 10
232.9012413096
 20
141.9531558834
 30
0.0
 11
232.9012413096
 21
138.9531647558
 31
0.0
  0
LINE
  5
EB
330
1F
100
AcDbEntity
  8
0
  6
Continuous
 62
     7
100
AcDbLine
 10
232.9012413096
 20
138.9531647558
 30
0.0
 11
238.5450004567
 21
138.9531647558
 31
0.0
  0
LINE
  5
EC
330
1F
100
AcDbEntity
  8
0
  6
Continuous
 62
     7
100
AcDbLine
 10
238.221850287
 20
113.5276542825
 30
0.0
 11
232.5780911399
 21
113.5276542825
 31
0.0
  0
LINE
  5
ED
330
1F
100
AcDbEntity
  8
0
  6
Continuous
 62
     7
100
AcDbLine
 10
232.5780911399
 20
113.5276542825
 30
0.0
 11
232.5780911399
 21
110.5276631548
 31
0.0
  0
LINE
  5
EE
330
1F
100
AcDbEntity
  8
0
  6
Continuous
 62
     7
100
AcDbLine
 10
232.5780911399
 20
110.5276631548
 30
0.0
 11
238.221850287
 21
110.5276631548
 31
0.0
  0
LINE
  5
EF
330
1F
100
AcDbEntity
  8
0
  6
Continuous
 62
     7
100
AcDbLine
 10
238.3982392922
 20
113.7198907374
 30
0.0
 11
238.3982392922
 21
138.7199316376
 31
0.0
  0
LINE
  5
F0
330
1F
100
AcDbEntity
  8
0
  6
Continuous
 62
     7
100
AcDbLine
 10
238.3982392922
 20
106.5844042611
 30
0.0
 11
238.3982392922
 21
110.5276631548
 31
0.0
  0
LINE
  5
F1
330
1F
100
AcDbEntity
  8
0
  6
Continuous
 62
     7
100
AcDbLine
 10
238.5450004567
 20
141.9531558834
 30
0.0
 11
238.5450004567
 21
145.0806156281
 31
0.0
  0
LINE
  5
F2
330
1F
100
AcDbEntity
  8
0
  6
Continuous
 62
     7
100
AcDbLine
 10
238.5450004567
 20
145.0806156281
 30
0.0
 11
226.0523869668
 21
145.0806156281
 31
0.0
  0
LINE
  5
F3
330
1F
100
AcDbEntity
  8
0
  6
Continuous
 62
     7
100
AcDbLine
 10
226.0523869668
 20
141.9531558834
 30
0.0
 11
226.0523869668
 21
145.0806156281
 31
0.0
  0
LINE
  5
F4
330
1F
100
AcDbEntity
  8
0
  6
Continuous
 62
     7
100
AcDbLine
 10
272.0523657604
 20
122.9699782175
 30
0.0
 11
272.0523657604
 21
128.3699782175
 31
0.0
  0
LINE
  5
F5
330
1F
100
AcDbEntity
  8
0
  6
Continuous
 62
     7
100
AcDbLine
 10
272.0523657604
 20
128.3699782175
 30
0.0
 11
268.3523657604
 21
128.3699782175
 31
0.0
  0
LINE
  5
F6
330
1F
100
AcDbEntity
  8
0
  6
Continuous
 62
     7
100
AcDbLine
 10
268.3523657604
 20
128.3699782175
 30
0.0
 11
268.3523657604
 21
122.9699782175
 31
0.0
  0
LINE
  5
F7
330
1F
100
AcDbEntity
  8
0
  6
Continuous
 62
     7
100
AcDbLine
 10
268.3523657604
 20
122.9699782175
 30
0.0
 11
272.0523657604
 21
122.9699782175
 31
0.0
  0
LINE
  5
F8
330
1F
100
AcDbEntity
  8
0
  6
Continuous
 62
     7
100
AcDbLine
 10
139.1181011228
 20
239.6747318271
 30
0.0
 11
139.1181011228
 21
245.1747318271
 31
0.0
  0
LINE
  5
F9
330
1F
100
AcDbEntity
  8
0
  6
Continuous
 62
     7
100
AcDbLine
 10
139.1181011228
 20
245.1747318271
 30
0.0
 11
135.4181011228
 21
245.1747318271
 31
0.0
  0
LINE
  5
FA
330
1F
100
AcDbEntity
  8
0
  6
Continuous
 62
     7
100
AcDbLine
 10
135.4181011228
 20
245.1747318271
 30
0.0
 11
135.4181011228
 21
239.6747318271
 31
0.0
  0
LINE
  5
FB
330
1F
100
AcDbEntity
  8
0
  6
Continuous
 62
     7
100
AcDbLine
 10
135.4181011228
 20
239.6747318271
 30
0.0
 11
139.1181011228
 21
239.6747318271
 31
0.0
  0
LINE
  5
FC
330
1F
100
AcDbEntity
  8
0
  6
Continuous
 62
     7
100
AcDbLine
 10
101.2461414695
 20
136.876976592
 30
0.0
 11
101.2461414695
 21
144.8768380957
 31
0.0
  0
LINE
  5
FD
330
1F
100
AcDbEntity
  8
0
  6
Continuous
 62
     7
100
AcDbLine
 10
101.2461414695
 20
144.8768380957
 30
0.0
 11
33.2461129033
 21
144.8768380957
 31
0.0
  0
LINE
  5
FE
330
1F
100
AcDbEntity
  8
0
  6
Continuous
 62
     7
100
AcDbLine
 10
33.2461129033
 20
144.8768380957
 30
0.0
 11
33.2461129033
 21
136.876976592
 31
0.0
  0
LINE
  5
FF
330
1F
100
AcDbEntity
  8
0
  6
Continuous
 62
     7
100
AcDbLine
 10
33.2461129033
 20
136.876976592
 30
0.0
 11
101.2461414695
 21
136.876976592
 31
0.0
  0
LINE
  5
100
330
1F
100
AcDbEntity
  8
0
  6
Continuous
 62
     7
100
AcDbLine
 10
101.3112538172
 20
197.8708821027
 30
0.0
 11
101.3112538172
 21
205.8710881162
 31
0.0
  0
LINE
  5
101
330
1F
100
AcDbEntity
  8
0
  6
Continuous
 62
     7
100
AcDbLine
 10
101.3112538172
 20
205.8710881162
 30
0.0
 11
33.3110529961
 21
205.8710881162
 31
0.0
  0
LINE
  5
102
330
1F
100
AcDbEntity
  8
0
  6
Continuous
 62
     7
100
AcDbLine
 10
33.3110529961
 20
205.8710881162
 30
0.0
 11
33.3110529961
 21
197.8708821027
 31
0.0
  0
LINE
  5
103
330
1F
100
AcDbEntity
  8
0
  6
Continuous
 62
     7
100
AcDbLine
 10
33.3110529961
 20
197.8708821027
 30
0.0
 11
101.3112538172
 21
197.8708821027
 31
0.0
  0
LINE
  5
104
330
1F
100
AcDbEntity
  8
0
  6
Continuous
 62
     7
100
AcDbLine
 10
337.1685233164
 20
99.867355396
 30
0.0
 11
337.1685233164
 21
105.267355396
 31
0.0
  0
LINE
  5
105
330
1F
100
AcDbEntity
  8
0
  6
Continuous
 62
     7
100
AcDbLine
 10
337.1685233164
 20
105.267355396
 30
0.0
 11
333.4685233164
 21
105.267355396
 31
0.0
  0
LINE
  5
106
330
1F
100
AcDbEntity
  8
0
  6
Continuous
 62
     7
100
AcDbLine
 10
333.4685233164
 20
105.267355396
 30
0.0
 11
333.4685233164
 21
99.867355396
 31
0.0
  0
LINE
  5
107
330
1F
100
AcDbEntity
  8
0
  6
Continuous
 62
     7
100
AcDbLine
 10
333.4685233164
 20
99.867355396
 30
0.0
 11
337.1685233164
 21
99.867355396
 31
0.0
  0
LINE
  5
108
330
1F
100
AcDbEntity
  8
0
  6
Continuous
 62
     7
100
AcDbLine
 10
338.0382193742
 20
165.2663339484
 30
0.0
 11
338.0382193742
 21
170.6663339484
 31
0.0
  0
LINE
  5
109
330
1F
100
AcDbEntity
  8
0
  6
Continuous
 62
     7
100
AcDbLine
 10
338.0382193742
 20
170.6663339484
 30
0.0
 11
334.3382193742
 21
170.6663339484
 31
0.0
  0
LINE
  5
10A
330
1F
100
AcDbEntity
  8
0
  6
Continuous
 62
     7
100
AcDbLine
 10
334.3382193742
 20
170.6663339484
 30
0.0
 11
334.3382193742
 21
165.2663339484
 31
0.0
  0
LINE
  5
10B
330
1F
100
AcDbEntity
  8
0
  6
Continuous
 62
     7
100
AcDbLine
 10
334.3382193742
 20
165.2663339484
 30
0.0
 11
338.0382193742
 21
165.2663339484
 31
0.0
  0
LWPOLYLINE
  5
10C
330
1F
100
AcDbEntity
  8
0
  6
Continuous
 62
     7
100
AcDbPolyline
 90
       37
 70
   128
 43
0.0
 10
54.3001388316
 20
231.656955815
 10
51.7762491592
 20
231.624217937
 10
49.2856250015
 20
231.5270618749
 10
46.831369491
 20
231.3670739865
 10
44.4165857599
 20
231.1458406296
 10
42.0443769408
 20
230.864948162
 10
39.7589728223
 20
230.5325359485
 10
37.5205697992
 20
230.1456093739
 10
35.3321077155
 20
229.705671321
 10
33.1965264152
 20
229.2142246727
 10
31.074923485
 20
228.6612121268
 10
29.014566357
 20
228.0577287786
 10
27.0185785639
 20
227.4053714149
 10
25.0900836384
 20
226.7057368225
 10
23.2322051133
 20
225.960421788
 10
21.4480665215
 20
225.1710230982
 10
19.7407913956
 20
224.3391375399
 10
18.2870429655
 20
223.563511934
 10
16.8989904851
 20
222.756560231
 10
15.5788427027
 20
221.9194115692
 10
14.3288083666
 20
221.0531950867
 10
13.1510962252
 20
220.1590399217
 10
12.0669483222
 20
219.2547495649
 10
11.056785832
 20
218.325668321
 10
10.1227012775
 20
217.3728659121
 10
9.2667871818
 20
216.3974120608
 10
8.6034168499
 20
215.5527873719
 10
7.9991081793
 20
214.6932788663
 10
7.4551393809
 20
213.8195399806
 10
6.9727886655
 20
212.932224151
 10
6.5533342441
 20
212.0319848142
 10
6.1980543274
 20
211.1194754064
 10
5.9230031648
 20
210.2484581046
 10
5.7072095024
 20
209.3676615497
 10
5.5517447119
 20
208.4776334396
 10
5.457680165
 20
207.578921472
 10
5.4260872334
 20
206.6720733449
  0
LWPOLYLINE
  5
10D
330
1F
100
AcDbEntity
  8
0
  6
Continuous
 62
     7
100
AcDbPolyline
 90
       15
 70
   128
 43
0.0
 10
5.4260872334
 20
206.6720733449
 10
5.4664134614
 20
205.6481411449
 10
5.5863560584
 20
204.6347078334
 10
5.784360894
 20
203.6325589837
 10
6.0588738378
 20
202.6424801691
 10
6.4083407593
 20
201.6652569627
 10
6.8312075279
 20
200.7016749379
 10
7.3259200134
 20
199.7525196678
 10
7.8909240852
 20
198.8185767257
 10
8.5565318618
 20
197.8573324311
 10
9.2957924967
 20
196.9145491507
 10
10.1069191006
 20
195.9911301112
 10
10.9881247844
 20
195.0879785396
 10
11.9376226587
 20
194.2059976627
 10
12.9536258345
 20
193.3460907074
  0
ARC
  5
10E
330
1F
100
AcDbEntity
  8
0
  6
Continuous
 62
     7
100
AcDbCircle
 10
68.4350851727
 20
171.0336642398
 30
0.0
 40
59.79997245123584
100
AcDbArc
 50
158.091978878
 51
178.2523592019
  0
ARC
  5
10F
330
1F
100
AcDbEntity
  8
0
  6
Continuous
 62
     7
100
AcDbCircle
 10
68.3978663575
 20
170.8668621304
 30
0.0
 40
59.76641540636672
100
AcDbArc
 50
182.0299566195
 51
201.9041819941
  0
LWPOLYLINE
  5
110
330
1F
100
AcDbEntity
  8
0
  6
Continuous
 62
     7
100
AcDbPolyline
 90
       14
 70
   128
 43
0.0
 10
12.9460466194
 20
148.5706719118
 10
11.9590001606
 20
147.6694135024
 10
11.0435563489
 20
146.7456959219
 10
10.201652994
 20
145.8004954835
 10
9.4352279056
 20
144.8347885003
 10
8.7462188933
 20
143.8495512855
 10
8.1365637666
 20
142.8457601522
 10
7.6082003352
 20
141.8243914135
 10
7.1969347114
 20
140.8735291384
 10
6.8570975978
 20
139.9094691761
 10
6.5901816013
 20
138.9329635362
 10
6.3976793287
 20
137.9447642287
 10
6.2810833868
 20
136.9456232631
 10
6.2418863825
 20
135.9362926491
  0
LWPOLYLINE
  5
111
330
1F
100
AcDbEntity
  8
0
  6
Continuous
 62
     7
100
AcDbPolyline
 90
       36
 70
   128
 43
0.0
 10
6.2418863825
 20
135.9362926491
 10
6.2774126285
 20
134.9747515119
 10
6.3831392173
 20
134.0223988735
 10
6.5577879249
 20
133.0798882098
 10
6.8000805273
 20
132.1478729965
 10
7.1087388005
 20
131.2270067095
 10
7.4824845205
 20
130.3179428247
 10
8.0047912154
 20
129.2625869086
 10
8.6136383298
 20
128.2256023751
 10
9.3069333193
 20
127.208059011
 10
10.0825836394
 20
126.2110266033
 10
10.9547887004
 20
125.2180458711
 10
11.9079929564
 20
124.2485669766
 10
12.9399876366
 20
123.3037191262
 10
14.0485639698
 20
122.384631526
 10
15.2315131849
 20
121.4924333824
 10
16.4635937538
 20
120.643433436
 10
17.763191611
 20
119.8225302072
 10
19.1282142122
 20
119.0307934829
 10
20.5565690128
 20
118.2692930498
 10
22.26003006
 20
117.4391725573
 10
24.04002578
 20
116.6513498571
 10
25.8934530086
 20
115.9074114027
 10
27.8172085815
 20
115.2089436474
 10
29.8081893343
 20
114.5575330448
 10
31.8260495241
 20
113.9650939906
 10
33.9028222305
 20
113.4210797557
 10
36.0355675792
 20
112.9269933136
 10
38.2213456959
 20
112.4843376377
 10
40.5033476952
 20
112.0872238956
 10
42.8343844948
 20
111.7468233835
 10
45.2113325296
 20
111.4647329846
 10
47.631068235
 20
111.2425495816
 10
50.0904680461
 20
111.0818700578
 10
52.586408398
 20
110.9842912959
 10
55.1157657258
 20
110.9514101791
  0
ARC
  5
112
330
1F
100
AcDbEntity
  8
0
  6
Continuous
 62
     7
100
AcDbCircle
 10
55.1399353881
 20
206.4843199088
 30
0.0
 40
95.53291278716107
100
AcDbArc
 50
269.9855042664
 51
274.5070584074
  0
ARC
  5
113
330
1F
100
AcDbEntity
  8
0
  6
Continuous
 62
     7
100
AcDbCircle
 10
68.629881612
 20
171.6807203691
 30
0.0
 40
60.72931070289728
100
AcDbArc
 50
264.3462984376
 51
270.0074465677
  0
ARC
  5
114
330
1F
100
AcDbEntity
  8
0
  6
Continuous
 62
     7
100
AcDbCircle
 10
68.7191089764
 20
170.7327746089
 30
0.0
 40
59.78141975903481
100
AcDbArc
 50
269.9220472191
 51
305.4808686235
  0
ARC
  5
115
330
1F
100
AcDbEntity
  8
0
  6
Continuous
 62
     7
100
AcDbCircle
 10
68.7350404251
 20
170.909683446
 30
0.0
 40
59.91049492576807
100
AcDbArc
 50
308.2520098423
 51
0.0400653987
  0
ARC
  5
116
330
1F
100
AcDbEntity
  8
0
  6
Continuous
 62
     7
100
AcDbCircle
 10
68.7361126309
 20
170.9931990057
 30
0.0
 40
59.90942253062095
100
AcDbArc
 50
359.9601940477
 51
51.7300244146
  0
ARC
  5
117
330
1F
100
AcDbEntity
  8
0
  6
Continuous
 62
     7
100
AcDbCircle
 10
68.720339127
 20
171.1741897798
 30
0.0
 40
59.77726703378487
100
AcDbArc
 50
54.4990863548
 51
90.0791372817
  0
LWPOLYLINE
  5
118
330
1F
100
AcDbEntity
  8
0
  6
Continuous
 62
     7
100
AcDbPolyline
 90
        3
 70
   128
 43
0.0
 10
68.6377744258
 20
230.9513997942
 10
67.3091845029
 20
230.9342346745
 10
66.2701309916
 20
230.9007568571
  0
ARC
  5
119
330
1F
100
AcDbEntity
  8
0
  6
Continuous
 62
     7
100
AcDbCircle
 10
54.3797381819
 20
137.8014033187
 30
0.0
 40
93.85558625063076
100
AcDbArc
 50
82.7217438558
 51
90.0485928175
  0
ARC
  5
11A
330
1F
100
AcDbEntity
  8
0
  6
Continuous
 62
     7
100
AcDbCircle
 10
136.8680571369
 20
243.0650525307
 30
0.0
 40
29.99991127637309
100
AcDbArc
 50
89.999903284
 51
270.000096716
  0
ARC
  5
11B
330
1F
100
AcDbEntity
  8
0
  6
Continuous
 62
     7
100
AcDbCircle
 10
136.8682014808
 20
243.0650525307
 30
0.0
 40
29.99991127647669
100
AcDbArc
 50
269.9998210385
 51
90.0001789615
  0
ARC
  5
11C
330
1F
100
AcDbEntity
  8
0
  6
Continuous
 62
     7
100
AcDbCircle
 10
269.8019342012
 20
126.2199111875
 30
0.0
 40
29.99991127647672
100
AcDbArc
 50
89.9998210385
 51
270.0001789615
  0
ARC
  5
11D
330
1F
100
AcDbEntity
  8
0
  6
Continuous
 62
     7
100
AcDbCircle
 10
269.8021216086
 20
126.2199111875
 30
0.0
 40
29.99991127647672
100
AcDbArc
 50
269.9998210385
 51
90.0001789615
  0
ARC
  5
11E
330
1F
100
AcDbEntity
  8
0
  6
Continuous
 62
     7
100
AcDbCircle
 10
334.9180917572
 20
103.117288366
 30
0.0
 40
29.99991127647673
100
AcDbArc
 50
89.9998210385
 51
270.0001789615
  0
ARC
  5
11F
330
1F
100
AcDbEntity
  8
0
  6
Continuous
 62
     7
100
AcDbCircle
 10
334.9182791646
 20
103.117288366
 30
0.0
 40
29.99991127647673
100
AcDbArc
 50
269.9998210385
 51
90.0001789615
  0
ARC
  5
120
330
1F
100
AcDbEntity
  8
0
  6
Continuous
 62
     7
100
AcDbCircle
 10
335.787787815
 20
168.5162669184
 30
0.0
 40
29.99991127647675
100
AcDbArc
 50
89.9998210385
 51
270.0001789615
  0
ARC
  5
121
330
1F
100
AcDbEntity
  8
0
  6
Continuous
 62
     7
100
AcDbCircle
 10
335.7879752224
 20
168.5162669184
 30
0.0
 40
29.99991127647675
100
AcDbArc
 50
269.9998210385
 51
90.0001789615
  0
ARC
  5
122
330
1F
100
AcDbEntity
  8
0
  6
Continuous
 62
     7
100
AcDbCircle
 10
339.8610414366
 20
258.9981535163
 30
0.0
 40
6.169196891601641
100
AcDbArc
 50
359.9653543024
 51
90.0346456976
  0
ARC
  5
123
330
1F
100
AcDbEntity
  8
0
  6
Continuous
 62
     7
100
AcDbCircle
 10
339.8537578007
 20
258.9979763543
 30
0.0
 40
6.169373949034357
100
AcDbArc
 50
89.967000624
 51
180.032999376
  0
ARC
  5
124
330
1F
100
AcDbEntity
  8
0
  6
Continuous
 62
     7
100
AcDbCircle
 10
113.0929634219
 20
155.0801761627
 30
0.0
 40
5.996029659282223
100
AcDbArc
 50
359.9622180359
 51
90.0377819641
  0
ARC
  5
125
330
1F
100
AcDbEntity
  8
0
  6
Continuous
 62
     7
100
AcDbCircle
 10
113.0847155665
 20
155.0805162189
 30
0.0
 40
5.995689837047165
100
AcDbArc
 50
89.9589662617
 51
180.0410337383
  0
ARC
  5
126
330
1F
100
AcDbEntity
  8
0
  6
Continuous
 62
     7
100
AcDbCircle
 10
113.0850570105
 20
155.0722697512
 30
0.0
 40
5.996031046156484
100
AcDbArc
 50
179.9622313058
 51
270.0377686942
  0
ARC
  5
127
330
1F
100
AcDbEntity
  8
0
  6
Continuous
 62
     7
100
AcDbCircle
 10
113.0926212186
 20
155.0726105668
 30
0.0
 40
5.996371646711566
100
AcDbArc
 50
269.9654899702
 51
0.0345100298
  0
ARC
  5
128
330
1F
100
AcDbEntity
  8
0
  6
Continuous
 62
     7
100
AcDbCircle
 10
30.9236055604
 20
215.4596617616
 30
0.0
 40
5.996371301050777
100
AcDbArc
 50
179.9654866634
 51
270.0345133366
  0
ARC
  5
129
330
1F
100
AcDbEntity
  8
0
  6
Continuous
 62
     7
100
AcDbCircle
 10
30.9312088806
 20
215.4594546684
 30
0.0
 40
5.996164448301629
100
AcDbArc
 50
269.9618617185
 51
0.0364933872
  0
ARC
  5
12A
330
1F
100
AcDbEntity
  8
0
  6
Continuous
 62
     7
100
AcDbCircle
 10
30.9313813361
 20
215.4672653995
 30
0.0
 40
5.995992105152791
100
AcDbArc
 50
359.9618575866
 51
90.0397873077
  0
ARC
  5
12B
330
1F
100
AcDbEntity
  8
0
  6
Continuous
 62
     7
100
AcDbCircle
 10
30.9234356629
 20
215.4670557433
 30
0.0
 40
5.996201508358967
100
AcDbArc
 50
89.9638622567
 51
180.0361377433
  0
ARC
  5
12C
330
1F
100
AcDbEntity
  8
0
  6
Continuous
 62
     7
100
AcDbCircle
 10
31.678503481
 20
126.5724267777
 30
0.0
 40
5.995931596599315
100
AcDbArc
 50
179.9645717869
 51
270.0387181433
  0
ARC
  5
12D
330
1F
100
AcDbEntity
  8
0
  6
Continuous
 62
     7
100
AcDbCircle
 10
31.6869803938
 20
126.5722255935
 30
0.0
 40
5.995730676331994
100
AcDbArc
 50
269.9577132392
 51
0.0373519364
  0
ARC
  5
12E
330
1F
100
AcDbEntity
  8
0
  6
Continuous
 62
     7
100
AcDbCircle
 10
31.6861813804
 20
126.5802768203
 30
0.0
 40
5.99652984650563
100
AcDbArc
 50
359.9604189082
 51
90.0346466923
  0
ARC
  5
12F
330
1F
100
AcDbEntity
  8
0
  6
Continuous
 62
     7
100
AcDbCircle
 10
31.6793006978
 20
126.58007749
 30
0.0
 40
5.996728963603521
100
AcDbArc
 50
89.9689040188
 51
180.037675275
  0
ARC
  5
130
330
1F
100
AcDbEntity
  8
0
  6
Continuous
 62
     7
100
AcDbCircle
 10
113.0929634219
 20
188.2564675718
 30
0.0
 40
5.996029659282279
100
AcDbArc
 50
359.9622180359
 51
90.0377819641
  0
ARC
  5
131
330
1F
100
AcDbEntity
  8
0
  6
Continuous
 62
     7
100
AcDbCircle
 10
113.0847155665
 20
188.256807628
 30
0.0
 40
5.995689837047221
100
AcDbArc
 50
89.9589662617
 51
180.0410337383
  0
ARC
  5
132
330
1F
100
AcDbEntity
  8
0
  6
Continuous
 62
     7
100
AcDbCircle
 10
113.0850570105
 20
188.2485611604
 30
0.0
 40
5.996031046156427
100
AcDbArc
 50
179.9622313058
 51
270.0377686942
  0
ARC
  5
133
330
1F
100
AcDbEntity
  8
0
  6
Continuous
 62
     7
100
AcDbCircle
 10
113.0926212186
 20
188.248901976
 30
0.0
 40
5.996371646711509
100
AcDbArc
 50
269.9654899702
 51
0.0345100298
  0
ENDSEC
  0
SECTION
  2
OBJECTS
  0
DICTIONARY
  5
C
330
0
100
AcDbDictionary
281
     1
  3
ACAD_GROUP
350
D
  3
ACAD_LAYOUT
350
1A
  3
ACAD_MLEADERSTYLE
350
135
  3
ACAD_MLINESTYLE
350
17
  3
ACAD_PLOTSETTINGS
350
19
  3
ACAD_PLOTSTYLENAME
350
E
  3
ACAD_TABLESTYLE
350
134
  3
ACAD_VISUALSTYLE
350
2A
  3
AcDbVariableDictionary
350
136
  0
DICTIONARY
  5
D
102
{ACAD_REACTORS
330
C
102
}
330
C
100
AcDbDictionary
281
     1
  0
DICTIONARY
  5
1A
102
{ACAD_REACTORS
330
C
102
}
330
C
100
AcDbDictionary
281
     1
  3
Model
350
22
  3
Sheet2
350
1E
  0
DICTIONARY
  5
135
102
{ACAD_REACTORS
330
C
102
}
330
C
100
AcDbDictionary
281
     1
  0
DICTIONARY
  5
17
102
{ACAD_REACTORS
330
C
102
}
330
C
100
AcDbDictionary
281
     1
  3
Standard
350
18
  0
DICTIONARY
  5
19
102
{ACAD_REACTORS
330
C
102
}
330
C
100
AcDbDictionary
281
     1
  0
ACDBDICTIONARYWDFLT
  5
E
102
{ACAD_REACTORS
330
C
102
}
330
C
100
AcDbDictionary
281
     1
  3
Normal
350
F
100
AcDbDictionaryWithDefault
340
F
  0
DICTIONARY
  5
134
102
{ACAD_REACTORS
330
C
102
}
330
C
100
AcDbDictionary
281
     1
  0
DICTIONARY
  5
2A
102
{ACAD_REACTORS
330
C
102
}
330
C
100
AcDbDictionary
281
     1
  3
2dWireframe
350
2F
  3
3D Hidden
350
31
  3
3dWireframe
350
30
  3
Basic
350
32
  3
Brighten
350
36
  3
ColorChange
350
3A
  3
Conceptual
350
34
  3
Dim
350
35
  3
Facepattern
350
39
  3
Flat
350
2B
  3
FlatWithEdges
350
2C
  3
Gouraud
350
2D
  3
GouraudWithEdges
350
2E
  3
Linepattern
350
38
  3
Realistic
350
33
  3
Thicken
350
37
  0
DICTIONARY
  5
136
102
{ACAD_REACTORS
330
C
102
}
330
C
100
AcDbDictionary
281
     1
  3
PSOLHEIGHT
350
138
  3
PSOLWIDTH
350
137
  0
LAYOUT
  5
22
102
{ACAD_REACTORS
330
1A
102
}
330
1A
100
AcDbPlotSettings
  1

  2
none_device
  4

  6

 40
0.0
 41
0.0
 42
0.0
 43
0.0
 44
0.0
 45
0.0
 46
0.0
 47
0.0
 48
0.0
 49
0.0
140
0.0
141
0.0
142
1.0
143
1.0
 70
  1712
 72
     0
 73
     0
 74
     0
  7

 75
     0
147
1.0
148
0.0
149
0.0
100
AcDbLayout
  1
Model
 70
     1
 71
     0
 10
0.0
 20
0.0
 11
431.8
 21
279.4
 12
0.0
 22
0.0
 32
0.0
 14
0.0
 24
0.0
 34
0.0
 15
431.8
 25
279.4
 35
0.0
146
0.0
 13
0.0
 23
0.0
 33
0.0
 16
1.0
 26
0.0
 36
0.0
 17
0.0
 27
1.0
 37
0.0
 76
     0
330
1F
331
29
  0
LAYOUT
  5
1E
102
{ACAD_REACTORS
330
1A
102
}
330
1A
100
AcDbPlotSettings
  1

  2
none_device
  4
ANSI_B_(17.00_x_11.00_Inches)
  6

 40
6.35
 41
19.05
 42
6.35000508
 43
19.0499873
 44
431.8
 45
279.4
 46
0.0
 47
0.0
 48
0.0
 49
0.0
140
0.0
141
0.0
142
1.0
143
25.4
 70
  4832
 72
     0
 73
     0
 74
     1
  7

 75
     0
147
1.0
148
0.0
149
0.0
100
AcDbLayout
  1
Sheet2
 70
     1
 71
     1
 10
0.0
 20
0.0
 11
431.8
 21
279.4
 12
0.0
 22
0.0
 32
0.0
 14
0.0
 24
0.0
 34
0.0
 15
431.8
 25
279.4
 35
0.0
146
0.0
 13
0.0
 23
0.0
 33
0.0
 16
1.0
 26
0.0
 36
0.0
 17
0.0
 27
1.0
 37
0.0
 76
     0
330
1B
  0
MLINESTYLE
  5
18
102
{ACAD_REACTORS
330
17
102
}
330
17
100
AcDbMlineStyle
  2
Standard
 70
     0
  3

 62
   256
 51
90.0
 52
90.0
 71
     2
 49
0.5
 62
   256
  6
BYLAYER
 49
-0.5
 62
   256
  6
BYLAYER
  0
ACDBPLACEHOLDER
  5
F
102
{ACAD_REACTORS
330
E
102
}
330
E
  0
VISUALSTYLE
  5
2F
102
{ACAD_REACTORS
330
2A
102
}
330
2A
100
AcDbVisualStyle
  2
2dWireframe
 70
     4
 71
     0
 72
     2
 73
     0
 90
        0
 40
-0.6
 41
-30.0
 62
     5
 63
     7
 74
     1
 91
        4
 64
     7
 65
   257
 75
     1
175
     1
 42
1.0
 92
        0
 66
   257
 43
1.0
 76
     1
 77
     6
 78
     2
 67
     7
 79
     5
170
     0
171
     0
290
     0
174
     0
 93
        1
 44
0.0
173
     0
291
     0
 45
0.0
1001
ACAD
1000
AcDbSavedByObjectVersion
1070
     0
  0
VISUALSTYLE
  5
31
102
{ACAD_REACTORS
330
2A
102
}
330
2A
100
AcDbVisualStyle
  2
3D Hidden
 70
     6
 71
     1
 72
     2
 73
     2
 90
        0
 40
-0.6
 41
-30.0
 62
     5
 63
     7
 74
     2
 91
        2
 64
     7
 65
   257
 75
     2
175
     1
 42
40.0
 92
        0
 66
   257
 43
1.0
 76
     1
 77
     6
 78
     2
 67
     7
 79
     3
170
     0
171
     0
290
     0
174
     0
 93
        1
 44
0.0
173
     0
291
     0
 45
0.0
1001
ACAD
1000
AcDbSavedByObjectVersion
1070
     0
  0
VISUALSTYLE
  5
30
102
{ACAD_REACTORS
330
2A
102
}
330
2A
100
AcDbVisualStyle
  2
3dWireframe
 70
     5
 71
     0
 72
     2
 73
     0
 90
        0
 40
-0.6
 41
-30.0
 62
     5
 63
     7
 74
     1
 91
        4
 64
     7
 65
   257
 75
     1
175
     1
 42
1.0
 92
        0
 66
   257
 43
1.0
 76
     1
 77
     6
 78
     2
 67
     7
 79
     5
170
     0
171
     0
290
     0
174
     0
 93
        1
 44
0.0
173
     0
291
     0
 45
0.0
1001
ACAD
1000
AcDbSavedByObjectVersion
1070
     0
  0
VISUALSTYLE
  5
32
102
{ACAD_REACTORS
330
2A
102
}
330
2A
100
AcDbVisualStyle
  2
Basic
 70
     7
 71
     1
 72
     0
 73
     1
 90
        0
 40
-0.6
 41
-30.0
 62
     5
 63
     7
 74
     0
 91
        4
 64
     7
 65
   257
 75
     1
175
     1
 42
1.0
 92
        8
 66
     7
 43
1.0
 76
     1
 77
     6
 78
     2
 67
     7
 79
     5
170
     0
171
     0
290
     0
174
     0
 93
        1
 44
0.0
173
     0
291
     1
 45
0.0
1001
ACAD
1000
AcDbSavedByObjectVersion
1070
     0
  0
VISUALSTYLE
  5
36
102
{ACAD_REACTORS
330
2A
102
}
330
2A
100
AcDbVisualStyle
  2
Brighten
 70
    12
 71
     2
 72
     2
 73
     0
 90
        0
 40
-0.6
 41
-30.0
 62
     5
 63
     7
 74
     1
 91
        4
 64
     7
 65
   257
 75
     1
175
     1
 42
1.0
 92
        8
 66
     7
 43
1.0
 76
     1
 77
     6
 78
     2
 67
     7
 79
     5
170
     0
171
     0
290
     0
174
     0
 93
        1
 44
50.0
173
     0
291
     1
 45
0.0
1001
ACAD
1000
AcDbSavedByObjectVersion
1070
     0
  0
VISUALSTYLE
  5
3A
102
{ACAD_REACTORS
330
2A
102
}
330
2A
100
AcDbVisualStyle
  2
ColorChange
 70
    16
 71
     2
 72
     2
 73
     3
 90
        0
 40
-0.6
 41
-30.0
 62
     5
 63
     8
 74
     1
 91
        4
 64
     7
 65
   257
 75
     1
175
     1
 42
1.0
 92
        8
 66
     8
 43
1.0
 76
     1
 77
     6
 78
     2
 67
     7
 79
     5
170
     0
171
     0
290
     0
174
     0
 93
        1
 44
0.0
173
     0
291
     1
 45
0.0
1001
ACAD
1000
AcDbSavedByObjectVersion
1070
     0
  0
VISUALSTYLE
  5
34
102
{ACAD_REACTORS
330
2A
102
}
330
2A
100
AcDbVisualStyle
  2
Conceptual
 70
     9
 71
     3
 72
     2
 73
     0
 90
        0
 40
-0.6
 41
-30.0
 62
     5
 63
     7
 74
     2
 91
        2
 64
     7
 65
   257
 75
     1
175
     1
 42
40.0
 92
        8
 66
     7
 43
1.0
 76
     1
 77
     6
 78
     2
 67
     7
 79
     3
170
     0
171
     0
290
     0
174
     0
 93
        1
 44
0.0
173
     0
291
     0
 45
0.0
1001
ACAD
1000
AcDbSavedByObjectVersion
1070
     0
  0
VISUALSTYLE
  5
35
102
{ACAD_REACTORS
330
2A
102
}
330
2A
100
AcDbVisualStyle
  2
Dim
 70
    11
 71
     2
 72
     2
 73
     0
 90
        0
 40
-0.6
 41
-30.0
 62
     5
 63
     7
 74
     1
 91
        4
 64
     7
 65
   257
 75
     1
175
     1
 42
1.0
 92
        8
 66
     7
 43
1.0
 76
     1
 77
     6
 78
     2
 67
     7
 79
     5
170
     0
171
     0
290
     0
174
     0
 93
        1
 44
-50.0
173
     0
291
     1
 45
0.0
1001
ACAD
1000
AcDbSavedByObjectVersion
1070
     0
  0
VISUALSTYLE
  5
39
102
{ACAD_REACTORS
330
2A
102
}
330
2A
100
AcDbVisualStyle
  2
Facepattern
 70
    15
 71
     2
 72
     2
 73
     0
 90
        0
 40
-0.6
 41
-30.0
 62
     5
 63
     7
 74
     1
 91
        4
 64
     7
 65
   257
 75
     1
175
     1
 42
1.0
 92
        8
 66
     7
 43
1.0
 76
     1
 77
     6
 78
     2
 67
     7
 79
     5
170
     0
171
     0
290
     0
174
     0
 93
        1
 44
0.0
173
     0
291
     1
 45
0.0
1001
ACAD
1000
AcDbSavedByObjectVersion
1070
     0
  0
VISUALSTYLE
  5
2B
102
{ACAD_REACTORS
330
2A
102
}
330
2A
100
AcDbVisualStyle
  2
Flat
 70
     0
 71
     2
 72
     1
 73
     1
 90
        2
 40
-0.6
 41
30.0
 62
     5
 63
     7
 74
     0
 91
        4
 64
     7
 65
   257
 75
     1
175
     1
 42
1.0
 92
        8
 66
     7
 43
1.0
 76
     1
 77
     6
 78
     2
 67
     7
 79
     5
170
     0
171
     0
290
     0
174
     0
 93
       13
 44
0.0
173
     0
291
     1
 45
0.0
1001
ACAD
1000
AcDbSavedByObjectVersion
1070
     0
  0
VISUALSTYLE
  5
2C
102
{ACAD_REACTORS
330
2A
102
}
330
2A
100
AcDbVisualStyle
  2
FlatWithEdges
 70
     1
 71
     2
 72
     1
 73
     1
 90
        2
 40
-0.6
 41
30.0
 62
     5
 63
     7
 74
     1
 91
        4
 64
     7
 65
   257
 75
     1
175
     1
 42
1.0
 92
        0
 66
   257
 43
1.0
 76
     1
 77
     6
 78
     2
 67
     7
 79
     5
170
     0
171
     0
290
     0
174
     0
 93
       13
 44
0.0
173
     0
291
     1
 45
0.0
1001
ACAD
1000
AcDbSavedByObjectVersion
1070
     0
  0
VISUALSTYLE
  5
2D
102
{ACAD_REACTORS
330
2A
102
}
330
2A
100
AcDbVisualStyle
  2
Gouraud
 70
     2
 71
     2
 72
     2
 73
     1
 90
        2
 40
-0.6
 41
30.0
 62
     5
 63
     7
 74
     0
 91
        4
 64
     7
 65
   257
 75
     1
175
     1
 42
1.0
 92
        0
 66
     7
 43
1.0
 76
     1
 77
     6
 78
     2
 67
     7
 79
     5
170
     0
171
     0
290
     0
174
     0
 93
       13
 44
0.0
173
     0
291
     1
 45
0.0
1001
ACAD
1000
AcDbSavedByObjectVersion
1070
     0
  0
VISUALSTYLE
  5
2E
102
{ACAD_REACTORS
330
2A
102
}
330
2A
100
AcDbVisualStyle
  2
GouraudWithEdges
 70
     3
 71
     2
 72
     2
 73
     1
 90
        2
 40
-0.6
 41
30.0
 62
     5
 63
     7
 74
     1
 91
        4
 64
     7
 65
   257
 75
     1
175
     1
 42
1.0
 92
        0
 66
   257
 43
1.0
 76
     1
 77
     6
 78
     2
 67
     7
 79
     5
170
     0
171
     0
290
     0
174
     0
 93
       13
 44
0.0
173
     0
291
     1
 45
0.0
1001
ACAD
1000
AcDbSavedByObjectVersion
1070
     0
  0
VISUALSTYLE
  5
38
102
{ACAD_REACTORS
330
2A
102
}
330
2A
100
AcDbVisualStyle
  2
Linepattern
 70
    14
 71
     2
 72
     2
 73
     0
 90
        0
 40
-0.6
 41
-30.0
 62
     5
 63
     7
 74
     1
 91
        4
 64
     7
 65
   257
 75
     7
175
     7
 42
1.0
 92
        8
 66
     7
 43
1.0
 76
     1
 77
     6
 78
     2
 67
     7
 79
     5
170
     0
171
     0
290
     0
174
     0
 93
        1
 44
0.0
173
     0
291
     1
 45
0.0
1001
ACAD
1000
AcDbSavedByObjectVersion
1070
     0
  0
VISUALSTYLE
  5
33
102
{ACAD_REACTORS
330
2A
102
}
330
2A
100
AcDbVisualStyle
  2
Realistic
 70
     8
 71
     2
 72
     2
 73
     0
 90
        0
 40
-0.6
 41
-30.0
 62
     5
 63
     7
 74
     1
 91
        0
 64
     7
 65
   257
 75
     1
175
     1
 42
1.0
 92
        8
 66
     8
 43
1.0
 76
     1
 77
     6
 78
     2
 67
     7
 79
     5
170
     0
171
     0
290
     0
174
     0
 93
       13
 44
0.0
173
     0
291
     0
 45
0.0
1001
ACAD
1000
AcDbSavedByObjectVersion
1070
     0
  0
VISUALSTYLE
  5
37
102
{ACAD_REACTORS
330
2A
102
}
330
2A
100
AcDbVisualStyle
  2
Thicken
 70
    13
 71
     2
 72
     2
 73
     0
 90
        0
 40
-0.6
 41
-30.0
 62
     5
 63
     7
 74
     1
 91
        4
 64
     7
 65
   257
 75
     1
175
     1
 42
1.0
 92
       12
 66
     7
 43
1.0
 76
     1
 77
     6
 78
     2
 67
     7
 79
     5
170
     0
171
     0
290
     0
174
     0
 93
        1
 44
0.0
173
     0
291
     1
 45
0.0
1001
ACAD
1000
AcDbSavedByObjectVersion
1070
     0
  0
DICTIONARYVAR
  5
138
102
{ACAD_REACTORS
330
136
102
}
330
136
100
DictionaryVariables
280
     0
  1
80.000000
  0
DICTIONARYVAR
  5
137
102
{ACAD_REACTORS
330
136
102
}
330
136
100
DictionaryVariables
280
     0
  1
5.000000
  0
ENDSEC
  0
EOF
