  0
SECTION
  2
HEADER
  9
$ACADVER
  1
AC1015
  9
$ACADMAINTVER
 70
     6
  9
$DWGCODEPAGE
  3
ANSI_1252
  9
$INSBASE
 10
0.0
 20
0.0
 30
0.0
  9
$EXTMIN
 10
0.0
 20
0.0
 30
0.0
  9
$EXTMAX
 10
431.8
 20
279.4
 30
0.0
  9
$LIMMIN
 10
0.0
 20
0.0
  9
$LIMMAX
 10
431.8
 20
279.4
  9
$ORTHOMODE
 70
     0
  9
$REGENMODE
 70
     1
  9
$FILLMODE
 70
     1
  9
$QTEXTMODE
 70
     0
  9
$MIRRTEXT
 70
     1
  9
$LTSCALE
 40
1.0
  9
$ATTMODE
 70
     1
  9
$TEXTSIZE
 40
3.5
  9
$TRACEWID
 40
1.0
  9
$TEXTSTYLE
  7
Standard
  9
$CLAYER
  8
0
  9
$CELTYPE
  6
ByLayer
  9
$CECOLOR
 62
   256
  9
$CELTSCALE
 40
1.0
  9
$DISPSILH
 70
     0
  9
$DIMSCALE
 40
1.0
  9
$DIMASZ
 40
6.0
  9
$DIMEXO
 40
1.0
  9
$DIMDLI
 40
3.75
  9
$DIMRND
 40
0.0
  9
$DIMDLE
 40
0.0
  9
$DIMEXE
 40
1.0
  9
$DIMTP
 40
0.0
  9
$DIMTM
 40
0.0
  9
$DIMTXT
 40
3.5
  9
$DIMCEN
 40
2.5
  9
$DIMTSZ
 40
0.0
  9
$DIMTOL
 70
     0
  9
$DIMLIM
 70
     0
  9
$DIMTIH
 70
     1
  9
$DIMTOH
 70
     1
  9
$DIMSE1
 70
     0
  9
$DIMSE2
 70
     0
  9
$DIMTAD
 70
     1
  9
$DIMZIN
 70
     0
  9
$DIMBLK
  1

  9
$DIMASO
 70
     1
  9
$DIMSHO
 70
     1
  9
$DIMPOST
  1

  9
$DIMAPOST
  1

  9
$DIMALT
 70
     0
  9
$DIMALTD
 70
     3
  9
$DIMALTF
 40
0.0393700787
  9
$DIMLFAC
 40
1.0
  9
$DIMTOFL
 70
     1
  9
$DIMTVP
 40
0.0
  9
$DIMTIX
 70
     0
  9
$DIMSOXD
 70
     0
  9
$DIMSAH
 70
     0
  9
$DIMBLK1
  1

  9
$DIMBLK2
  1

  9
$DIMSTYLE
  2
ISO-25
  9
$DIMCLRD
 70
     0
  9
$DIMCLRE
 70
     0
  9
$DIMCLRT
 70
     0
  9
$DIMTFAC
 40
1.0
  9
$DIMGAP
 40
1.524
  9
$DIMJUST
 70
     0
  9
$DIMSD1
 70
     0
  9
$DIMSD2
 70
     0
  9
$DIMTOLJ
 70
     0
  9
$DIMTZIN
 70
     0
  9
$DIMALTZ
 70
     0
  9
$DIMALTTZ
 70
     0
  9
$DIMUPT
 70
     0
  9
$DIMDEC
 70
     2
  9
$DIMTDEC
 70
     2
  9
$DIMALTU
 70
     2
  9
$DIMALTTD
 70
     3
  9
$DIMTXSTY
  7
Standard
  9
$DIMAUNIT
 70
     0
  9
$DIMADEC
 70
     0
  9
$DIMALTRND
 40
0.0
  9
$DIMAZIN
 70
     0
  9
$DIMDSEP
 70
    44
  9
$DIMATFIT
 70
     3
  9
$DIMFRAC
 70
     0
  9
$DIMLDRBLK
  1

  9
$DIMLUNIT
 70
     2
  9
$DIMLWD
 70
    -2
  9
$DIMLWE
 70
    -2
  9
$DIMTMOVE
 70
     0
  9
$LUNITS
 70
     2
  9
$LUPREC
 70
     2
  9
$SKETCHINC
 40
1.0
  9
$FILLETRAD
 40
10.0
  9
$AUNITS
 70
     0
  9
$AUPREC
 70
     0
  9
$MENU
  1
.
  9
$ELEVATION
 40
0.0
  9
$PELEVATION
 40
0.0
  9
$THICKNESS
 40
0.0
  9
$LIMCHECK
 70
     0
  9
$CHAMFERA
 40
10.0
  9
$CHAMFERB
 40
10.0
  9
$CHAMFERC
 40
20.0
  9
$CHAMFERD
 40
0.0
  9
$SKPOLY
 70
     0
  9
$TDCREATE
 40
2456470.403885602
  9
$TDUCREATE
 40
2456470.362218935
  9
$TDUPDATE
 40
2456470.403885613
  9
$TDUUPDATE
 40
2456470.362218947
  9
$TDINDWG
 40
0.0000000116
  9
$TDUSRTIMER
 40
0.0000000116
  9
$USRTIMER
 70
     1
  9
$ANGBASE
 50
0.0
  9
$ANGDIR
 70
     0
  9
$PDMODE
 70
     0
  9
$PDSIZE
 40
-1.0
  9
$PLINEWID
 40
0.0
  9
$SPLFRAME
 70
     0
  9
$SPLINETYPE
 70
     6
  9
$SPLINESEGS
 70
     8
  9
$HANDSEED
  5
21A
  9
$SURFTAB1
 70
     6
  9
$SURFTAB2
 70
     6
  9
$SURFTYPE
 70
     6
  9
$SURFU
 70
     6
  9
$SURFV
 70
     6
  9
$UCSBASE
  2

  9
$UCSNAME
  2

  9
$UCSORG
 10
0.0
 20
0.0
 30
0.0
  9
$UCSXDIR
 10
1.0
 20
0.0
 30
0.0
  9
$UCSYDIR
 10
0.0
 20
1.0
 30
0.0
  9
$UCSORTHOREF
  2

  9
$UCSORTHOVIEW
 70
     0
  9
$UCSORGTOP
 10
0.0
 20
0.0
 30
0.0
  9
$UCSORGBOTTOM
 10
0.0
 20
0.0
 30
0.0
  9
$UCSORGLEFT
 10
0.0
 20
0.0
 30
0.0
  9
$UCSORGRIGHT
 10
0.0
 20
0.0
 30
0.0
  9
$UCSORGFRONT
 10
0.0
 20
0.0
 30
0.0
  9
$UCSORGBACK
 10
0.0
 20
0.0
 30
0.0
  9
$PUCSBASE
  2

  9
$PUCSNAME
  2

  9
$PUCSORG
 10
0.0
 20
0.0
 30
0.0
  9
$PUCSXDIR
 10
1.0
 20
0.0
 30
0.0
  9
$PUCSYDIR
 10
0.0
 20
1.0
 30
0.0
  9
$PUCSORTHOREF
  2

  9
$PUCSORTHOVIEW
 70
     0
  9
$PUCSORGTOP
 10
0.0
 20
0.0
 30
0.0
  9
$PUCSORGBOTTOM
 10
0.0
 20
0.0
 30
0.0
  9
$PUCSORGLEFT
 10
0.0
 20
0.0
 30
0.0
  9
$PUCSORGRIGHT
 10
0.0
 20
0.0
 30
0.0
  9
$PUCSORGFRONT
 10
0.0
 20
0.0
 30
0.0
  9
$PUCSORGBACK
 10
0.0
 20
0.0
 30
0.0
  9
$USERI1
 70
     0
  9
$USERI2
 70
     0
  9
$USERI3
 70
     0
  9
$USERI4
 70
     0
  9
$USERI5
 70
     0
  9
$USERR1
 40
0.0
  9
$USERR2
 40
0.0
  9
$USERR3
 40
0.0
  9
$USERR4
 40
0.0
  9
$USERR5
 40
0.0
  9
$WORLDVIEW
 70
     1
  9
$SHADEDGE
 70
     3
  9
$SHADEDIF
 70
    70
  9
$TILEMODE
 70
     1
  9
$MAXACTVP
 70
    64
  9
$PINSBASE
 10
0.0
 20
0.0
 30
0.0
  9
$PLIMCHECK
 70
     0
  9
$PEXTMIN
 10
1.0000000000E+20
 20
1.0000000000E+20
 30
1.0000000000E+20
  9
$PEXTMAX
 10
-1.0000000000E+20
 20
-1.0000000000E+20
 30
-1.0000000000E+20
  9
$PLIMMIN
 10
0.0
 20
0.0
  9
$PLIMMAX
 10
420.0
 20
297.0
  9
$UNITMODE
 70
     0
  9
$VISRETAIN
 70
     1
  9
$PLINEGEN
 70
     0
  9
$PSLTSCALE
 70
     1
  9
$TREEDEPTH
 70
  3020
  9
$CMLSTYLE
  2
Standard
  9
$CMLJUST
 70
     0
  9
$CMLSCALE
 40
20.0
  9
$PROXYGRAPHICS
 70
     1
  9
$MEASUREMENT
 70
     1
  9
$CELWEIGHT
370
    -1
  9
$ENDCAPS
280
     0
  9
$JOINSTYLE
280
     0
  9
$LWDISPLAY
290
     1
  9
$INSUNITS
 70
     4
  9
$HYPERLINKBASE
  1

  9
$STYLESHEET
  1

  9
$XEDIT
290
     1
  9
$CEPSNTYPE
380
     0
  9
$PSTYLEMODE
290
     1
  9
$FINGERPRINTGUID
  2
{27A54EBF-2D32-456E-854B-0253D3FC52FA}
  9
$VERSIONGUID
  2
{FAEB1C32-E019-11D5-929B-00C0DF256EC4}
  9
$EXTNAMES
290
     1
  9
$PSVPSCALE
 40
0.0
  9
$OLESTARTUP
290
     0
  0
ENDSEC
  0
SECTION
  2
CLASSES
  0
CLASS
  1
ACDBDICTIONARYWDFLT
  2
AcDbDictionaryWithDefault
  3
ObjectDBX Classes
 90
        0
280
     0
281
     0
  0
CLASS
  1
VISUALSTYLE
  2
AcDbVisualStyle
  3
ObjectDBX Classes
 90
     4095
280
     0
281
     0
  0
CLASS
  1
DICTIONARYVAR
  2
AcDbDictionaryVar
  3
ObjectDBX Classes
 90
        0
280
     0
281
     0
  0
CLASS
  1
ACDBPLACEHOLDER
  2
AcDbPlaceHolder
  3
ObjectDBX Classes
 90
        0
280
     0
281
     0
  0
CLASS
  1
LAYOUT
  2
AcDbLayout
  3
ObjectDBX Classes
 90
        0
280
     0
281
     0
  0
ENDSEC
  0
SECTION
  2
TABLES
  0
TABLE
  2
VPORT
  5
8
330
0
100
AcDbSymbolTable
 70
     1
  0
VPORT
  5
29
330
8
100
AcDbSymbolTableRecord
100
AcDbViewportTableRecord
  2
*Active
 70
     0
 10
0.0
 20
0.0
 11
1.0
 21
1.0
 12
215.9
 22
139.7
 13
0.0
 23
0.0
 14
10.0
 24
10.0
 15
10.0
 25
10.0
 16
0.0
 26
0.0
 36
1.0
 17
0.0
 27
0.0
 37
0.0
 40
279.4
 41
1.5454545455
 42
50.0
 43
0.0
 44
0.0
 50
0.0
 51
0.0
 71
     0
 72
  2000
 73
     1
 74
     3
 75
     0
 76
     0
 77
     0
 78
     0
281
     0
 65
     1
110
0.0
120
0.0
130
0.0
111
1.0
121
0.0
131
0.0
112
0.0
122
1.0
132
0.0
 79
     0
146
0.0
  0
ENDTAB
  0
TABLE
  2
LTYPE
  5
5
330
0
100
AcDbSymbolTable
 70
     6
  0
LTYPE
  5
14
330
5
100
AcDbSymbolTableRecord
100
AcDbLinetypeTableRecord
  2
ByBlock
 70
     0
  3

 72
    65
 73
     0
 40
0.0
  0
LTYPE
  5
15
330
5
100
AcDbSymbolTableRecord
100
AcDbLinetypeTableRecord
  2
ByLayer
 70
     0
  3

 72
    65
 73
     0
 40
0.0
  0
LTYPE
  5
16
330
5
100
AcDbSymbolTableRecord
100
AcDbLinetypeTableRecord
  2
Continuous
 70
     0
  3
Solid line
 72
    65
 73
     0
 40
0.0
  0
LTYPE
  5
3B
330
5
100
AcDbSymbolTableRecord
100
AcDbLinetypeTableRecord
  2
HIDDEN
 70
     0
  3
Hidden __ __ __ __ __ __ __ __ __ __ __ __ __ __
 72
    65
 73
     2
 40
1.905
 49
1.27
 74
     0
 49
-0.635
 74
     0
  0
LTYPE
  5
3C
330
5
100
AcDbSymbolTableRecord
100
AcDbLinetypeTableRecord
  2
PHANTOM
 70
     0
  3
Phantom ______  __  __  ______  __  __  ______
 72
    65
 73
     6
 40
12.7
 49
6.35
 74
     0
 49
-1.27
 74
     0
 49
1.27
 74
     0
 49
-1.27
 74
     0
 49
1.27
 74
     0
 49
-1.27
 74
     0
  0
LTYPE
  5
3D
330
5
100
AcDbSymbolTableRecord
100
AcDbLinetypeTableRecord
  2
CENTER
 70
     0
  3
Center ____ _ ____ _ ____ _ ____ _ ____ _ ____
 72
    65
 73
     4
 40
10.16
 49
6.35
 74
     0
 49
-1.27
 74
     0
 49
1.27
 74
     0
 49
-1.27
 74
     0
  0
LTYPE
  5
3E
330
5
100
AcDbSymbolTableRecord
100
AcDbLinetypeTableRecord
  2
CENTERX2
 70
     0
  3
Center (2x) ________  __  ________  __  _____
 72
    65
 73
     4
 40
20.32
 49
12.7
 74
     0
 49
-2.54
 74
     0
 49
2.54
 74
     0
 49
-2.54
 74
     0
  0
LTYPE
  5
3F
330
5
100
AcDbSymbolTableRecord
100
AcDbLinetypeTableRecord
  2
DOT2
 70
     0
  3
Dot (.5x) ........................................
 72
    65
 73
     2
 40
0.635
 49
0.0
 74
     0
 49
-0.635
 74
     0
  0
ENDTAB
  0
TABLE
  2
LAYER
  5
2
330
0
100
AcDbSymbolTable
 70
     1
  0
LAYER
  5
10
330
2
100
AcDbSymbolTableRecord
100
AcDbLayerTableRecord
  2
0
 70
     0
 62
     7
  6
Continuous
370
    -3
390
F
  0
ENDTAB
  0
TABLE
  2
STYLE
  5
3
330
0
100
AcDbSymbolTable
 70
     1
  0
STYLE
  5
11
330
3
100
AcDbSymbolTableRecord
100
AcDbTextStyleTableRecord
  2
Standard
 70
     0
 40
0.0
 41
1.0
 50
0.0
 71
     0
 42
2.5
  3
txt
  4

  0
ENDTAB
  0
TABLE
  2
VIEW
  5
6
330
0
100
AcDbSymbolTable
 70
     0
  0
ENDTAB
  0
TABLE
  2
UCS
  5
7
330
0
100
AcDbSymbolTable
 70
     0
  0
ENDTAB
  0
TABLE
  2
APPID
  5
9
330
0
100
AcDbSymbolTable
 70
     1
  0
APPID
  5
12
330
9
100
AcDbSymbolTableRecord
100
AcDbRegAppTableRecord
  2
ACAD
 70
     0
  0
ENDTAB
  0
TABLE
  2
DIMSTYLE
  5
A
330
0
100
AcDbSymbolTable
 70
     1
100
AcDbDimStyleTable
  0
DIMSTYLE
105
27
330
A
100
AcDbSymbolTableRecord
100
AcDbDimStyleTableRecord
  2
ISO-25
 70
     0
 41
2.5
 42
0.625
 43
3.75
 44
1.25
 73
     0
 74
     0
 77
     1
 78
     8
140
2.5
141
2.5
143
0.0393700787
147
0.625
171
     3
172
     1
271
     2
272
     2
274
     3
278
    44
283
     0
284
     8
340
11
  0
ENDTAB
  0
TABLE
  2
BLOCK_RECORD
  5
1
330
0
100
AcDbSymbolTable
 70
     1
  0
BLOCK_RECORD
  5
1F
330
1
100
AcDbSymbolTableRecord
100
AcDbBlockTableRecord
  2
*Model_Space
340
22
  0
BLOCK_RECORD
  5
1B
330
1
100
AcDbSymbolTableRecord
100
AcDbBlockTableRecord
  2
*Paper_Space
340
1E
  0
BLOCK_RECORD
  5
23
330
1
100
AcDbSymbolTableRecord
100
AcDbBlockTableRecord
  2
*Paper_Space0
340
26
  0
ENDTAB
  0
ENDSEC
  0
SECTION
  2
BLOCKS
  0
BLOCK
  5
20
330
1F
100
AcDbEntity
  8
0
100
AcDbBlockBegin
  2
*Model_Space
 70
     0
 10
0.0
 20
0.0
 30
0.0
  3
*Model_Space
  1

  0
ENDBLK
  5
21
330
1F
100
AcDbEntity
  8
0
100
AcDbBlockEnd
  0
BLOCK
  5
1C
330
1B
100
AcDbEntity
 67
     1
  8
0
100
AcDbBlockBegin
  2
*Paper_Space
 70
     0
 10
0.0
 20
0.0
 30
0.0
  3
*Paper_Space
  1

  0
ENDBLK
  5
1D
330
1B
100
AcDbEntity
 67
     1
  8
0
100
AcDbBlockEnd
  0
BLOCK
  5
24
330
23
100
AcDbEntity
  8
0
100
AcDbBlockBegin
  2
*Paper_Space0
 70
     0
 10
0.0
 20
0.0
 30
0.0
  3
*Paper_Space0
  1

  0
ENDBLK
  5
25
330
23
100
AcDbEntity
  8
0
100
AcDbBlockEnd
  0
ENDSEC
  0
SECTION
  2
ENTITIES
  0
LINE
  5
40
330
1F
100
AcDbEntity
  8
0
  6
Continuous
 62
     7
100
AcDbLine
 10
30.6009936865
 20
173.3219674407
 30
0.0
 11
105.6009441322
 21
173.3219674407
 31
0.0
  0
LINE
  5
41
330
1F
100
AcDbEntity
  8
0
  6
Continuous
 62
     7
100
AcDbLine
 10
105.6009441322
 20
173.3219674407
 30
0.0
 11
105.6009441322
 21
208.3220936029
 31
0.0
  0
LINE
  5
42
330
1F
100
AcDbEntity
  8
0
  6
Continuous
 62
     7
100
AcDbLine
 10
105.6009441322
 20
208.3220936029
 30
0.0
 11
30.6009936865
 21
208.3220936029
 31
0.0
  0
LINE
  5
43
330
1F
100
AcDbEntity
  8
0
  6
Continuous
 62
     7
100
AcDbLine
 10
30.6009936865
 20
208.3220936029
 30
0.0
 11
30.6009936865
 21
173.3219674407
 31
0.0
  0
LINE
  5
44
330
1F
100
AcDbEntity
  8
0
  6
Continuous
 62
     7
100
AcDbLine
 10
30.9537716969
 20
91.7372293953
 30
0.0
 11
105.9537221426
 21
91.7372293953
 31
0.0
  0
LINE
  5
45
330
1F
100
AcDbEntity
  8
0
  6
Continuous
 62
     7
100
AcDbLine
 10
105.9537221426
 20
91.7372293953
 30
0.0
 11
105.9537221426
 21
126.7373555575
 31
0.0
  0
LINE
  5
46
330
1F
100
AcDbEntity
  8
0
  6
Continuous
 62
     7
100
AcDbLine
 10
105.9537221426
 20
126.7373555575
 30
0.0
 11
30.9537716969
 21
126.7373555575
 31
0.0
  0
LINE
  5
47
330
1F
100
AcDbEntity
  8
0
  6
Continuous
 62
     7
100
AcDbLine
 10
30.9537716969
 20
126.7373555575
 30
0.0
 11
30.9537716969
 21
91.7372293953
 31
0.0
  0
LINE
  5
48
330
1F
100
AcDbEntity
  8
0
  6
Continuous
 62
     7
100
AcDbLine
 10
47.6335570019
 20
148.3060790908
 30
0.0
 11
37.6331272301
 21
148.3060790908
 31
0.0
  0
LINE
  5
49
330
1F
100
AcDbEntity
  8
0
  6
Continuous
 62
     7
100
AcDbLine
 10
37.6331272301
 20
148.3060790908
 30
0.0
 11
37.6331272301
 21
151.4060790908
 31
0.0
  0
LINE
  5
4A
330
1F
100
AcDbEntity
  8
0
  6
Continuous
 62
     7
100
AcDbLine
 10
37.6331272301
 20
151.4060790908
 30
0.0
 11
47.6335570019
 21
151.4060790908
 31
0.0
  0
LINE
  5
4B
330
1F
100
AcDbEntity
  8
0
  6
Continuous
 62
     7
100
AcDbLine
 10
47.6335570019
 20
151.4060790908
 30
0.0
 11
47.6335570019
 21
148.3060790908
 31
0.0
  0
LINE
  5
4C
330
1F
100
AcDbEntity
  8
0
  6
Continuous
 62
     7
100
AcDbLine
 10
138.1505722592
 20
113.3197333196
 30
0.0
 11
138.1505722592
 21
101.2053915635
 31
0.0
  0
LINE
  5
4D
330
1F
100
AcDbEntity
  8
0
  6
Continuous
 62
     7
100
AcDbLine
 10
138.1505722592
 20
101.2053915635
 30
0.0
 11
134.5228843201
 21
101.2053915635
 31
0.0
  0
LINE
  5
4E
330
1F
100
AcDbEntity
  8
0
  6
Continuous
 62
     7
100
AcDbLine
 10
134.5228843201
 20
101.2053915635
 30
0.0
 11
134.5228843201
 21
91.2049617917
 31
0.0
  0
LINE
  5
4F
330
1F
100
AcDbEntity
  8
0
  6
Continuous
 62
     7
100
AcDbLine
 10
134.5228843201
 20
91.2049617917
 30
0.0
 11
138.1505722592
 21
91.2049617917
 31
0.0
  0
LINE
  5
50
330
1F
100
AcDbEntity
  8
0
  6
Continuous
 62
     7
100
AcDbLine
 10
138.1505722592
 20
91.2049617917
 30
0.0
 11
138.1505722592
 21
79.1002663093
 31
0.0
  0
LINE
  5
51
330
1F
100
AcDbEntity
  8
0
  6
Continuous
 62
     7
100
AcDbLine
 10
138.1505722592
 20
79.1002663093
 30
0.0
 11
162.2924393079
 21
79.1002663093
 31
0.0
  0
LINE
  5
52
330
1F
100
AcDbEntity
  8
0
  6
Continuous
 62
     7
100
AcDbLine
 10
162.2924393079
 20
79.1002663093
 30
0.0
 11
162.2924393079
 21
91.2049617917
 31
0.0
  0
LINE
  5
53
330
1F
100
AcDbEntity
  8
0
  6
Continuous
 62
     7
100
AcDbLine
 10
162.2924393079
 20
91.2049617917
 30
0.0
 11
165.920127247
 21
91.2049617917
 31
0.0
  0
LINE
  5
54
330
1F
100
AcDbEntity
  8
0
  6
Continuous
 62
     7
100
AcDbLine
 10
165.920127247
 20
91.2049617917
 30
0.0
 11
165.920127247
 21
101.2053915635
 31
0.0
  0
LINE
  5
55
330
1F
100
AcDbEntity
  8
0
  6
Continuous
 62
     7
100
AcDbLine
 10
165.920127247
 20
101.2053915635
 30
0.0
 11
162.2924393079
 21
101.2053915635
 31
0.0
  0
LINE
  5
56
330
1F
100
AcDbEntity
  8
0
  6
Continuous
 62
     7
100
AcDbLine
 10
162.2924393079
 20
101.2053915635
 30
0.0
 11
162.2924393079
 21
113.3197333196
 31
0.0
  0
LINE
  5
57
330
1F
100
AcDbEntity
  8
0
  6
Continuous
 62
     7
100
AcDbLine
 10
162.2924393079
 20
113.3197333196
 30
0.0
 11
138.1505722592
 21
113.3197333196
 31
0.0
  0
LINE
  5
58
330
1F
100
AcDbEntity
  8
0
  6
Continuous
 62
     7
100
AcDbLine
 10
64.6406265938
 20
253.7033328392
 30
0.0
 11
61.0711608068
 21
253.7033328392
 31
0.0
  0
LINE
  5
59
330
1F
100
AcDbEntity
  8
0
  6
Continuous
 62
     7
100
AcDbLine
 10
61.0711608068
 20
253.7033328392
 30
0.0
 11
61.0711608068
 21
243.7029030674
 31
0.0
  0
LINE
  5
5A
330
1F
100
AcDbEntity
  8
0
  6
Continuous
 62
     7
100
AcDbLine
 10
61.0711608068
 20
243.7029030674
 30
0.0
 11
64.6406265938
 21
243.7029030674
 31
0.0
  0
LINE
  5
5B
330
1F
100
AcDbEntity
  8
0
  6
Continuous
 62
     7
100
AcDbLine
 10
64.6406265938
 20
243.7029030674
 30
0.0
 11
64.6406265938
 21
231.5933844482
 31
0.0
  0
LINE
  5
5C
330
1F
100
AcDbEntity
  8
0
  6
Continuous
 62
     7
100
AcDbLine
 10
64.6406265938
 20
231.5933844482
 30
0.0
 11
93.0905883888
 21
231.5933844482
 31
0.0
  0
LINE
  5
5D
330
1F
100
AcDbEntity
  8
0
  6
Continuous
 62
     7
100
AcDbLine
 10
93.0905883888
 20
231.5933844482
 30
0.0
 11
93.0905883888
 21
243.7029030674
 31
0.0
  0
LINE
  5
5E
330
1F
100
AcDbEntity
  8
0
  6
Continuous
 62
     7
100
AcDbLine
 10
93.0905883888
 20
243.7029030674
 30
0.0
 11
96.5770273199
 21
243.7029030674
 31
0.0
  0
LINE
  5
5F
330
1F
100
AcDbEntity
  8
0
  6
Continuous
 62
     7
100
AcDbLine
 10
96.5770273199
 20
243.7029030674
 30
0.0
 11
96.5770273199
 21
253.7033328392
 31
0.0
  0
LINE
  5
60
330
1F
100
AcDbEntity
  8
0
  6
Continuous
 62
     7
100
AcDbLine
 10
96.5770273199
 20
253.7033328392
 30
0.0
 11
93.0905883888
 21
253.7033328392
 31
0.0
  0
LINE
  5
61
330
1F
100
AcDbEntity
  8
0
  6
Continuous
 62
     7
100
AcDbLine
 10
93.0905883888
 20
253.7033328392
 30
0.0
 11
93.0905883888
 21
265.8128514585
 31
0.0
  0
LINE
  5
62
330
1F
100
AcDbEntity
  8
0
  6
Continuous
 62
     7
100
AcDbLine
 10
93.0905883888
 20
265.8128514585
 30
0.0
 11
64.6406265938
 21
265.8128514585
 31
0.0
  0
LINE
  5
63
330
1F
100
AcDbEntity
  8
0
  6
Continuous
 62
     7
100
AcDbLine
 10
64.6406265938
 20
265.8128514585
 30
0.0
 11
64.6406265938
 21
253.7033328392
 31
0.0
  0
LINE
  5
64
330
1F
100
AcDbEntity
  8
0
  6
Continuous
 62
     7
100
AcDbLine
 10
32.5261143137
 20
276.9095113369
 30
0.0
 11
32.5261143137
 21
264.7951695808
 31
0.0
  0
LINE
  5
65
330
1F
100
AcDbEntity
  8
0
  6
Continuous
 62
     7
100
AcDbLine
 10
32.5261143137
 20
264.7951695808
 30
0.0
 11
28.8984263745
 21
264.7951695808
 31
0.0
  0
LINE
  5
66
330
1F
100
AcDbEntity
  8
0
  6
Continuous
 62
     7
100
AcDbLine
 10
28.8984263745
 20
264.7951695808
 30
0.0
 11
28.8984263745
 21
254.794739809
 31
0.0
  0
LINE
  5
67
330
1F
100
AcDbEntity
  8
0
  6
Continuous
 62
     7
100
AcDbLine
 10
28.8984263745
 20
254.794739809
 30
0.0
 11
32.5261143137
 21
254.794739809
 31
0.0
  0
LINE
  5
68
330
1F
100
AcDbEntity
  8
0
  6
Continuous
 62
     7
100
AcDbLine
 10
32.5261143137
 20
254.794739809
 30
0.0
 11
32.5261143137
 21
242.6900443266
 31
0.0
  0
LINE
  5
69
330
1F
100
AcDbEntity
  8
0
  6
Continuous
 62
     7
100
AcDbLine
 10
32.5261143137
 20
242.6900443266
 30
0.0
 11
56.6679813623
 21
242.6900443266
 31
0.0
  0
LINE
  5
6A
330
1F
100
AcDbEntity
  8
0
  6
Continuous
 62
     7
100
AcDbLine
 10
56.6679813623
 20
242.6900443266
 30
0.0
 11
56.6679813623
 21
254.794739809
 31
0.0
  0
LINE
  5
6B
330
1F
100
AcDbEntity
  8
0
  6
Continuous
 62
     7
100
AcDbLine
 10
56.6679813623
 20
254.794739809
 30
0.0
 11
60.2956693015
 21
254.794739809
 31
0.0
  0
LINE
  5
6C
330
1F
100
AcDbEntity
  8
0
  6
Continuous
 62
     7
100
AcDbLine
 10
60.2956693015
 20
254.794739809
 30
0.0
 11
60.2956693015
 21
264.7951695808
 31
0.0
  0
LINE
  5
6D
330
1F
100
AcDbEntity
  8
0
  6
Continuous
 62
     7
100
AcDbLine
 10
60.2956693015
 20
264.7951695808
 30
0.0
 11
56.6679813623
 21
264.7951695808
 31
0.0
  0
LINE
  5
6E
330
1F
100
AcDbEntity
  8
0
  6
Continuous
 62
     7
100
AcDbLine
 10
56.6679813623
 20
264.7951695808
 30
0.0
 11
56.6679813623
 21
276.9095113369
 31
0.0
  0
LINE
  5
6F
330
1F
100
AcDbEntity
  8
0
  6
Continuous
 62
     7
100
AcDbLine
 10
56.6679813623
 20
276.9095113369
 30
0.0
 11
32.5261143137
 21
276.9095113369
 31
0.0
  0
LINE
  5
70
330
1F
100
AcDbEntity
  8
0
  6
Continuous
 62
     7
100
AcDbLine
 10
211.1139531653
 20
113.3197333196
 30
0.0
 11
211.1139531653
 21
101.2053915635
 31
0.0
  0
LINE
  5
71
330
1F
100
AcDbEntity
  8
0
  6
Continuous
 62
     7
100
AcDbLine
 10
211.1139531653
 20
101.2053915635
 30
0.0
 11
207.4862652262
 21
101.2053915635
 31
0.0
  0
LINE
  5
72
330
1F
100
AcDbEntity
  8
0
  6
Continuous
 62
     7
100
AcDbLine
 10
207.4862652262
 20
101.2053915635
 30
0.0
 11
207.4862652262
 21
91.2049617917
 31
0.0
  0
LINE
  5
73
330
1F
100
AcDbEntity
  8
0
  6
Continuous
 62
     7
100
AcDbLine
 10
207.4862652262
 20
91.2049617917
 30
0.0
 11
211.1139531653
 21
91.2049617917
 31
0.0
  0
LINE
  5
74
330
1F
100
AcDbEntity
  8
0
  6
Continuous
 62
     7
100
AcDbLine
 10
211.1139531653
 20
91.2049617917
 30
0.0
 11
211.1139531653
 21
79.1002663093
 31
0.0
  0
LINE
  5
75
330
1F
100
AcDbEntity
  8
0
  6
Continuous
 62
     7
100
AcDbLine
 10
211.1139531653
 20
79.1002663093
 30
0.0
 11
235.255820214
 21
79.1002663093
 31
0.0
  0
LINE
  5
76
330
1F
100
AcDbEntity
  8
0
  6
Continuous
 62
     7
100
AcDbLine
 10
235.255820214
 20
79.1002663093
 30
0.0
 11
235.255820214
 21
91.2049617917
 31
0.0
  0
LINE
  5
77
330
1F
100
AcDbEntity
  8
0
  6
Continuous
 62
     7
100
AcDbLine
 10
235.255820214
 20
91.2049617917
 30
0.0
 11
238.8835081531
 21
91.2049617917
 31
0.0
  0
LINE
  5
78
330
1F
100
AcDbEntity
  8
0
  6
Continuous
 62
     7
100
AcDbLine
 10
238.8835081531
 20
91.2049617917
 30
0.0
 11
238.8835081531
 21
101.2053915635
 31
0.0
  0
LINE
  5
79
330
1F
100
AcDbEntity
  8
0
  6
Continuous
 62
     7
100
AcDbLine
 10
238.8835081531
 20
101.2053915635
 30
0.0
 11
235.255820214
 21
101.2053915635
 31
0.0
  0
LINE
  5
7A
330
1F
100
AcDbEntity
  8
0
  6
Continuous
 62
     7
100
AcDbLine
 10
235.255820214
 20
101.2053915635
 30
0.0
 11
235.255820214
 21
113.3197333196
 31
0.0
  0
LINE
  5
7B
330
1F
100
AcDbEntity
  8
0
  6
Continuous
 62
     7
100
AcDbLine
 10
235.255820214
 20
113.3197333196
 30
0.0
 11
211.1139531653
 21
113.3197333196
 31
0.0
  0
LINE
  5
7C
330
1F
100
AcDbEntity
  8
0
  6
Continuous
 62
     7
100
AcDbLine
 10
247.024618665
 20
113.3197333196
 30
0.0
 11
247.024618665
 21
101.2053915635
 31
0.0
  0
LINE
  5
7D
330
1F
100
AcDbEntity
  8
0
  6
Continuous
 62
     7
100
AcDbLine
 10
247.024618665
 20
101.2053915635
 30
0.0
 11
243.3969307258
 21
101.2053915635
 31
0.0
  0
LINE
  5
7E
330
1F
100
AcDbEntity
  8
0
  6
Continuous
 62
     7
100
AcDbLine
 10
243.3969307258
 20
101.2053915635
 30
0.0
 11
243.3969307258
 21
91.2049617917
 31
0.0
  0
LINE
  5
7F
330
1F
100
AcDbEntity
  8
0
  6
Continuous
 62
     7
100
AcDbLine
 10
243.3969307258
 20
91.2049617917
 30
0.0
 11
247.024618665
 21
91.2049617917
 31
0.0
  0
LINE
  5
80
330
1F
100
AcDbEntity
  8
0
  6
Continuous
 62
     7
100
AcDbLine
 10
247.024618665
 20
91.2049617917
 30
0.0
 11
247.024618665
 21
79.1002663093
 31
0.0
  0
LINE
  5
81
330
1F
100
AcDbEntity
  8
0
  6
Continuous
 62
     7
100
AcDbLine
 10
247.024618665
 20
79.1002663093
 30
0.0
 11
271.1664857137
 21
79.1002663093
 31
0.0
  0
LINE
  5
82
330
1F
100
AcDbEntity
  8
0
  6
Continuous
 62
     7
100
AcDbLine
 10
271.1664857137
 20
79.1002663093
 30
0.0
 11
271.1664857137
 21
91.2049617917
 31
0.0
  0
LINE
  5
83
330
1F
100
AcDbEntity
  8
0
  6
Continuous
 62
     7
100
AcDbLine
 10
271.1664857137
 20
91.2049617917
 30
0.0
 11
274.7941736528
 21
91.2049617917
 31
0.0
  0
LINE
  5
84
330
1F
100
AcDbEntity
  8
0
  6
Continuous
 62
     7
100
AcDbLine
 10
274.7941736528
 20
91.2049617917
 30
0.0
 11
274.7941736528
 21
101.2053915635
 31
0.0
  0
LINE
  5
85
330
1F
100
AcDbEntity
  8
0
  6
Continuous
 62
     7
100
AcDbLine
 10
274.7941736528
 20
101.2053915635
 30
0.0
 11
271.1664857137
 21
101.2053915635
 31
0.0
  0
LINE
  5
86
330
1F
100
AcDbEntity
  8
0
  6
Continuous
 62
     7
100
AcDbLine
 10
271.1664857137
 20
101.2053915635
 30
0.0
 11
271.1664857137
 21
113.3197333196
 31
0.0
  0
LINE
  5
87
330
1F
100
AcDbEntity
  8
0
  6
Continuous
 62
     7
100
AcDbLine
 10
271.1664857137
 20
113.3197333196
 30
0.0
 11
247.024618665
 21
113.3197333196
 31
0.0
  0
LINE
  5
88
330
1F
100
AcDbEntity
  8
0
  6
Continuous
 62
     7
100
AcDbLine
 10
200.639477942
 20
91.2097849286
 30
0.0
 11
204.208943729
 21
91.2097849286
 31
0.0
  0
LINE
  5
89
330
1F
100
AcDbEntity
  8
0
  6
Continuous
 62
     7
100
AcDbLine
 10
204.208943729
 20
91.2097849286
 30
0.0
 11
204.208943729
 21
101.2102147004
 31
0.0
  0
LINE
  5
8A
330
1F
100
AcDbEntity
  8
0
  6
Continuous
 62
     7
100
AcDbLine
 10
204.208943729
 20
101.2102147004
 30
0.0
 11
200.639477942
 21
101.2102147004
 31
0.0
  0
LINE
  5
8B
330
1F
100
AcDbEntity
  8
0
  6
Continuous
 62
     7
100
AcDbLine
 10
200.639477942
 20
101.2102147004
 30
0.0
 11
200.639477942
 21
113.3197333196
 31
0.0
  0
LINE
  5
8C
330
1F
100
AcDbEntity
  8
0
  6
Continuous
 62
     7
100
AcDbLine
 10
200.639477942
 20
113.3197333196
 30
0.0
 11
172.189516147
 21
113.3197333196
 31
0.0
  0
LINE
  5
8D
330
1F
100
AcDbEntity
  8
0
  6
Continuous
 62
     7
100
AcDbLine
 10
172.189516147
 20
113.3197333196
 30
0.0
 11
172.189516147
 21
101.2102147004
 31
0.0
  0
LINE
  5
8E
330
1F
100
AcDbEntity
  8
0
  6
Continuous
 62
     7
100
AcDbLine
 10
172.189516147
 20
101.2102147004
 30
0.0
 11
168.7030772159
 21
101.2102147004
 31
0.0
  0
LINE
  5
8F
330
1F
100
AcDbEntity
  8
0
  6
Continuous
 62
     7
100
AcDbLine
 10
168.7030772159
 20
101.2102147004
 30
0.0
 11
168.7030772159
 21
91.2097849286
 31
0.0
  0
LINE
  5
90
330
1F
100
AcDbEntity
  8
0
  6
Continuous
 62
     7
100
AcDbLine
 10
168.7030772159
 20
91.2097849286
 30
0.0
 11
172.189516147
 21
91.2097849286
 31
0.0
  0
LINE
  5
91
330
1F
100
AcDbEntity
  8
0
  6
Continuous
 62
     7
100
AcDbLine
 10
172.189516147
 20
91.2097849286
 30
0.0
 11
172.189516147
 21
79.1002663093
 31
0.0
  0
LINE
  5
92
330
1F
100
AcDbEntity
  8
0
  6
Continuous
 62
     7
100
AcDbLine
 10
172.189516147
 20
79.1002663093
 30
0.0
 11
200.639477942
 21
79.1002663093
 31
0.0
  0
LINE
  5
93
330
1F
100
AcDbEntity
  8
0
  6
Continuous
 62
     7
100
AcDbLine
 10
200.639477942
 20
79.1002663093
 30
0.0
 11
200.639477942
 21
91.2097849286
 31
0.0
  0
LINE
  5
94
330
1F
100
AcDbEntity
  8
0
  6
Continuous
 62
     7
100
AcDbLine
 10
106.1804095751
 20
251.7472063323
 30
0.0
 11
102.6109437881
 21
251.7472063323
 31
0.0
  0
LINE
  5
95
330
1F
100
AcDbEntity
  8
0
  6
Continuous
 62
     7
100
AcDbLine
 10
102.6109437881
 20
251.7472063323
 30
0.0
 11
102.6109437881
 21
241.7467765605
 31
0.0
  0
LINE
  5
96
330
1F
100
AcDbEntity
  8
0
  6
Continuous
 62
     7
100
AcDbLine
 10
102.6109437881
 20
241.7467765605
 30
0.0
 11
106.1804095751
 21
241.7467765605
 31
0.0
  0
LINE
  5
97
330
1F
100
AcDbEntity
  8
0
  6
Continuous
 62
     7
100
AcDbLine
 10
106.1804095751
 20
241.7467765605
 30
0.0
 11
106.1804095751
 21
229.6372579412
 31
0.0
  0
LINE
  5
98
330
1F
100
AcDbEntity
  8
0
  6
Continuous
 62
     7
100
AcDbLine
 10
106.1804095751
 20
229.6372579412
 30
0.0
 11
134.630543625
 21
229.6372579412
 31
0.0
  0
LINE
  5
99
330
1F
100
AcDbEntity
  8
0
  6
Continuous
 62
     7
100
AcDbLine
 10
134.630543625
 20
229.6372579412
 30
0.0
 11
134.630543625
 21
241.7467765605
 31
0.0
  0
LINE
  5
9A
330
1F
100
AcDbEntity
  8
0
  6
Continuous
 62
     7
100
AcDbLine
 10
134.630543625
 20
241.7467765605
 30
0.0
 11
138.1169825561
 21
241.7467765605
 31
0.0
  0
LINE
  5
9B
330
1F
100
AcDbEntity
  8
0
  6
Continuous
 62
     7
100
AcDbLine
 10
138.1169825561
 20
241.7467765605
 30
0.0
 11
138.1169825561
 21
251.7472063323
 31
0.0
  0
LINE
  5
9C
330
1F
100
AcDbEntity
  8
0
  6
Continuous
 62
     7
100
AcDbLine
 10
138.1169825561
 20
251.7472063323
 30
0.0
 11
134.630543625
 21
251.7472063323
 31
0.0
  0
LINE
  5
9D
330
1F
100
AcDbEntity
  8
0
  6
Continuous
 62
     7
100
AcDbLine
 10
134.630543625
 20
251.7472063323
 30
0.0
 11
134.630543625
 21
263.8567249515
 31
0.0
  0
LINE
  5
9E
330
1F
100
AcDbEntity
  8
0
  6
Continuous
 62
     7
100
AcDbLine
 10
134.630543625
 20
263.8567249515
 30
0.0
 11
106.1804095751
 21
263.8567249515
 31
0.0
  0
LINE
  5
9F
330
1F
100
AcDbEntity
  8
0
  6
Continuous
 62
     7
100
AcDbLine
 10
106.1804095751
 20
263.8567249515
 30
0.0
 11
106.1804095751
 21
251.7472063323
 31
0.0
  0
LINE
  5
A0
330
1F
100
AcDbEntity
  8
0
  6
Continuous
 62
     7
100
AcDbLine
 10
135.150824604
 20
145.1768967973
 30
0.0
 11
135.150824604
 21
155.1769820593
 31
0.0
  0
LINE
  5
A1
330
1F
100
AcDbEntity
  8
0
  6
Continuous
 62
     7
100
AcDbLine
 10
135.150824604
 20
155.1769820593
 30
0.0
 11
138.250824604
 21
155.1769820593
 31
0.0
  0
LINE
  5
A2
330
1F
100
AcDbEntity
  8
0
  6
Continuous
 62
     7
100
AcDbLine
 10
138.250824604
 20
155.1769820593
 30
0.0
 11
138.250824604
 21
145.1768967973
 31
0.0
  0
LINE
  5
A3
330
1F
100
AcDbEntity
  8
0
  6
Continuous
 62
     7
100
AcDbLine
 10
138.250824604
 20
145.1768967973
 30
0.0
 11
135.150824604
 21
145.1768967973
 31
0.0
  0
LINE
  5
A4
330
1F
100
AcDbEntity
  8
0
  6
Continuous
 62
     7
100
AcDbLine
 10
68.8994564422
 20
212.7962420612
 30
0.0
 11
58.8990266704
 21
212.7962420612
 31
0.0
  0
LINE
  5
A5
330
1F
100
AcDbEntity
  8
0
  6
Continuous
 62
     7
100
AcDbLine
 10
58.8990266704
 20
212.7962420612
 30
0.0
 11
58.8990266704
 21
215.8962420612
 31
0.0
  0
LINE
  5
A6
330
1F
100
AcDbEntity
  8
0
  6
Continuous
 62
     7
100
AcDbLine
 10
58.8990266704
 20
215.8962420612
 30
0.0
 11
68.8994564422
 21
215.8962420612
 31
0.0
  0
LINE
  5
A7
330
1F
100
AcDbEntity
  8
0
  6
Continuous
 62
     7
100
AcDbLine
 10
68.8994564422
 20
215.8962420612
 30
0.0
 11
68.8994564422
 21
212.7962420612
 31
0.0
  0
LINE
  5
A8
330
1F
100
AcDbEntity
  8
0
  6
Continuous
 62
     7
100
AcDbLine
 10
68.8994564422
 20
84.2431082424
 30
0.0
 11
58.8990266704
 21
84.2431082424
 31
0.0
  0
LINE
  5
A9
330
1F
100
AcDbEntity
  8
0
  6
Continuous
 62
     7
100
AcDbLine
 10
58.8990266704
 20
84.2431082424
 30
0.0
 11
58.8990266704
 21
87.3431082424
 31
0.0
  0
LINE
  5
AA
330
1F
100
AcDbEntity
  8
0
  6
Continuous
 62
     7
100
AcDbLine
 10
58.8990266704
 20
87.3431082424
 30
0.0
 11
68.8994564422
 21
87.3431082424
 31
0.0
  0
LINE
  5
AB
330
1F
100
AcDbEntity
  8
0
  6
Continuous
 62
     7
100
AcDbLine
 10
68.8994564422
 20
87.3431082424
 30
0.0
 11
68.8994564422
 21
84.2431082424
 31
0.0
  0
LINE
  5
AC
330
1F
100
AcDbEntity
  8
0
  6
Continuous
 62
     7
100
AcDbLine
 10
16.9899243753
 20
212.9222725883
 30
0.0
 11
20.9852042452
 21
207.4335428403
 31
0.0
  0
LINE
  5
AD
330
1F
100
AcDbEntity
  8
0
  6
Continuous
 62
     7
100
AcDbLine
 10
20.9852042452
 20
207.4335428403
 30
0.0
 11
18.155056437
 21
205.3740634006
 31
0.0
  0
LINE
  5
AE
330
1F
100
AcDbEntity
  8
0
  6
Continuous
 62
     7
100
AcDbLine
 10
18.155056437
 20
205.3740634006
 30
0.0
 11
13.9072509015
 21
211.2086809635
 31
0.0
  0
LINE
  5
AF
330
1F
100
AcDbEntity
  8
0
  6
Continuous
 62
     7
100
AcDbLine
 10
3.9521241652
 20
152.7968762224
 30
0.0
 11
3.9488513223
 21
152.3314435153
 31
0.0
  0
LINE
  5
B0
330
1F
100
AcDbEntity
  8
0
  6
Continuous
 62
     7
100
AcDbLine
 10
3.9488513223
 20
152.3314435153
 30
0.0
 11
3.9488513223
 21
152.3154238107
 31
0.0
  0
LINE
  5
B1
330
1F
100
AcDbEntity
  8
0
  6
Continuous
 62
     7
100
AcDbLine
 10
3.9488513223
 20
152.3154238107
 30
0.0
 11
3.9476455381
 21
152.090631182
 31
0.0
  0
LINE
  5
B2
330
1F
100
AcDbEntity
  8
0
  6
Continuous
 62
     7
100
AcDbLine
 10
3.9476455381
 20
152.090631182
 30
0.0
 11
4.5779310071
 21
152.090631182
 31
0.0
  0
LINE
  5
B3
330
1F
100
AcDbEntity
  8
0
  6
Continuous
 62
     7
100
AcDbLine
 10
4.5779310071
 20
152.090631182
 30
0.0
 11
4.5779310071
 21
151.5788507434
 31
0.0
  0
LINE
  5
B4
330
1F
100
AcDbEntity
  8
0
  6
Continuous
 62
     7
100
AcDbLine
 10
4.5779310071
 20
151.5788507434
 30
0.0
 11
10.6979749192
 21
151.5950427028
 31
0.0
  0
LINE
  5
B5
330
1F
100
AcDbEntity
  8
0
  6
Continuous
 62
     7
100
AcDbLine
 10
10.6979749192
 20
151.5950427028
 30
0.0
 11
10.7002142328
 21
151.1705056217
 31
0.0
  0
LINE
  5
B6
330
1F
100
AcDbEntity
  8
0
  6
Continuous
 62
     7
100
AcDbLine
 10
10.7002142328
 20
151.1705056217
 30
0.0
 11
10.7046928598
 21
151.1705056217
 31
0.0
  0
LINE
  5
B7
330
1F
100
AcDbEntity
  8
0
  6
Continuous
 62
     7
100
AcDbLine
 10
10.7046928598
 20
151.1705056217
 30
0.0
 11
10.7146836433
 21
150.1765949185
 31
0.0
  0
LINE
  5
B8
330
1F
100
AcDbEntity
  8
0
  6
Continuous
 62
     7
100
AcDbLine
 10
10.7146836433
 20
150.1765949185
 30
0.0
 11
10.7053818794
 21
149.2529642096
 31
0.0
  0
LINE
  5
B9
330
1F
100
AcDbEntity
  8
0
  6
Continuous
 62
     7
100
AcDbLine
 10
10.7053818794
 20
149.2529642096
 30
0.0
 11
10.707448938
 21
148.4950427028
 31
0.0
  0
LINE
  5
BA
330
1F
100
AcDbEntity
  8
0
  6
Continuous
 62
     7
100
AcDbLine
 10
10.707448938
 20
148.4950427028
 30
0.0
 11
4.5779310071
 21
148.4788507434
 31
0.0
  0
LINE
  5
BB
330
1F
100
AcDbEntity
  8
0
  6
Continuous
 62
     7
100
AcDbLine
 10
4.5779310071
 20
148.4788507434
 30
0.0
 11
4.5779310071
 21
148.4729362118
 31
0.0
  0
LINE
  5
BC
330
1F
100
AcDbEntity
  8
0
  6
Continuous
 62
     7
100
AcDbLine
 10
4.5779310071
 20
148.4729362118
 30
0.0
 11
4.2496095098
 21
148.4729362118
 31
0.0
  0
LINE
  5
BD
330
1F
100
AcDbEntity
  8
0
  6
Continuous
 62
     7
100
AcDbLine
 10
4.2496095098
 20
148.4729362118
 30
0.0
 11
4.250815294
 21
148.2481435831
 31
0.0
  0
LINE
  5
BE
330
1F
100
AcDbEntity
  8
0
  6
Continuous
 62
     7
100
AcDbLine
 10
4.250815294
 20
148.2481435831
 30
0.0
 11
4.250815294
 21
148.2321238785
 31
0.0
  0
LINE
  5
BF
330
1F
100
AcDbEntity
  8
0
  6
Continuous
 62
     7
100
AcDbLine
 10
4.250815294
 20
148.2321238785
 30
0.0
 11
4.2540881369
 21
147.7666911714
 31
0.0
  0
LINE
  5
C0
330
1F
100
AcDbEntity
  8
0
  6
Continuous
 62
     7
100
AcDbLine
 10
14.2092148732
 20
89.3547141754
 30
0.0
 11
18.4570204087
 21
95.1898485029
 31
0.0
  0
LINE
  5
C1
330
1F
100
AcDbEntity
  8
0
  6
Continuous
 62
     7
100
AcDbLine
 10
18.4570204087
 20
95.1898485029
 30
0.0
 11
20.9633830384
 21
93.3655277063
 31
0.0
  0
LINE
  5
C2
330
1F
100
AcDbEntity
  8
0
  6
Continuous
 62
     7
100
AcDbLine
 10
20.9633830384
 20
93.3655277063
 30
0.0
 11
16.9681031685
 21
87.877314723
 31
0.0
  0
LINE
  5
C3
330
1F
100
AcDbEntity
  8
0
  6
Continuous
 62
     7
100
AcDbLine
 10
115.2832694558
 20
91.8024868536
 30
0.0
 11
114.9025861536
 21
92.3438839662
 31
0.0
  0
LINE
  5
C4
330
1F
100
AcDbEntity
  8
0
  6
Continuous
 62
     7
100
AcDbLine
 10
114.9025861536
 20
92.3438839662
 30
0.0
 11
111.2717976265
 21
97.2310996457
 31
0.0
  0
LINE
  5
C5
330
1F
100
AcDbEntity
  8
0
  6
Continuous
 62
     7
100
AcDbLine
 10
111.2717976265
 20
97.2310996457
 30
0.0
 11
113.6960540739
 21
99.1631919512
 31
0.0
  0
LINE
  5
C6
330
1F
100
AcDbEntity
  8
0
  6
Continuous
 62
     7
100
AcDbLine
 10
113.6960540739
 20
99.1631919512
 30
0.0
 11
113.8738211182
 21
98.9241021668
 31
0.0
  0
LINE
  5
C7
330
1F
100
AcDbEntity
  8
0
  6
Continuous
 62
     7
100
AcDbLine
 10
113.8738211182
 20
98.9241021668
 30
0.0
 11
114.012314048
 21
99.0214261785
 31
0.0
  0
LINE
  5
C8
330
1F
100
AcDbEntity
  8
0
  6
Continuous
 62
     7
100
AcDbLine
 10
114.012314048
 20
99.0214261785
 30
0.0
 11
117.6875443362
 21
93.7914232721
 31
0.0
  0
LINE
  5
C9
330
1F
100
AcDbEntity
  8
0
  6
Continuous
 62
     7
100
AcDbLine
 10
117.6875443362
 20
93.7914232721
 30
0.0
 11
117.7271629605
 21
93.7380242569
 31
0.0
  0
LINE
  5
CA
330
1F
100
AcDbEntity
  8
0
  6
Continuous
 62
     7
100
AcDbLine
 10
144.808731926
 20
150.3697469865
 30
0.0
 11
144.8090764358
 21
150.3697469865
 31
0.0
  0
LINE
  5
CB
330
1F
100
AcDbEntity
  8
0
  6
Continuous
 62
     7
100
AcDbLine
 10
144.8090764358
 20
150.4040257092
 30
0.0
 11
144.808731926
 21
150.4040257092
 31
0.0
  0
LINE
  5
CC
330
1F
100
AcDbEntity
  8
0
  6
Continuous
 62
     7
100
AcDbLine
 10
117.7271629605
 20
207.0360929485
 30
0.0
 11
117.6875443362
 21
206.9823494235
 31
0.0
  0
LINE
  5
CD
330
1F
100
AcDbEntity
  8
0
  6
Continuous
 62
     7
100
AcDbLine
 10
117.6875443362
 20
206.9823494235
 30
0.0
 11
114.012314048
 21
201.7526910269
 31
0.0
  0
LINE
  5
CE
330
1F
100
AcDbEntity
  8
0
  6
Continuous
 62
     7
100
AcDbLine
 10
114.012314048
 20
201.7526910269
 30
0.0
 11
113.8738211182
 21
201.8498427837
 31
0.0
  0
LINE
  5
CF
330
1F
100
AcDbEntity
  8
0
  6
Continuous
 62
     7
100
AcDbLine
 10
113.8738211182
 20
201.8498427837
 30
0.0
 11
114.0231697869
 21
201.3929084315
 31
0.0
  0
LINE
  5
D0
330
1F
100
AcDbEntity
  8
0
  6
Continuous
 62
     7
100
AcDbLine
 10
114.0231697869
 20
201.3929084315
 30
0.0
 11
111.2936188333
 21
203.5681431559
 31
0.0
  0
LINE
  5
D1
330
1F
100
AcDbEntity
  8
0
  6
Continuous
 62
     7
100
AcDbLine
 10
111.2936188333
 20
203.5681431559
 30
0.0
 11
114.9244073604
 21
208.4553588354
 31
0.0
  0
LINE
  5
D2
330
1F
100
AcDbEntity
  8
0
  6
Continuous
 62
     7
100
AcDbLine
 10
114.9244073604
 20
208.4553588354
 30
0.0
 11
115.3050906627
 21
208.9969282029
 31
0.0
  0
LINE
  5
D3
330
1F
100
AcDbEntity
  8
0
  6
Continuous
 62
     7
100
AcDbLine
 10
257.2362329293
 20
182.8635101912
 30
0.0
 11
182.2361102287
 21
182.8635101912
 31
0.0
  0
LINE
  5
D4
330
1F
100
AcDbEntity
  8
0
  6
Continuous
 62
     7
100
AcDbLine
 10
182.2361102287
 20
182.8635101912
 30
0.0
 11
182.2361102287
 21
147.8633840289
 31
0.0
  0
LINE
  5
D5
330
1F
100
AcDbEntity
  8
0
  6
Continuous
 62
     7
100
AcDbLine
 10
182.2361102287
 20
147.8633840289
 30
0.0
 11
257.2362329293
 21
147.8633840289
 31
0.0
  0
LINE
  5
D6
330
1F
100
AcDbEntity
  8
0
  6
Continuous
 62
     7
100
AcDbLine
 10
257.2362329293
 20
147.8633840289
 30
0.0
 11
257.2362329293
 21
182.8635101912
 31
0.0
  0
LINE
  5
D7
330
1F
100
AcDbEntity
  8
0
  6
Continuous
 62
     7
100
AcDbLine
 10
256.8834549189
 20
264.4482482366
 30
0.0
 11
181.8833322183
 21
264.4482482366
 31
0.0
  0
LINE
  5
D8
330
1F
100
AcDbEntity
  8
0
  6
Continuous
 62
     7
100
AcDbLine
 10
181.8833322183
 20
264.4482482366
 30
0.0
 11
181.8833322183
 21
229.4481220743
 31
0.0
  0
LINE
  5
D9
330
1F
100
AcDbEntity
  8
0
  6
Continuous
 62
     7
100
AcDbLine
 10
181.8833322183
 20
229.4481220743
 30
0.0
 11
256.8834549189
 21
229.4481220743
 31
0.0
  0
LINE
  5
DA
330
1F
100
AcDbEntity
  8
0
  6
Continuous
 62
     7
100
AcDbLine
 10
256.8834549189
 20
229.4481220743
 30
0.0
 11
256.8834549189
 21
264.4482482366
 31
0.0
  0
LINE
  5
DB
330
1F
100
AcDbEntity
  8
0
  6
Continuous
 62
     7
100
AcDbLine
 10
240.203669614
 20
207.4795237287
 30
0.0
 11
250.2040993858
 21
207.4795237287
 31
0.0
  0
LINE
  5
DC
330
1F
100
AcDbEntity
  8
0
  6
Continuous
 62
     7
100
AcDbLine
 10
250.2040993858
 20
207.4795237287
 30
0.0
 11
250.2040993858
 21
204.3795237287
 31
0.0
  0
LINE
  5
DD
330
1F
100
AcDbEntity
  8
0
  6
Continuous
 62
     7
100
AcDbLine
 10
250.2040993858
 20
204.3795237287
 30
0.0
 11
240.203669614
 21
204.3795237287
 31
0.0
  0
LINE
  5
DE
330
1F
100
AcDbEntity
  8
0
  6
Continuous
 62
     7
100
AcDbLine
 10
240.203669614
 20
204.3795237287
 30
0.0
 11
240.203669614
 21
207.4795237287
 31
0.0
  0
LINE
  5
DF
330
1F
100
AcDbEntity
  8
0
  6
Continuous
 62
     7
100
AcDbLine
 10
153.0857600595
 20
211.0085808346
 30
0.0
 11
153.0857600595
 21
201.0084955726
 31
0.0
  0
LINE
  5
E0
330
1F
100
AcDbEntity
  8
0
  6
Continuous
 62
     7
100
AcDbLine
 10
153.0857600595
 20
201.0084955726
 30
0.0
 11
149.9857600595
 21
201.0084955726
 31
0.0
  0
LINE
  5
E1
330
1F
100
AcDbEntity
  8
0
  6
Continuous
 62
     7
100
AcDbLine
 10
149.9857600595
 20
201.0084955726
 30
0.0
 11
149.9857600595
 21
211.0085808346
 31
0.0
  0
LINE
  5
E2
330
1F
100
AcDbEntity
  8
0
  6
Continuous
 62
     7
100
AcDbLine
 10
149.9857600595
 20
211.0085808346
 30
0.0
 11
153.0857600595
 21
211.0085808346
 31
0.0
  0
LINE
  5
E3
330
1F
100
AcDbEntity
  8
0
  6
Continuous
 62
     7
100
AcDbLine
 10
158.7302082262
 20
211.0085808346
 30
0.0
 11
158.7302082262
 21
201.0084955726
 31
0.0
  0
LINE
  5
E4
330
1F
100
AcDbEntity
  8
0
  6
Continuous
 62
     7
100
AcDbLine
 10
158.7302082262
 20
201.0084955726
 30
0.0
 11
155.6302082262
 21
201.0084955726
 31
0.0
  0
LINE
  5
E5
330
1F
100
AcDbEntity
  8
0
  6
Continuous
 62
     7
100
AcDbLine
 10
155.6302082262
 20
201.0084955726
 30
0.0
 11
155.6302082262
 21
211.0085808346
 31
0.0
  0
LINE
  5
E6
330
1F
100
AcDbEntity
  8
0
  6
Continuous
 62
     7
100
AcDbLine
 10
155.6302082262
 20
211.0085808346
 30
0.0
 11
158.7302082262
 21
211.0085808346
 31
0.0
  0
LINE
  5
E7
330
1F
100
AcDbEntity
  8
0
  6
Continuous
 62
     7
100
AcDbLine
 10
218.9377701736
 20
142.9890162486
 30
0.0
 11
228.9381999455
 21
142.9890162486
 31
0.0
  0
LINE
  5
E8
330
1F
100
AcDbEntity
  8
0
  6
Continuous
 62
     7
100
AcDbLine
 10
228.9381999455
 20
142.9890162486
 30
0.0
 11
228.9381999455
 21
139.8890162486
 31
0.0
  0
LINE
  5
E9
330
1F
100
AcDbEntity
  8
0
  6
Continuous
 62
     7
100
AcDbLine
 10
228.9381999455
 20
139.8890162486
 30
0.0
 11
218.9377701736
 21
139.8890162486
 31
0.0
  0
LINE
  5
EA
330
1F
100
AcDbEntity
  8
0
  6
Continuous
 62
     7
100
AcDbLine
 10
218.9377701736
 20
139.8890162486
 30
0.0
 11
218.9377701736
 21
142.9890162486
 31
0.0
  0
LINE
  5
EB
330
1F
100
AcDbEntity
  8
0
  6
Continuous
 62
     7
100
AcDbLine
 10
218.9377701736
 20
271.5421500674
 30
0.0
 11
228.9381999455
 21
271.5421500674
 31
0.0
  0
LINE
  5
EC
330
1F
100
AcDbEntity
  8
0
  6
Continuous
 62
     7
100
AcDbLine
 10
228.9381999455
 20
271.5421500674
 30
0.0
 11
228.9381999455
 21
268.4421500674
 31
0.0
  0
LINE
  5
ED
330
1F
100
AcDbEntity
  8
0
  6
Continuous
 62
     7
100
AcDbLine
 10
228.9381999455
 20
268.4421500674
 30
0.0
 11
218.9377701736
 21
268.4421500674
 31
0.0
  0
LINE
  5
EE
330
1F
100
AcDbEntity
  8
0
  6
Continuous
 62
     7
100
AcDbLine
 10
218.9377701736
 20
268.4421500674
 30
0.0
 11
218.9377701736
 21
271.5421500674
 31
0.0
  0
LINE
  5
EF
330
1F
100
AcDbEntity
  8
0
  6
Continuous
 62
     7
100
AcDbLine
 10
269.7505180014
 20
143.5676770356
 30
0.0
 11
265.7552381315
 21
149.0564067836
 31
0.0
  0
LINE
  5
F0
330
1F
100
AcDbEntity
  8
0
  6
Continuous
 62
     7
100
AcDbLine
 10
265.7552381315
 20
149.0564067836
 30
0.0
 11
268.2618185078
 21
150.8804283891
 31
0.0
  0
LINE
  5
F1
330
1F
100
AcDbEntity
  8
0
  6
Continuous
 62
     7
100
AcDbLine
 10
268.2618185078
 20
150.8804283891
 30
0.0
 11
272.5096240433
 21
145.0458108262
 31
0.0
  0
LINE
  5
F2
330
1F
100
AcDbEntity
  8
0
  6
Continuous
 62
     7
100
AcDbLine
 10
282.4645785247
 20
203.4574433125
 30
0.0
 11
282.4680236225
 21
203.9232205293
 31
0.0
  0
LINE
  5
F3
330
1F
100
AcDbEntity
  8
0
  6
Continuous
 62
     7
100
AcDbLine
 10
282.4680236225
 20
203.9232205293
 30
0.0
 11
282.4680236225
 21
203.939067979
 31
0.0
  0
LINE
  5
F4
330
1F
100
AcDbEntity
  8
0
  6
Continuous
 62
     7
100
AcDbLine
 10
282.4680236225
 20
203.939067979
 30
0.0
 11
282.4694016616
 21
204.1636883528
 31
0.0
  0
LINE
  5
F5
330
1F
100
AcDbEntity
  8
0
  6
Continuous
 62
     7
100
AcDbLine
 10
282.4694016616
 20
204.1636883528
 30
0.0
 11
282.935555922
 21
204.1636883528
 31
0.0
  0
LINE
  5
F6
330
1F
100
AcDbEntity
  8
0
  6
Continuous
 62
     7
100
AcDbLine
 10
282.935555922
 20
204.1636883528
 30
0.0
 11
282.935555922
 21
203.9707774773
 31
0.0
  0
LINE
  5
F7
330
1F
100
AcDbEntity
  8
0
  6
Continuous
 62
     7
100
AcDbLine
 10
282.935555922
 20
203.9707774773
 30
0.0
 11
276.8156842647
 21
203.9545855178
 31
0.0
  0
LINE
  5
F8
330
1F
100
AcDbEntity
  8
0
  6
Continuous
 62
     7
100
AcDbLine
 10
276.8156842647
 20
203.9545855178
 30
0.0
 11
276.8132726963
 21
204.7796864309
 31
0.0
  0
LINE
  5
F9
330
1F
100
AcDbEntity
  8
0
  6
Continuous
 62
     7
100
AcDbLine
 10
276.8132726963
 20
204.7796864309
 30
0.0
 11
276.8087940692
 21
204.7796864309
 31
0.0
  0
LINE
  5
FA
330
1F
100
AcDbEntity
  8
0
  6
Continuous
 62
     7
100
AcDbLine
 10
276.8087940692
 20
204.7796864309
 30
0.0
 11
276.7988032857
 21
205.7732526243
 31
0.0
  0
LINE
  5
FB
330
1F
100
AcDbEntity
  8
0
  6
Continuous
 62
     7
100
AcDbLine
 10
276.7988032857
 20
205.7732526243
 30
0.0
 11
276.8081050497
 21
206.697227843
 31
0.0
  0
LINE
  5
FC
330
1F
100
AcDbEntity
  8
0
  6
Continuous
 62
     7
100
AcDbLine
 10
276.8081050497
 20
206.697227843
 30
0.0
 11
276.806037991
 21
207.0545855178
 31
0.0
  0
LINE
  5
FD
330
1F
100
AcDbEntity
  8
0
  6
Continuous
 62
     7
100
AcDbLine
 10
276.806037991
 20
207.0545855178
 30
0.0
 11
282.935555922
 21
207.0704329675
 31
0.0
  0
LINE
  5
FE
330
1F
100
AcDbEntity
  8
0
  6
Continuous
 62
     7
100
AcDbLine
 10
282.935555922
 20
207.0704329675
 30
0.0
 11
282.935555922
 21
207.9227528788
 31
0.0
  0
LINE
  5
FF
330
1F
100
AcDbEntity
  8
0
  6
Continuous
 62
     7
100
AcDbLine
 10
282.935555922
 20
207.9227528788
 30
0.0
 11
282.6315688569
 21
207.9227528788
 31
0.0
  0
LINE
  5
100
330
1F
100
AcDbEntity
  8
0
  6
Continuous
 62
     7
100
AcDbLine
 10
282.6315688569
 20
207.9227528788
 30
0.0
 11
282.6301908178
 21
208.1473732526
 31
0.0
  0
LINE
  5
101
330
1F
100
AcDbEntity
  8
0
  6
Continuous
 62
     7
100
AcDbLine
 10
282.6301908178
 20
208.1473732526
 30
0.0
 11
282.6301908178
 21
208.1635652121
 31
0.0
  0
LINE
  5
102
330
1F
100
AcDbEntity
  8
0
  6
Continuous
 62
     7
100
AcDbLine
 10
282.6301908178
 20
208.1635652121
 30
0.0
 11
282.62674572
 21
208.6289979192
 31
0.0
  0
LINE
  5
103
330
1F
100
AcDbEntity
  8
0
  6
Continuous
 62
     7
100
AcDbLine
 10
272.6717912386
 20
267.0409749152
 30
0.0
 11
268.423985703
 21
261.2060128426
 31
0.0
  0
LINE
  5
104
330
1F
100
AcDbEntity
  8
0
  6
Continuous
 62
     7
100
AcDbLine
 10
268.423985703
 20
261.2060128426
 30
0.0
 11
265.9175504914
 21
263.0302339174
 31
0.0
  0
LINE
  5
105
330
1F
100
AcDbEntity
  8
0
  6
Continuous
 62
     7
100
AcDbLine
 10
265.9175504914
 20
263.0302339174
 30
0.0
 11
269.9128303613
 21
268.5186191557
 31
0.0
  0
LINE
  5
106
330
1F
100
AcDbEntity
  8
0
  6
Continuous
 62
     7
100
AcDbLine
 10
171.597664074
 20
264.5932747702
 30
0.0
 11
171.9783473762
 21
264.0517054027
 31
0.0
  0
LINE
  5
107
330
1F
100
AcDbEntity
  8
0
  6
Continuous
 62
     7
100
AcDbLine
 10
171.9783473762
 20
264.0517054027
 30
0.0
 11
175.6091359033
 21
259.1644897232
 31
0.0
  0
LINE
  5
108
330
1F
100
AcDbEntity
  8
0
  6
Continuous
 62
     7
100
AcDbLine
 10
175.6091359033
 20
259.1644897232
 30
0.0
 11
173.1848048893
 21
257.2324909825
 31
0.0
  0
LINE
  5
109
330
1F
100
AcDbEntity
  8
0
  6
Continuous
 62
     7
100
AcDbLine
 10
173.1848048893
 20
257.2324909825
 30
0.0
 11
173.0070378449
 21
257.4715807669
 31
0.0
  0
LINE
  5
10A
330
1F
100
AcDbEntity
  8
0
  6
Continuous
 62
     7
100
AcDbLine
 10
173.0070378449
 20
257.4715807669
 30
0.0
 11
172.8685449151
 21
257.3744290101
 31
0.0
  0
LINE
  5
10B
330
1F
100
AcDbEntity
  8
0
  6
Continuous
 62
     7
100
AcDbLine
 10
172.8685449151
 20
257.3744290101
 30
0.0
 11
169.1933146269
 21
262.6040874067
 31
0.0
  0
LINE
  5
10C
330
1F
100
AcDbEntity
  8
0
  6
Continuous
 62
     7
100
AcDbLine
 10
169.1933146269
 20
262.6040874067
 30
0.0
 11
169.1536960027
 21
262.6578309317
 31
0.0
  0
LINE
  5
10D
330
1F
100
AcDbEntity
  8
0
  6
Continuous
 62
     7
100
AcDbLine
 10
142.0721270371
 20
206.0259359473
 30
0.0
 11
142.0717825273
 21
206.0259359473
 31
0.0
  0
LINE
  5
10E
330
1F
100
AcDbEntity
  8
0
  6
Continuous
 62
     7
100
AcDbLine
 10
142.0717825273
 20
205.9914849697
 30
0.0
 11
142.0721270371
 21
205.9914849697
 31
0.0
  0
LINE
  5
10F
330
1F
100
AcDbEntity
  8
0
  6
Continuous
 62
     7
100
AcDbLine
 10
169.1536960027
 20
149.3595899852
 30
0.0
 11
169.1933146269
 21
149.4133335102
 31
0.0
  0
LINE
  5
110
330
1F
100
AcDbEntity
  8
0
  6
Continuous
 62
     7
100
AcDbLine
 10
169.1933146269
 20
149.4133335102
 30
0.0
 11
172.8685449151
 21
154.6429919068
 31
0.0
  0
LINE
  5
111
330
1F
100
AcDbEntity
  8
0
  6
Continuous
 62
     7
100
AcDbLine
 10
172.8685449151
 20
154.6429919068
 30
0.0
 11
173.0070378449
 21
154.54584015
 31
0.0
  0
LINE
  5
112
330
1F
100
AcDbEntity
  8
0
  6
Continuous
 62
     7
100
AcDbLine
 10
173.0070378449
 20
154.54584015
 30
0.0
 11
173.1848048893
 21
154.7849299344
 31
0.0
  0
LINE
  5
113
330
1F
100
AcDbEntity
  8
0
  6
Continuous
 62
     7
100
AcDbLine
 10
173.1848048893
 20
154.7849299344
 30
0.0
 11
175.4468235434
 21
152.921806468
 31
0.0
  0
LINE
  5
114
330
1F
100
AcDbEntity
  8
0
  6
Continuous
 62
     7
100
AcDbLine
 10
175.4468235434
 20
152.921806468
 30
0.0
 11
171.8160350163
 21
148.0345907886
 31
0.0
  0
LINE
  5
115
330
1F
100
AcDbEntity
  8
0
  6
Continuous
 62
     7
100
AcDbLine
 10
171.8160350163
 20
148.0345907886
 30
0.0
 11
171.435351714
 21
147.493021421
 31
0.0
  0
LINE
  5
116
330
1F
100
AcDbEntity
  8
0
  6
Continuous
 62
     7
100
AcDbLine
 10
260.5313678975
 20
171.9921597061
 30
0.0
 11
260.5313678975
 21
181.9925894779
 31
0.0
  0
LINE
  5
117
330
1F
100
AcDbEntity
  8
0
  6
Continuous
 62
     7
100
AcDbLine
 10
260.5313678975
 20
181.9925894779
 30
0.0
 11
263.6313678975
 21
181.9925894779
 31
0.0
  0
LINE
  5
118
330
1F
100
AcDbEntity
  8
0
  6
Continuous
 62
     7
100
AcDbLine
 10
263.6313678975
 20
181.9925894779
 30
0.0
 11
263.6313678975
 21
171.9921597061
 31
0.0
  0
LINE
  5
119
330
1F
100
AcDbEntity
  8
0
  6
Continuous
 62
     7
100
AcDbLine
 10
263.6313678975
 20
171.9921597061
 30
0.0
 11
260.5313678975
 21
171.9921597061
 31
0.0
  0
LINE
  5
11A
330
1F
100
AcDbEntity
  8
0
  6
Continuous
 62
     7
100
AcDbLine
 10
260.5313678975
 20
229.7106385235
 30
0.0
 11
260.5313678975
 21
239.7110682953
 31
0.0
  0
LINE
  5
11B
330
1F
100
AcDbEntity
  8
0
  6
Continuous
 62
     7
100
AcDbLine
 10
260.5313678975
 20
239.7110682953
 30
0.0
 11
263.6313678975
 21
239.7110682953
 31
0.0
  0
LINE
  5
11C
330
1F
100
AcDbEntity
  8
0
  6
Continuous
 62
     7
100
AcDbLine
 10
263.6313678975
 20
239.7110682953
 30
0.0
 11
263.6313678975
 21
229.7106385235
 31
0.0
  0
LINE
  5
11D
330
1F
100
AcDbEntity
  8
0
  6
Continuous
 62
     7
100
AcDbLine
 10
263.6313678975
 20
229.7106385235
 30
0.0
 11
260.5313678975
 21
229.7106385235
 31
0.0
  0
LINE
  5
11E
330
1F
100
AcDbEntity
  8
0
  6
Continuous
 62
     7
100
AcDbLine
 10
231.7087475624
 20
130.7705315028
 30
0.0
 11
196.4743547526
 21
130.7705315028
 31
0.0
  0
LINE
  5
11F
330
1F
100
AcDbEntity
  8
0
  6
Continuous
 62
     7
100
AcDbLine
 10
196.4743547526
 20
130.7705315028
 30
0.0
 11
196.4743547526
 21
118.4243346676
 31
0.0
  0
LINE
  5
120
330
1F
100
AcDbEntity
  8
0
  6
Continuous
 62
     7
100
AcDbLine
 10
231.3642377866
 20
118.2779180129
 30
0.0
 11
231.3642377866
 21
123.92167716
 31
0.0
  0
LINE
  5
121
330
1F
100
AcDbEntity
  8
0
  6
Continuous
 62
     7
100
AcDbLine
 10
231.3642377866
 20
123.92167716
 30
0.0
 11
228.364246659
 21
123.92167716
 31
0.0
  0
LINE
  5
122
330
1F
100
AcDbEntity
  8
0
  6
Continuous
 62
     7
100
AcDbLine
 10
228.364246659
 20
123.92167716
 30
0.0
 11
228.364246659
 21
118.2779180129
 31
0.0
  0
LINE
  5
123
330
1F
100
AcDbEntity
  8
0
  6
Continuous
 62
     7
100
AcDbLine
 10
202.9387361857
 20
118.6010681826
 30
0.0
 11
202.9387361857
 21
124.2448273297
 31
0.0
  0
LINE
  5
124
330
1F
100
AcDbEntity
  8
0
  6
Continuous
 62
     7
100
AcDbLine
 10
202.9387361857
 20
124.2448273297
 30
0.0
 11
199.938745058
 21
124.2448273297
 31
0.0
  0
LINE
  5
125
330
1F
100
AcDbEntity
  8
0
  6
Continuous
 62
     7
100
AcDbLine
 10
199.938745058
 20
124.2448273297
 30
0.0
 11
199.938745058
 21
118.6010681826
 31
0.0
  0
LINE
  5
126
330
1F
100
AcDbEntity
  8
0
  6
Continuous
 62
     7
100
AcDbLine
 10
203.1309726406
 20
118.4246791774
 30
0.0
 11
228.130669031
 21
118.4246791774
 31
0.0
  0
LINE
  5
127
330
1F
100
AcDbEntity
  8
0
  6
Continuous
 62
     7
100
AcDbLine
 10
196.4743547526
 20
118.4246791774
 30
0.0
 11
199.938745058
 21
118.4246791774
 31
0.0
  0
LINE
  5
128
330
1F
100
AcDbEntity
  8
0
  6
Continuous
 62
     7
100
AcDbLine
 10
231.3642377866
 20
118.2779180129
 30
0.0
 11
237.0190212465
 21
118.4246791774
 31
0.0
  0
LINE
  5
129
330
1F
100
AcDbEntity
  8
0
  6
Continuous
 62
     7
100
AcDbLine
 10
231.3373660241
 20
130.7705315028
 30
0.0
 11
237.0190212465
 21
130.7705315028
 31
0.0
  0
LINE
  5
12A
330
1F
100
AcDbEntity
  8
0
  6
Continuous
 62
     7
100
AcDbLine
 10
237.0190212465
 20
118.4246791774
 30
0.0
 11
240.1192647189
 21
118.4246791774
 31
0.0
  0
LINE
  5
12B
330
1F
100
AcDbEntity
  8
0
  6
Continuous
 62
     7
100
AcDbLine
 10
237.0190212465
 20
130.7705315028
 30
0.0
 11
240.1192647189
 21
130.7705315028
 31
0.0
  0
LWPOLYLINE
  5
12C
330
1F
100
AcDbEntity
  8
0
  6
Continuous
 62
     7
100
AcDbPolyline
 90
       17
 70
   128
 43
0.0
 10
58.6094613697
 20
222.2288596717
 10
55.5478132462
 20
222.1870160791
 10
52.528048393
 20
222.0628861037
 10
49.5541496623
 20
221.8585709494
 10
46.6300999061
 20
221.5761718198
 10
43.7598819765
 20
221.2177899187
 10
40.9971701514
 20
220.7938811434
 10
38.2939999034
 20
220.3006965061
 10
35.6541445048
 20
219.7402266439
 10
33.0813772282
 20
219.1144621943
 10
30.529176334
 20
218.4106859919
 10
28.0547676851
 20
217.6431106564
 10
25.6621603174
 20
216.8138512051
 10
23.3553632667
 20
215.9250226553
 10
21.1383855689
 20
214.9787400244
 10
19.0152362598
 20
213.9771183296
 10
16.9899243753
 20
212.9222725883
  0
LWPOLYLINE
  5
12D
330
1F
100
AcDbEntity
  8
0
  6
Continuous
 62
     7
100
AcDbPolyline
 90
       16
 70
   128
 43
0.0
 10
13.9072509015
 20
211.2086809635
 10
12.1643412159
 20
209.9782677007
 10
10.5179591632
 20
208.6845310599
 10
8.9762288984
 20
207.3328579256
 10
7.5472745766
 20
205.9286351824
 10
6.5089327761
 20
204.7919612847
 10
5.54916897
 20
203.6287845767
 10
4.6719238473
 20
202.4417180115
 10
3.8811380967
 20
201.2333745423
 10
3.1674277306
 20
199.9811501422
 10
2.552031788
 20
198.7122684408
 10
2.0391371817
 20
197.4295056548
 10
1.6329308248
 20
196.1356380013
 10
1.33759963
 20
194.8334416972
 10
1.1573305103
 20
193.5256929592
 10
1.0963103787
 20
192.2151680043
  0
LWPOLYLINE
  5
12E
330
1F
100
AcDbEntity
  8
0
  6
Continuous
 62
     7
100
AcDbPolyline
 90
       13
 70
   128
 43
0.0
 10
1.0963103787
 20
192.2151680043
 10
1.1511688586
 20
190.8930618547
 10
1.3142245307
 20
189.5856004022
 10
1.5831977435
 20
188.2939610435
 10
1.9558088455
 20
187.0193211752
 10
2.4297781851
 20
185.7628581938
 10
3.0028261109
 20
184.5257494961
 10
3.6726729714
 20
183.3091724785
 10
4.5185865234
 20
181.9960570727
 10
5.4758341919
 20
180.7107767648
 10
6.5413817607
 20
179.4548986695
 10
7.7121950137
 20
178.2299899019
 10
8.9852397347
 20
177.0376175767
  0
ARC
  5
12F
330
1F
100
AcDbEntity
  8
0
  6
Continuous
 62
     7
100
AcDbCircle
 10
76.9912976953
 20
150.2746058136
 30
0.0
 40
73.0827114848575
100
AcDbArc
 50
158.5184451
 51
178.0221840327
  0
ARC
  5
130
330
1F
100
AcDbEntity
  8
0
  6
Continuous
 62
     7
100
AcDbCircle
 10
77.2703711726
 20
150.284208817
 30
0.0
 40
73.05967070445746
100
AcDbArc
 50
181.9747104667
 51
201.4846604006
  0
LWPOLYLINE
  5
131
330
1F
100
AcDbEntity
  8
0
  6
Continuous
 62
     7
100
AcDbPolyline
 90
       14
 70
   128
 43
0.0
 10
9.2872037064
 20
123.525949817
 10
8.1257114759
 20
122.4433111448
 10
7.0484800967
 20
121.3336823089
 10
6.0577892205
 20
120.1982380601
 10
5.1559184987
 20
119.0381531493
 10
4.3451475828
 20
117.8546023271
 10
3.6277561243
 20
116.6487603444
 10
3.0060237747
 20
115.421801952
 10
2.5220833067
 20
114.2795432325
 10
2.1221945148
 20
113.1214328373
 10
1.808113311
 20
111.9483756237
 10
1.5815956077
 20
110.7612764488
 10
1.4443973168
 20
109.56104017
 10
1.3982743504
 20
108.3485716443
  0
LWPOLYLINE
  5
132
330
1F
100
AcDbEntity
  8
0
  6
Continuous
 62
     7
100
AcDbPolyline
 90
       16
 70
   128
 43
0.0
 10
1.3982743504
 20
108.3485716443
 10
1.4590300187
 20
107.0409285818
 10
1.6385239788
 20
105.7360291263
 10
1.9325966632
 20
104.436633148
 10
2.3370885044
 20
103.1455005165
 10
2.8478399352
 20
101.865391102
 10
3.4488763835
 20
100.6215408882
 10
4.1444582931
 20
99.3936005475
 10
4.9306449749
 20
98.184184724
 10
5.8034957401
 20
96.9959080619
 10
6.9501368673
 20
95.6124809551
 10
8.2073677027
 20
94.2671299216
 10
9.5685395836
 20
92.9642663441
 10
11.0270038474
 20
91.7083016054
 10
12.5761118314
 20
90.5036470882
 10
14.2092148732
 20
89.3547141754
  0
LWPOLYLINE
  5
133
330
1F
100
AcDbEntity
  8
0
  6
Continuous
 62
     7
100
AcDbPolyline
 90
       16
 70
   128
 43
0.0
 10
16.9681031685
 20
87.877314723
 10
18.988888234
 20
86.8246544021
 10
21.1070929718
 20
85.8249927133
 10
23.3187345297
 20
84.8804298404
 10
25.6198300556
 20
83.9930659671
 10
28.0063966974
 20
83.1650012772
 10
30.4296876889
 20
82.4114758191
 10
32.9278093614
 20
81.7191661435
 10
35.4969884424
 20
81.0900619214
 10
38.1334516595
 20
80.526152824
 10
41.3545949275
 20
79.9425964069
 10
44.6593817224
 20
79.4576134757
 10
48.0414458439
 20
79.0745609691
 10
51.4944210914
 20
78.7967958259
 10
55.0119412645
 20
78.6276749849
 10
58.5876401628
 20
78.5705553848
  0
ARC
  5
134
330
1F
100
AcDbEntity
  8
0
  6
Continuous
 62
     7
100
AcDbCircle
 10
58.6084315982
 20
188.9559796231
 30
0.0
 40
110.3854261963965
100
AcDbArc
 50
269.9892081632
 51
274.5942356037
  0
ARC
  5
135
330
1F
100
AcDbEntity
  8
0
  6
Continuous
 62
     7
100
AcDbCircle
 10
74.4889162836
 20
148.5926407389
 30
0.0
 40
70.02208610467189
100
AcDbArc
 50
264.2307680149
 51
270.0083890438
  0
ARC
  5
136
330
1F
100
AcDbEntity
  8
0
  6
Continuous
 62
     7
100
AcDbCircle
 10
74.5311998399
 20
147.9411596201
 30
0.0
 40
69.37061163038369
100
AcDbArc
 50
269.9735442574
 51
305.9765705846
  0
ARC
  5
137
330
1F
100
AcDbEntity
  8
0
  6
Continuous
 62
     7
100
AcDbCircle
 10
72.1893918891
 20
150.3055421052
 30
0.0
 40
72.61936841963707
100
AcDbArc
 50
308.8346298907
 51
0.0506568603
  0
LWPOLYLINE
  5
138
330
1F
100
AcDbEntity
  8
0
  6
Continuous
 62
     7
100
AcDbPolyline
 90
        3
 70
   128
 43
0.0
 10
144.8090764358
 20
150.3697469865
 10
144.8088733239
 20
150.3792967975
 10
144.808731926
 20
150.3868002204
  0
LWPOLYLINE
  5
139
330
1F
100
AcDbEntity
  8
0
  6
Continuous
 62
     7
100
AcDbPolyline
 90
        3
 70
   128
 43
0.0
 10
144.808731926
 20
150.3868002204
 10
144.808935038
 20
150.3965076129
 10
144.8090764358
 20
150.4040257092
  0
ARC
  5
13A
330
1F
100
AcDbEntity
  8
0
  6
Continuous
 62
     7
100
AcDbCircle
 10
72.1675539677
 20
150.4581317705
 30
0.0
 40
72.64119810846772
100
AcDbArc
 50
359.9573238145
 51
51.1571181235
  0
ARC
  5
13B
330
1F
100
AcDbEntity
  8
0
  6
Continuous
 62
     7
100
AcDbCircle
 10
74.5529409703
 20
152.858008621
 30
0.0
 40
69.37085840880493
100
AcDbArc
 50
54.0234956473
 51
90.0263895106
  0
ARC
  5
13C
330
1F
100
AcDbEntity
  8
0
  6
Continuous
 62
     7
100
AcDbCircle
 10
74.5052857108
 20
152.3488932751
 30
0.0
 40
69.87996816114624
100
AcDbArc
 50
89.9871238878
 51
95.7765122222
  0
ARC
  5
13D
330
1F
100
AcDbEntity
  8
0
  6
Continuous
 62
     7
100
AcDbCircle
 10
58.6279143914
 20
111.8384447925
 30
0.0
 40
110.3904164215129
100
AcDbArc
 50
85.4047549096
 51
90.0095776454
  0
LWPOLYLINE
  5
13E
330
1F
100
AcDbEntity
  8
0
  6
Continuous
 62
     7
100
AcDbPolyline
 90
       17
 70
   128
 43
0.0
 10
228.130981007
 20
134.2610899522
 10
231.1926576038
 20
134.3029335449
 10
234.2124435639
 20
134.4270635202
 10
237.1863568001
 20
134.6313786746
 10
240.1104152254
 20
134.9137778041
 10
242.9806367527
 20
135.2721597052
 10
245.7433479151
 20
135.6960684805
 10
248.4465140713
 20
136.1892531179
 10
251.0863626735
 20
136.74972298
 10
253.6591211741
 20
137.3754874296
 10
256.2113118245
 20
138.079263632
 10
258.685709693
 20
138.8468389675
 10
261.0783065136
 20
139.6760984188
 10
263.3850940206
 20
140.5649269686
 10
265.602063948
 20
141.5112095995
 10
267.7252080303
 20
142.5128312943
 10
269.7505180014
 20
143.5676770356
  0
LWPOLYLINE
  5
13F
330
1F
100
AcDbEntity
  8
0
  6
Continuous
 62
     7
100
AcDbPolyline
 90
       16
 70
   128
 43
0.0
 10
272.5096240433
 20
145.0458108262
 10
274.2525337288
 20
146.276224089
 10
275.8989157816
 20
147.5699607299
 10
277.4406460464
 20
148.9216338642
 10
278.8696003682
 20
150.3258566074
 10
279.9079421687
 20
151.462530505
 10
280.8677059747
 20
152.625707213
 10
281.7449510975
 20
153.8127737782
 10
282.535736848
 20
155.0211172474
 10
283.2494472142
 20
156.2733416475
 10
283.8648431568
 20
157.542223349
 10
284.3777377631
 20
158.8249861349
 10
284.78394412
 20
160.1188537884
 10
285.0792753148
 20
161.4210500926
 10
285.2595444344
 20
162.7287988305
 10
285.3205645661
 20
164.0393237854
  0
LWPOLYLINE
  5
140
330
1F
100
AcDbEntity
  8
0
  6
Continuous
 62
     7
100
AcDbPolyline
 90
       13
 70
   128
 43
0.0
 10
285.3205645661
 20
164.0393237854
 10
285.2657060862
 20
165.3614300232
 10
285.102650414
 20
166.6688920931
 10
284.8336772013
 20
167.9605331275
 10
284.4610660993
 20
169.235176259
 10
283.9870967597
 20
170.4916446202
 10
283.4140488338
 20
171.7287613437
 10
282.7442019734
 20
172.9453495619
 10
281.8982884214
 20
174.2584815872
 10
280.9410407529
 20
175.543783701
 10
279.8754931841
 20
176.7996894927
 10
278.7046799311
 20
178.0246325519
 10
277.4316352101
 20
179.2170464679
  0
ARC
  5
141
330
1F
100
AcDbEntity
  8
0
  6
Continuous
 62
     7
100
AcDbCircle
 10
209.430598454
 20
205.9785325229
 30
0.0
 40
73.07748036012075
100
AcDbArc
 50
338.5181165491
 51
358.0229690583
  0
ARC
  5
142
330
1F
100
AcDbEntity
  8
0
  6
Continuous
 62
     7
100
AcDbCircle
 10
209.6144504547
 20
206.1127913173
 30
0.0
 40
73.05564013523438
100
AcDbArc
 50
1.9737906263
 51
21.4847996049
  0
LWPOLYLINE
  5
143
330
1F
100
AcDbEntity
  8
0
  6
Continuous
 62
     7
100
AcDbPolyline
 90
       14
 70
   128
 43
0.0
 10
277.5938024054
 20
232.8697392736
 10
278.7552946359
 20
233.9523779458
 10
279.832526015
 20
235.0620067817
 10
280.8232168913
 20
236.1974510305
 10
281.7250876131
 20
237.3575359413
 10
282.535858529
 20
238.5410867635
 10
283.2532499875
 20
239.7469287462
 10
283.8749823371
 20
240.9738871386
 10
284.3589228051
 20
242.1161458581
 10
284.758811597
 20
243.2742562533
 10
285.0728928007
 20
244.4473134669
 10
285.2994105041
 20
245.6344126418
 10
285.436608795
 20
246.8346489206
 10
285.4827317614
 20
248.0471174463
  0
LWPOLYLINE
  5
144
330
1F
100
AcDbEntity
  8
0
  6
Continuous
 62
     7
100
AcDbPolyline
 90
       16
 70
   128
 43
0.0
 10
285.4827317614
 20
248.0471174463
 10
285.421976093
 20
249.3547889821
 10
285.242482133
 20
250.6597095444
 10
284.9484094486
 20
251.9591200283
 10
284.5439176074
 20
253.2502613289
 10
284.0331661766
 20
254.5303743412
 10
283.4321297282
 20
255.7742238922
 10
282.7365478187
 20
257.0021601411
 10
281.9503611368
 20
258.2115691682
 10
281.0775103716
 20
259.3998370543
 10
279.9308692444
 20
260.7832521371
 10
278.6736384091
 20
262.1285905908
 10
277.3124665282
 20
263.4314422554
 10
275.8540022644
 20
264.687396971
 10
274.3048942803
 20
265.8920445776
 10
272.6717912386
 20
267.0409749152
  0
LWPOLYLINE
  5
145
330
1F
100
AcDbEntity
  8
0
  6
Continuous
 62
     7
100
AcDbPolyline
 90
       16
 70
   128
 43
0.0
 10
269.9128303613
 20
268.5186191557
 10
267.8920472011
 20
269.5712205822
 10
265.7738476694
 20
270.5708345536
 10
263.5622138532
 20
271.5153598663
 10
261.2611278398
 20
272.4026953164
 10
258.8745717161
 20
273.2307397003
 10
256.4512912936
 20
273.9842521289
 10
253.9531796976
 20
274.6765546546
 10
251.3840094756
 20
275.30565664
 10
248.7475531755
 20
275.8695674476
 10
245.526414605
 20
276.4531297069
 10
242.2216275052
 20
276.938121074
 10
238.8395568538
 20
277.32118298
 10
235.3865676286
 20
277.5989568556
 10
231.8690248071
 20
277.7680841316
 10
228.293293367
 20
277.825206239
  0
ARC
  5
146
330
1F
100
AcDbEntity
  8
0
  6
Continuous
 62
     7
100
AcDbCircle
 10
228.2714252562
 20
167.5200856954
 30
0.0
 40
110.3051227113373
100
AcDbArc
 50
89.9886410492
 51
94.5970263957
  0
ARC
  5
147
330
1F
100
AcDbEntity
  8
0
  6
Continuous
 62
     7
100
AcDbCircle
 10
212.395170271
 20
207.8995749663
 30
0.0
 40
69.92563255764188
100
AcDbArc
 50
84.225379744
 51
90.0109841461
  0
ARC
  5
148
330
1F
100
AcDbEntity
  8
0
  6
Continuous
 62
     7
100
AcDbCircle
 10
212.3496274296
 20
208.4549295241
 30
0.0
 40
69.37028415909349
100
AcDbArc
 50
89.9734563678
 51
125.9766584743
  0
ARC
  5
149
330
1F
100
AcDbEntity
  8
0
  6
Continuous
 62
     7
100
AcDbCircle
 10
214.6922850746
 20
206.0899217172
 30
0.0
 40
72.62018622653794
100
AcDbArc
 50
128.8349389913
 51
180.0504834155
  0
LWPOLYLINE
  5
14A
330
1F
100
AcDbEntity
  8
0
  6
Continuous
 62
     7
100
AcDbPolyline
 90
        3
 70
   128
 43
0.0
 10
142.0717825273
 20
206.0259359473
 10
142.0719856393
 20
206.0164119111
 10
142.0721270371
 20
206.0087104585
  0
LWPOLYLINE
  5
14B
330
1F
100
AcDbEntity
  8
0
  6
Continuous
 62
     7
100
AcDbPolyline
 90
        3
 70
   128
 43
0.0
 10
142.0721270371
 20
206.0087104585
 10
142.0719239252
 20
205.9991864223
 10
142.0717825273
 20
205.9914849697
  0
ARC
  5
14C
330
1F
100
AcDbEntity
  8
0
  6
Continuous
 62
     7
100
AcDbCircle
 10
214.7132087289
 20
205.937504964
 30
0.0
 40
72.641101748207
100
AcDbArc
 50
179.9574231844
 51
231.1571544087
  0
ARC
  5
14D
330
1F
100
AcDbEntity
  8
0
  6
Continuous
 62
     7
100
AcDbCircle
 10
212.1875014064
 20
203.631941003
 30
0.0
 40
69.37085840880466
100
AcDbArc
 50
234.0234956473
 51
270.0263895106
  0
ARC
  5
14E
330
1F
100
AcDbEntity
  8
0
  6
Continuous
 62
     7
100
AcDbCircle
 10
212.2351566659
 20
204.1410563488
 30
0.0
 40
69.8799681611551
100
AcDbArc
 50
269.9871238878
 51
275.7765122222
  0
ARC
  5
14F
330
1F
100
AcDbEntity
  8
0
  6
Continuous
 62
     7
100
AcDbCircle
 10
228.1126347366
 20
244.6541710228
 30
0.0
 40
110.3930825950913
100
AcDbArc
 50
265.4048105466
 51
270.0095220085
  0
ARC
  5
150
330
1F
100
AcDbEntity
  8
0
  6
Continuous
 62
     7
100
AcDbCircle
 10
126.3669521899
 20
133.9520715843
 30
0.0
 40
5.996890162798506
100
AcDbArc
 50
359.9704497583
 51
90.0295502417
  0
ARC
  5
151
330
1F
100
AcDbEntity
  8
0
  6
Continuous
 62
     7
100
AcDbCircle
 10
126.3600406736
 20
133.9527973206
 30
0.0
 40
5.996164844890599
100
AcDbArc
 50
89.9635114791
 51
180.0364885209
  0
ARC
  5
152
330
1F
100
AcDbEntity
  8
0
  6
Continuous
 62
     7
100
AcDbCircle
 10
126.3604070608
 20
133.9455264552
 30
0.0
 40
5.996531009918119
100
AcDbArc
 50
179.9670144722
 51
270.0329855278
  0
ARC
  5
153
330
1F
100
AcDbEntity
  8
0
  6
Continuous
 62
     7
100
AcDbCircle
 10
126.3665821094
 20
133.9462558848
 30
0.0
 40
5.997260063866974
100
AcDbArc
 50
269.9739872049
 51
0.0260127951
  0
ARC
  5
154
330
1F
100
AcDbEntity
  8
0
  6
Continuous
 62
     7
100
AcDbCircle
 10
126.3669521899
 20
167.1283629935
 30
0.0
 40
5.996890162798364
100
AcDbArc
 50
359.9704497583
 51
90.0295502417
  0
ARC
  5
155
330
1F
100
AcDbEntity
  8
0
  6
Continuous
 62
     7
100
AcDbCircle
 10
126.3600406736
 20
167.1290887298
 30
0.0
 40
5.996164844890485
100
AcDbArc
 50
89.9635114791
 51
180.0364885209
  0
ARC
  5
156
330
1F
100
AcDbEntity
  8
0
  6
Continuous
 62
     7
100
AcDbCircle
 10
126.3604070608
 20
167.1218178644
 30
0.0
 40
5.996531009918218
100
AcDbArc
 50
179.9670144722
 51
270.0329855278
  0
ARC
  5
157
330
1F
100
AcDbEntity
  8
0
  6
Continuous
 62
     7
100
AcDbCircle
 10
126.3665821094
 20
167.122547294
 30
0.0
 40
5.997260063866945
100
AcDbArc
 50
269.9739872049
 51
0.0260127952
  0
ARC
  5
158
330
1F
100
AcDbEntity
  8
0
  6
Continuous
 62
     7
100
AcDbCircle
 10
240.5643200271
 20
124.1523777771
 30
0.0
 40
5.745135225041399
100
AcDbArc
 50
265.5570472769
 51
4.4429527231
  0
ARC
  5
159
330
1F
100
AcDbEntity
  8
0
  6
Continuous
 62
     7
100
AcDbCircle
 10
240.12254071
 20
124.6007090763
 30
0.0
 40
6.16965104134689
100
AcDbArc
 50
359.9695768087
 51
90.0304231913
  0
ARC
  5
15A
330
1F
100
AcDbEntity
  8
0
  6
Continuous
 62
     7
100
AcDbCircle
 10
161.4704722516
 20
222.2392217471
 30
0.0
 40
5.997260063867015
100
AcDbArc
 50
89.9739872049
 51
180.0260127951
  0
ARC
  5
15B
330
1F
100
AcDbEntity
  8
0
  6
Continuous
 62
     7
100
AcDbCircle
 10
161.4766473001
 20
222.2399511767
 30
0.0
 40
5.996531009918204
100
AcDbArc
 50
359.9670144722
 51
90.0329855278
  0
ARC
  5
15C
330
1F
100
AcDbEntity
  8
0
  6
Continuous
 62
     7
100
AcDbCircle
 10
161.4770136874
 20
222.2326803113
 30
0.0
 40
5.99616484489057
100
AcDbArc
 50
269.9635114791
 51
0.0364885209
  0
ARC
  5
15D
330
1F
100
AcDbEntity
  8
0
  6
Continuous
 62
     7
100
AcDbCircle
 10
161.470102171
 20
222.2334060475
 30
0.0
 40
5.996890162798477
100
AcDbArc
 50
179.9704497583
 51
270.0295502417
  0
ARC
  5
15E
330
1F
100
AcDbEntity
  8
0
  6
Continuous
 62
     7
100
AcDbCircle
 10
161.470102171
 20
189.0571146384
 30
0.0
 40
5.996890162798335
100
AcDbArc
 50
179.9704497583
 51
270.0295502417
  0
ARC
  5
15F
330
1F
100
AcDbEntity
  8
0
  6
Continuous
 62
     7
100
AcDbCircle
 10
161.4770136874
 20
189.0563889021
 30
0.0
 40
5.996164844890542
100
AcDbArc
 50
269.9635114791
 51
0.0364885209
  0
ARC
  5
160
330
1F
100
AcDbEntity
  8
0
  6
Continuous
 62
     7
100
AcDbCircle
 10
161.4766473001
 20
189.0636597675
 30
0.0
 40
5.996531009918147
100
AcDbArc
 50
359.9670144722
 51
90.0329855278
  0
ARC
  5
161
330
1F
100
AcDbEntity
  8
0
  6
Continuous
 62
     7
100
AcDbCircle
 10
161.4704722516
 20
189.0629303379
 30
0.0
 40
5.997260063866931
100
AcDbArc
 50
89.9739872048
 51
180.0260127952
  0
LINE
  5
162
330
1F
100
AcDbEntity
  8
0
  6
Continuous
 62
     7
100
AcDbLine
 10
320.7039204605
 20
126.1784376216
 30
0.0
 11
320.7039204605
 21
126.1743035043
 31
0.0
  0
LINE
  5
163
330
1F
100
AcDbEntity
  8
0
  6
Continuous
 62
     7
100
AcDbLine
 10
320.7039204605
 20
126.1743035043
 30
0.0
 11
320.8039293329
 21
126.1743035043
 31
0.0
  0
LINE
  5
164
330
1F
100
AcDbEntity
  8
0
  6
Continuous
 62
     7
100
AcDbLine
 10
320.8039293329
 20
126.1743035043
 30
0.0
 11
320.8039293329
 21
120.5133188684
 31
0.0
  0
LINE
  5
165
330
1F
100
AcDbEntity
  8
0
  6
Continuous
 62
     7
100
AcDbLine
 10
320.8039293329
 20
120.5133188684
 30
0.0
 11
350.2680268705
 21
120.5133188684
 31
0.0
  0
LINE
  5
166
330
1F
100
AcDbEntity
  8
0
  6
Continuous
 62
     7
100
AcDbLine
 10
350.2680268705
 20
120.5133188684
 30
0.0
 11
350.2680268705
 21
126.1887729148
 31
0.0
  0
LINE
  5
167
330
1F
100
AcDbEntity
  8
0
  6
Continuous
 62
     7
100
AcDbLine
 10
350.2680268705
 20
126.1887729148
 30
0.0
 11
353.7679016828
 21
126.1887729148
 31
0.0
  0
LINE
  5
168
330
1F
100
AcDbEntity
  8
0
  6
Continuous
 62
     7
100
AcDbLine
 10
353.7679016828
 20
126.1887729148
 30
0.0
 11
353.7679016828
 21
126.1005784122
 31
0.0
  0
LINE
  5
169
330
1F
100
AcDbEntity
  8
0
  6
Continuous
 62
     7
100
AcDbLine
 10
353.7679016828
 20
126.1005784122
 30
0.0
 11
353.3680268705
 21
126.1005784122
 31
0.0
  0
LINE
  5
16A
330
1F
100
AcDbEntity
  8
0
  6
Continuous
 62
     7
100
AcDbLine
 10
353.3680268705
 20
126.1005784122
 30
0.0
 11
353.3680268705
 21
120.5133188684
 31
0.0
  0
LINE
  5
16B
330
1F
100
AcDbEntity
  8
0
  6
Continuous
 62
     7
100
AcDbLine
 10
353.3680268705
 20
120.5133188684
 30
0.0
 11
378.6906001383
 21
120.5133188684
 31
0.0
  0
LINE
  5
16C
330
1F
100
AcDbEntity
  8
0
  6
Continuous
 62
     7
100
AcDbLine
 10
378.6906001383
 20
120.5133188684
 30
0.0
 11
378.6906001383
 21
126.4092591714
 31
0.0
  0
LINE
  5
16D
330
1F
100
AcDbEntity
  8
0
  6
Continuous
 62
     7
100
AcDbLine
 10
378.6906001383
 20
126.4092591714
 30
0.0
 11
381.7906001383
 21
126.4092591714
 31
0.0
  0
LINE
  5
16E
330
1F
100
AcDbEntity
  8
0
  6
Continuous
 62
     7
100
AcDbLine
 10
381.7906001383
 20
126.4092591714
 30
0.0
 11
381.7906001383
 21
126.2308031075
 31
0.0
  0
LINE
  5
16F
330
1F
100
AcDbEntity
  8
0
  6
Continuous
 62
     7
100
AcDbLine
 10
381.7906001383
 20
126.2308031075
 30
0.0
 11
381.7906001383
 21
120.5133188684
 31
0.0
  0
LINE
  5
170
330
1F
100
AcDbEntity
  8
0
  6
Continuous
 62
     7
100
AcDbLine
 10
381.7906001383
 20
120.5133188684
 30
0.0
 11
384.7319235667
 21
120.5133188684
 31
0.0
  0
LINE
  5
171
330
1F
100
AcDbEntity
  8
0
  6
Continuous
 62
     7
100
AcDbLine
 10
384.7319235667
 20
120.5133188684
 30
0.0
 11
384.7319235667
 21
130.1082606341
 31
0.0
  0
LINE
  5
172
330
1F
100
AcDbEntity
  8
0
  6
Continuous
 62
     7
100
AcDbLine
 10
384.7319235667
 20
130.1082606341
 30
0.0
 11
315.0580942548
 21
130.1082606341
 31
0.0
  0
LINE
  5
173
330
1F
100
AcDbEntity
  8
0
  6
Continuous
 62
     7
100
AcDbLine
 10
315.0580942548
 20
130.1082606341
 30
0.0
 11
315.0580942548
 21
120.5133188684
 31
0.0
  0
LINE
  5
174
330
1F
100
AcDbEntity
  8
0
  6
Continuous
 62
     7
100
AcDbLine
 10
315.0580942548
 20
120.5133188684
 30
0.0
 11
317.7039293329
 21
120.5133188684
 31
0.0
  0
LINE
  5
175
330
1F
100
AcDbEntity
  8
0
  6
Continuous
 62
     7
100
AcDbLine
 10
317.7039293329
 20
120.5133188684
 30
0.0
 11
317.7039293329
 21
126.1784376216
 31
0.0
  0
LINE
  5
176
330
1F
100
AcDbEntity
  8
0
  6
Continuous
 62
     7
100
AcDbLine
 10
317.7039293329
 20
126.1784376216
 30
0.0
 11
320.7039204605
 21
126.1784376216
 31
0.0
  0
LINE
  5
177
330
1F
100
AcDbEntity
  8
0
  6
Continuous
 62
     7
100
AcDbLine
 10
320.7039204605
 20
114.2344559496
 30
0.0
 11
320.7039204605
 21
114.2303218323
 31
0.0
  0
LINE
  5
178
330
1F
100
AcDbEntity
  8
0
  6
Continuous
 62
     7
100
AcDbLine
 10
320.7039204605
 20
114.2303218323
 30
0.0
 11
320.8039293329
 21
114.2303218323
 31
0.0
  0
LINE
  5
179
330
1F
100
AcDbEntity
  8
0
  6
Continuous
 62
     7
100
AcDbLine
 10
320.8039293329
 20
114.2303218323
 30
0.0
 11
320.8039293329
 21
108.5693371964
 31
0.0
  0
LINE
  5
17A
330
1F
100
AcDbEntity
  8
0
  6
Continuous
 62
     7
100
AcDbLine
 10
320.8039293329
 20
108.5693371964
 30
0.0
 11
349.765488145
 21
108.5693371964
 31
0.0
  0
LINE
  5
17B
330
1F
100
AcDbEntity
  8
0
  6
Continuous
 62
     7
100
AcDbLine
 10
349.765488145
 20
108.5693371964
 30
0.0
 11
349.765488145
 21
114.2447912429
 31
0.0
  0
LINE
  5
17C
330
1F
100
AcDbEntity
  8
0
  6
Continuous
 62
     7
100
AcDbLine
 10
349.765488145
 20
114.2447912429
 30
0.0
 11
353.2653629573
 21
114.2447912429
 31
0.0
  0
LINE
  5
17D
330
1F
100
AcDbEntity
  8
0
  6
Continuous
 62
     7
100
AcDbLine
 10
353.2653629573
 20
114.2447912429
 30
0.0
 11
353.2653629573
 21
114.1565967403
 31
0.0
  0
LINE
  5
17E
330
1F
100
AcDbEntity
  8
0
  6
Continuous
 62
     7
100
AcDbLine
 10
353.2653629573
 20
114.1565967403
 30
0.0
 11
352.865488145
 21
114.1565967403
 31
0.0
  0
LINE
  5
17F
330
1F
100
AcDbEntity
  8
0
  6
Continuous
 62
     7
100
AcDbLine
 10
352.865488145
 20
114.1565967403
 30
0.0
 11
352.865488145
 21
108.5693371964
 31
0.0
  0
LINE
  5
180
330
1F
100
AcDbEntity
  8
0
  6
Continuous
 62
     7
100
AcDbLine
 10
352.865488145
 20
108.5693371964
 30
0.0
 11
377.762865132
 21
108.5693371964
 31
0.0
  0
LINE
  5
181
330
1F
100
AcDbEntity
  8
0
  6
Continuous
 62
     7
100
AcDbLine
 10
377.762865132
 20
108.5693371964
 30
0.0
 11
377.762865132
 21
114.4652774994
 31
0.0
  0
LINE
  5
182
330
1F
100
AcDbEntity
  8
0
  6
Continuous
 62
     7
100
AcDbLine
 10
377.762865132
 20
114.4652774994
 30
0.0
 11
380.862865132
 21
114.4652774994
 31
0.0
  0
LINE
  5
183
330
1F
100
AcDbEntity
  8
0
  6
Continuous
 62
     7
100
AcDbLine
 10
380.862865132
 20
114.4652774994
 30
0.0
 11
380.862865132
 21
114.2868214355
 31
0.0
  0
LINE
  5
184
330
1F
100
AcDbEntity
  8
0
  6
Continuous
 62
     7
100
AcDbLine
 10
380.862865132
 20
114.2868214355
 30
0.0
 11
380.862865132
 21
108.5693371964
 31
0.0
  0
LINE
  5
185
330
1F
100
AcDbEntity
  8
0
  6
Continuous
 62
     7
100
AcDbLine
 10
380.862865132
 20
108.5693371964
 30
0.0
 11
384.7319235667
 21
108.5693371964
 31
0.0
  0
LINE
  5
186
330
1F
100
AcDbEntity
  8
0
  6
Continuous
 62
     7
100
AcDbLine
 10
384.7319235667
 20
108.5693371964
 30
0.0
 11
384.7319235667
 21
118.1642789621
 31
0.0
  0
LINE
  5
187
330
1F
100
AcDbEntity
  8
0
  6
Continuous
 62
     7
100
AcDbLine
 10
384.7319235667
 20
118.1642789621
 30
0.0
 11
315.0580942548
 21
118.1642789621
 31
0.0
  0
LINE
  5
188
330
1F
100
AcDbEntity
  8
0
  6
Continuous
 62
     7
100
AcDbLine
 10
315.0580942548
 20
118.1642789621
 30
0.0
 11
315.0580942548
 21
108.5693371964
 31
0.0
  0
LINE
  5
189
330
1F
100
AcDbEntity
  8
0
  6
Continuous
 62
     7
100
AcDbLine
 10
315.0580942548
 20
108.5693371964
 30
0.0
 11
317.7039293329
 21
108.5693371964
 31
0.0
  0
LINE
  5
18A
330
1F
100
AcDbEntity
  8
0
  6
Continuous
 62
     7
100
AcDbLine
 10
317.7039293329
 20
108.5693371964
 30
0.0
 11
317.7039293329
 21
114.2344559496
 31
0.0
  0
LINE
  5
18B
330
1F
100
AcDbEntity
  8
0
  6
Continuous
 62
     7
100
AcDbLine
 10
317.7039293329
 20
114.2344559496
 30
0.0
 11
320.7039204605
 21
114.2344559496
 31
0.0
  0
LINE
  5
18C
330
1F
100
AcDbEntity
  8
0
  6
Continuous
 62
     7
100
AcDbLine
 10
320.7037482057
 20
102.8251534497
 30
0.0
 11
320.7037482057
 21
102.8210193324
 31
0.0
  0
LINE
  5
18D
330
1F
100
AcDbEntity
  8
0
  6
Continuous
 62
     7
100
AcDbLine
 10
320.7037482057
 20
102.8210193324
 30
0.0
 11
320.803757078
 21
102.8210193324
 31
0.0
  0
LINE
  5
18E
330
1F
100
AcDbEntity
  8
0
  6
Continuous
 62
     7
100
AcDbLine
 10
320.803757078
 20
102.8210193324
 30
0.0
 11
320.803757078
 21
97.1600346965
 31
0.0
  0
LINE
  5
18F
330
1F
100
AcDbEntity
  8
0
  6
Continuous
 62
     7
100
AcDbLine
 10
320.803757078
 20
97.1600346965
 30
0.0
 11
350.2678546156
 21
97.1600346965
 31
0.0
  0
LINE
  5
190
330
1F
100
AcDbEntity
  8
0
  6
Continuous
 62
     7
100
AcDbLine
 10
350.2678546156
 20
97.1600346965
 30
0.0
 11
350.2678546156
 21
102.835488743
 31
0.0
  0
LINE
  5
191
330
1F
100
AcDbEntity
  8
0
  6
Continuous
 62
     7
100
AcDbLine
 10
350.2678546156
 20
102.835488743
 30
0.0
 11
353.7677294279
 21
102.835488743
 31
0.0
  0
LINE
  5
192
330
1F
100
AcDbEntity
  8
0
  6
Continuous
 62
     7
100
AcDbLine
 10
353.7677294279
 20
102.835488743
 30
0.0
 11
353.7677294279
 21
102.7472942403
 31
0.0
  0
LINE
  5
193
330
1F
100
AcDbEntity
  8
0
  6
Continuous
 62
     7
100
AcDbLine
 10
353.7677294279
 20
102.7472942403
 30
0.0
 11
353.3678546156
 21
102.7472942403
 31
0.0
  0
LINE
  5
194
330
1F
100
AcDbEntity
  8
0
  6
Continuous
 62
     7
100
AcDbLine
 10
353.3678546156
 20
102.7472942403
 30
0.0
 11
353.3678546156
 21
97.1600346965
 31
0.0
  0
LINE
  5
195
330
1F
100
AcDbEntity
  8
0
  6
Continuous
 62
     7
100
AcDbLine
 10
353.3678546156
 20
97.1600346965
 30
0.0
 11
378.2652316026
 21
97.1600346965
 31
0.0
  0
LINE
  5
196
330
1F
100
AcDbEntity
  8
0
  6
Continuous
 62
     7
100
AcDbLine
 10
378.2652316026
 20
97.1600346965
 30
0.0
 11
378.2652316026
 21
103.0559749995
 31
0.0
  0
LINE
  5
197
330
1F
100
AcDbEntity
  8
0
  6
Continuous
 62
     7
100
AcDbLine
 10
378.2652316026
 20
103.0559749995
 30
0.0
 11
381.3652316026
 21
103.0559749995
 31
0.0
  0
LINE
  5
198
330
1F
100
AcDbEntity
  8
0
  6
Continuous
 62
     7
100
AcDbLine
 10
381.3652316026
 20
103.0559749995
 30
0.0
 11
381.3652316026
 21
102.8775189356
 31
0.0
  0
LINE
  5
199
330
1F
100
AcDbEntity
  8
0
  6
Continuous
 62
     7
100
AcDbLine
 10
381.3652316026
 20
102.8775189356
 30
0.0
 11
381.3652316026
 21
97.1600346965
 31
0.0
  0
LINE
  5
19A
330
1F
100
AcDbEntity
  8
0
  6
Continuous
 62
     7
100
AcDbLine
 10
381.3652316026
 20
97.1600346965
 30
0.0
 11
384.7317513118
 21
97.1600346965
 31
0.0
  0
LINE
  5
19B
330
1F
100
AcDbEntity
  8
0
  6
Continuous
 62
     7
100
AcDbLine
 10
384.7317513118
 20
97.1600346965
 30
0.0
 11
384.7317513118
 21
106.7549764622
 31
0.0
  0
LINE
  5
19C
330
1F
100
AcDbEntity
  8
0
  6
Continuous
 62
     7
100
AcDbLine
 10
384.7317513118
 20
106.7549764622
 30
0.0
 11
315.0579219999
 21
106.7549764622
 31
0.0
  0
LINE
  5
19D
330
1F
100
AcDbEntity
  8
0
  6
Continuous
 62
     7
100
AcDbLine
 10
315.0579219999
 20
106.7549764622
 30
0.0
 11
315.0579219999
 21
97.1600346965
 31
0.0
  0
LINE
  5
19E
330
1F
100
AcDbEntity
  8
0
  6
Continuous
 62
     7
100
AcDbLine
 10
315.0579219999
 20
97.1600346965
 30
0.0
 11
317.703757078
 21
97.1600346965
 31
0.0
  0
LINE
  5
19F
330
1F
100
AcDbEntity
  8
0
  6
Continuous
 62
     7
100
AcDbLine
 10
317.703757078
 20
97.1600346965
 30
0.0
 11
317.703757078
 21
102.8251534497
 31
0.0
  0
LINE
  5
1A0
330
1F
100
AcDbEntity
  8
0
  6
Continuous
 62
     7
100
AcDbLine
 10
317.703757078
 20
102.8251534497
 30
0.0
 11
320.7037482057
 21
102.8251534497
 31
0.0
  0
LINE
  5
1A1
330
1F
100
AcDbEntity
  8
0
  6
Continuous
 62
     7
100
AcDbLine
 10
371.5167008221
 20
106.5642903013
 30
0.0
 11
368.2414463836
 21
106.5642903013
 31
0.0
  0
LINE
  5
1A2
330
1F
100
AcDbEntity
  8
0
  6
Continuous
 62
     7
100
AcDbLine
 10
320.7037482057
 20
90.8811717777
 30
0.0
 11
320.7037482057
 21
90.8770376604
 31
0.0
  0
LINE
  5
1A3
330
1F
100
AcDbEntity
  8
0
  6
Continuous
 62
     7
100
AcDbLine
 10
320.7037482057
 20
90.8770376604
 30
0.0
 11
320.803757078
 21
90.8770376604
 31
0.0
  0
LINE
  5
1A4
330
1F
100
AcDbEntity
  8
0
  6
Continuous
 62
     7
100
AcDbLine
 10
320.803757078
 20
90.8770376604
 30
0.0
 11
320.803757078
 21
85.2160530245
 31
0.0
  0
LINE
  5
1A5
330
1F
100
AcDbEntity
  8
0
  6
Continuous
 62
     7
100
AcDbLine
 10
320.803757078
 20
85.2160530245
 30
0.0
 11
350.2678546156
 21
85.2160530245
 31
0.0
  0
LINE
  5
1A6
330
1F
100
AcDbEntity
  8
0
  6
Continuous
 62
     7
100
AcDbLine
 10
350.2678546156
 20
85.2160530245
 30
0.0
 11
350.2678546156
 21
90.891507071
 31
0.0
  0
LINE
  5
1A7
330
1F
100
AcDbEntity
  8
0
  6
Continuous
 62
     7
100
AcDbLine
 10
350.2678546156
 20
90.891507071
 30
0.0
 11
353.7677294279
 21
90.891507071
 31
0.0
  0
LINE
  5
1A8
330
1F
100
AcDbEntity
  8
0
  6
Continuous
 62
     7
100
AcDbLine
 10
353.7677294279
 20
90.891507071
 30
0.0
 11
353.7677294279
 21
90.8033125684
 31
0.0
  0
LINE
  5
1A9
330
1F
100
AcDbEntity
  8
0
  6
Continuous
 62
     7
100
AcDbLine
 10
353.7677294279
 20
90.8033125684
 30
0.0
 11
353.3678546156
 21
90.8033125684
 31
0.0
  0
LINE
  5
1AA
330
1F
100
AcDbEntity
  8
0
  6
Continuous
 62
     7
100
AcDbLine
 10
353.3678546156
 20
90.8033125684
 30
0.0
 11
353.3678546156
 21
85.2160530245
 31
0.0
  0
LINE
  5
1AB
330
1F
100
AcDbEntity
  8
0
  6
Continuous
 62
     7
100
AcDbLine
 10
353.3678546156
 20
85.2160530245
 30
0.0
 11
378.6904278835
 21
85.2160530245
 31
0.0
  0
LINE
  5
1AC
330
1F
100
AcDbEntity
  8
0
  6
Continuous
 62
     7
100
AcDbLine
 10
378.6904278835
 20
85.2160530245
 30
0.0
 11
378.6904278835
 21
91.1119933275
 31
0.0
  0
LINE
  5
1AD
330
1F
100
AcDbEntity
  8
0
  6
Continuous
 62
     7
100
AcDbLine
 10
378.6904278835
 20
91.1119933275
 30
0.0
 11
381.7904278835
 21
91.1119933275
 31
0.0
  0
LINE
  5
1AE
330
1F
100
AcDbEntity
  8
0
  6
Continuous
 62
     7
100
AcDbLine
 10
381.7904278835
 20
91.1119933275
 30
0.0
 11
381.7904278835
 21
90.9335372636
 31
0.0
  0
LINE
  5
1AF
330
1F
100
AcDbEntity
  8
0
  6
Continuous
 62
     7
100
AcDbLine
 10
381.7904278835
 20
90.9335372636
 30
0.0
 11
381.7904278835
 21
85.2160530245
 31
0.0
  0
LINE
  5
1B0
330
1F
100
AcDbEntity
  8
0
  6
Continuous
 62
     7
100
AcDbLine
 10
381.7904278835
 20
85.2160530245
 30
0.0
 11
384.7317513118
 21
85.2160530245
 31
0.0
  0
LINE
  5
1B1
330
1F
100
AcDbEntity
  8
0
  6
Continuous
 62
     7
100
AcDbLine
 10
384.7317513118
 20
85.2160530245
 30
0.0
 11
384.7317513118
 21
94.8109947902
 31
0.0
  0
LINE
  5
1B2
330
1F
100
AcDbEntity
  8
0
  6
Continuous
 62
     7
100
AcDbLine
 10
384.7317513118
 20
94.8109947902
 30
0.0
 11
315.0579219999
 21
94.8109947902
 31
0.0
  0
LINE
  5
1B3
330
1F
100
AcDbEntity
  8
0
  6
Continuous
 62
     7
100
AcDbLine
 10
315.0579219999
 20
94.8109947902
 30
0.0
 11
315.0579219999
 21
85.2160530245
 31
0.0
  0
LINE
  5
1B4
330
1F
100
AcDbEntity
  8
0
  6
Continuous
 62
     7
100
AcDbLine
 10
315.0579219999
 20
85.2160530245
 30
0.0
 11
317.703757078
 21
85.2160530245
 31
0.0
  0
LINE
  5
1B5
330
1F
100
AcDbEntity
  8
0
  6
Continuous
 62
     7
100
AcDbLine
 10
317.703757078
 20
85.2160530245
 30
0.0
 11
317.703757078
 21
90.8811717777
 31
0.0
  0
LINE
  5
1B6
330
1F
100
AcDbEntity
  8
0
  6
Continuous
 62
     7
100
AcDbLine
 10
317.703757078
 20
90.8811717777
 30
0.0
 11
320.7037482057
 21
90.8811717777
 31
0.0
  0
LINE
  5
1B7
330
1F
100
AcDbEntity
  8
0
  6
Continuous
 62
     7
100
AcDbLine
 10
419.0891331018
 20
198.3677234797
 30
0.0
 11
419.0891331018
 21
212.159827844
 31
0.0
  0
LINE
  5
1B8
330
1F
100
AcDbEntity
  8
0
  6
Continuous
 62
     7
100
AcDbLine
 10
419.0891331018
 20
212.159827844
 30
0.0
 11
423.0871690499
 21
212.159827844
 31
0.0
  0
LINE
  5
1B9
330
1F
100
AcDbEntity
  8
0
  6
Continuous
 62
     7
100
AcDbLine
 10
423.0871690499
 20
212.159827844
 30
0.0
 11
423.0871690499
 21
198.3677234797
 31
0.0
  0
LINE
  5
1BA
330
1F
100
AcDbEntity
  8
0
  6
Continuous
 62
     7
100
AcDbLine
 10
423.0871690499
 20
198.3677234797
 30
0.0
 11
419.0891331018
 21
198.3677234797
 31
0.0
  0
LINE
  5
1BB
330
1F
100
AcDbEntity
  8
0
  6
Continuous
 62
     7
100
AcDbLine
 10
413.6541468788
 20
200.4795684054
 30
0.0
 11
413.6541468788
 21
210.4796536674
 31
0.0
  0
LINE
  5
1BC
330
1F
100
AcDbEntity
  8
0
  6
Continuous
 62
     7
100
AcDbLine
 10
413.6541468788
 20
210.4796536674
 30
0.0
 11
416.7541468788
 21
210.4796536674
 31
0.0
  0
LINE
  5
1BD
330
1F
100
AcDbEntity
  8
0
  6
Continuous
 62
     7
100
AcDbLine
 10
416.7541468788
 20
210.4796536674
 30
0.0
 11
416.7541468788
 21
200.4795684054
 31
0.0
  0
LINE
  5
1BE
330
1F
100
AcDbEntity
  8
0
  6
Continuous
 62
     7
100
AcDbLine
 10
416.7541468788
 20
200.4795684054
 30
0.0
 11
413.6541468788
 21
200.4795684054
 31
0.0
  0
LINE
  5
1BF
330
1F
100
AcDbEntity
  8
0
  6
Continuous
 62
     7
100
AcDbLine
 10
311.9032856348
 20
239.2641344547
 30
0.0
 11
311.9032856348
 21
229.2637046829
 31
0.0
  0
LINE
  5
1C0
330
1F
100
AcDbEntity
  8
0
  6
Continuous
 62
     7
100
AcDbLine
 10
311.9032856348
 20
229.2637046829
 30
0.0
 11
308.8032856348
 21
229.2637046829
 31
0.0
  0
LINE
  5
1C1
330
1F
100
AcDbEntity
  8
0
  6
Continuous
 62
     7
100
AcDbLine
 10
308.8032856348
 20
229.2637046829
 30
0.0
 11
308.8032856348
 21
239.2641344547
 31
0.0
  0
LINE
  5
1C2
330
1F
100
AcDbEntity
  8
0
  6
Continuous
 62
     7
100
AcDbLine
 10
308.8032856348
 20
239.2641344547
 30
0.0
 11
311.9032856348
 21
239.2641344547
 31
0.0
  0
LINE
  5
1C3
330
1F
100
AcDbEntity
  8
0
  6
Continuous
 62
     7
100
AcDbLine
 10
430.0579955752
 20
205.3871222435
 30
0.0
 11
430.0576510654
 21
205.3871222435
 31
0.0
  0
LINE
  5
1C4
330
1F
100
AcDbEntity
  8
0
  6
Continuous
 62
     7
100
AcDbLine
 10
402.9760820998
 20
262.0193617378
 30
0.0
 11
402.9364634756
 21
261.9656182127
 31
0.0
  0
LINE
  5
1C5
330
1F
100
AcDbEntity
  8
0
  6
Continuous
 62
     7
100
AcDbLine
 10
402.9364634756
 20
261.9656182127
 30
0.0
 11
399.2612331874
 21
256.7359598162
 31
0.0
  0
LINE
  5
1C6
330
1F
100
AcDbEntity
  8
0
  6
Continuous
 62
     7
100
AcDbLine
 10
399.2612331874
 20
256.7359598162
 30
0.0
 11
399.1227402576
 21
256.8331115729
 31
0.0
  0
LINE
  5
1C7
330
1F
100
AcDbEntity
  8
0
  6
Continuous
 62
     7
100
AcDbLine
 10
399.1227402576
 20
256.8331115729
 30
0.0
 11
398.9449732132
 21
256.5940217885
 31
0.0
  0
LINE
  5
1C8
330
1F
100
AcDbEntity
  8
0
  6
Continuous
 62
     7
100
AcDbLine
 10
398.9449732132
 20
256.5940217885
 30
0.0
 11
396.5206421992
 21
258.5260205293
 31
0.0
  0
LINE
  5
1C9
330
1F
100
AcDbEntity
  8
0
  6
Continuous
 62
     7
100
AcDbLine
 10
396.5206421992
 20
258.5260205293
 30
0.0
 11
400.1514307263
 21
263.4132362087
 31
0.0
  0
LINE
  5
1CA
330
1F
100
AcDbEntity
  8
0
  6
Continuous
 62
     7
100
AcDbLine
 10
400.1514307263
 20
263.4132362087
 30
0.0
 11
400.5321140285
 21
263.9548055763
 31
0.0
  0
LINE
  5
1CB
330
1F
100
AcDbEntity
  8
0
  6
Continuous
 62
     7
100
AcDbLine
 10
302.2169477412
 20
267.8798054519
 30
0.0
 11
306.2122276111
 21
262.3910757039
 31
0.0
  0
LINE
  5
1CC
330
1F
100
AcDbEntity
  8
0
  6
Continuous
 62
     7
100
AcDbLine
 10
306.2122276111
 20
262.3910757039
 30
0.0
 11
303.7056472348
 21
260.5670540984
 31
0.0
  0
LINE
  5
1CD
330
1F
100
AcDbEntity
  8
0
  6
Continuous
 62
     7
100
AcDbLine
 10
303.7056472348
 20
260.5670540984
 30
0.0
 11
299.4578416992
 21
266.4016716613
 31
0.0
  0
LINE
  5
1CE
330
1F
100
AcDbEntity
  8
0
  6
Continuous
 62
     7
100
AcDbLine
 10
289.5028872178
 20
207.9900391751
 30
0.0
 11
289.4994421201
 21
207.524606468
 31
0.0
  0
LINE
  5
1CF
330
1F
100
AcDbEntity
  8
0
  6
Continuous
 62
     7
100
AcDbLine
 10
289.4994421201
 20
207.524606468
 30
0.0
 11
289.4994421201
 21
207.5084145085
 31
0.0
  0
LINE
  5
1D0
330
1F
100
AcDbEntity
  8
0
  6
Continuous
 62
     7
100
AcDbLine
 10
289.4994421201
 20
207.5084145085
 30
0.0
 11
289.498064081
 21
207.2837941347
 31
0.0
  0
LINE
  5
1D1
330
1F
100
AcDbEntity
  8
0
  6
Continuous
 62
     7
100
AcDbLine
 10
289.498064081
 20
207.2837941347
 30
0.0
 11
289.4994421201
 21
207.2837941347
 31
0.0
  0
LINE
  5
1D2
330
1F
100
AcDbEntity
  8
0
  6
Continuous
 62
     7
100
AcDbLine
 10
289.4994421201
 20
207.2837941347
 30
0.0
 11
289.4994421201
 21
207.1645937523
 31
0.0
  0
LINE
  5
1D3
330
1F
100
AcDbEntity
  8
0
  6
Continuous
 62
     7
100
AcDbLine
 10
289.4994421201
 20
207.1645937523
 30
0.0
 11
289.5163230991
 21
207.1645937523
 31
0.0
  0
LINE
  5
1D4
330
1F
100
AcDbEntity
  8
0
  6
Continuous
 62
     7
100
AcDbLine
 10
289.5476734887
 20
203.6643744302
 30
0.0
 11
289.8232998804
 21
203.6643744302
 31
0.0
  0
LINE
  5
1D5
330
1F
100
AcDbEntity
  8
0
  6
Continuous
 62
     7
100
AcDbLine
 10
289.8232998804
 20
203.6643744302
 30
0.0
 11
289.8232998804
 21
203.4557092593
 31
0.0
  0
LINE
  5
1D6
330
1F
100
AcDbEntity
  8
0
  6
Continuous
 62
     7
100
AcDbLine
 10
289.8232998804
 20
203.4557092593
 30
0.0
 11
289.4983544093
 21
203.4557092593
 31
0.0
  0
LINE
  5
1D7
330
1F
100
AcDbEntity
  8
0
  6
Continuous
 62
     7
100
AcDbLine
 10
289.4983544093
 20
203.4557092593
 30
0.0
 11
289.4997324485
 21
203.2310888855
 31
0.0
  0
LINE
  5
1D8
330
1F
100
AcDbEntity
  8
0
  6
Continuous
 62
     7
100
AcDbLine
 10
289.4997324485
 20
203.2310888855
 30
0.0
 11
289.4997324485
 21
203.214896926
 31
0.0
  0
LINE
  5
1D9
330
1F
100
AcDbEntity
  8
0
  6
Continuous
 62
     7
100
AcDbLine
 10
289.4997324485
 20
203.214896926
 30
0.0
 11
289.5031775462
 21
202.7494642189
 31
0.0
  0
LINE
  5
1DA
330
1F
100
AcDbEntity
  8
0
  6
Continuous
 62
     7
100
AcDbLine
 10
299.4581320276
 20
144.3374872229
 30
0.0
 11
303.7059375632
 21
150.1727938054
 31
0.0
  0
LINE
  5
1DB
330
1F
100
AcDbEntity
  8
0
  6
Continuous
 62
     7
100
AcDbLine
 10
303.7059375632
 20
150.1727938054
 30
0.0
 11
306.2122276111
 21
148.3483732958
 31
0.0
  0
LINE
  5
1DC
330
1F
100
AcDbEntity
  8
0
  6
Continuous
 62
     7
100
AcDbLine
 10
306.2122276111
 20
148.3483732958
 30
0.0
 11
302.2169477412
 21
142.8603325673
 31
0.0
  0
LINE
  5
1DD
330
1F
100
AcDbEntity
  8
0
  6
Continuous
 62
     7
100
AcDbLine
 10
400.5321140285
 20
146.785332443
 30
0.0
 11
400.1514307263
 21
147.3269018105
 31
0.0
  0
LINE
  5
1DE
330
1F
100
AcDbEntity
  8
0
  6
Continuous
 62
     7
100
AcDbLine
 10
400.1514307263
 20
147.3269018105
 30
0.0
 11
396.5206421992
 21
152.21411749
 31
0.0
  0
LINE
  5
1DF
330
1F
100
AcDbEntity
  8
0
  6
Continuous
 62
     7
100
AcDbLine
 10
396.5206421992
 20
152.21411749
 30
0.0
 11
398.9449732132
 21
154.1461162307
 31
0.0
  0
LINE
  5
1E0
330
1F
100
AcDbEntity
  8
0
  6
Continuous
 62
     7
100
AcDbLine
 10
398.9449732132
 20
154.1461162307
 30
0.0
 11
399.1227402576
 21
153.9070264463
 31
0.0
  0
LINE
  5
1E1
330
1F
100
AcDbEntity
  8
0
  6
Continuous
 62
     7
100
AcDbLine
 10
399.1227402576
 20
153.9070264463
 30
0.0
 11
399.2612331874
 21
154.0045227128
 31
0.0
  0
LINE
  5
1E2
330
1F
100
AcDbEntity
  8
0
  6
Continuous
 62
     7
100
AcDbLine
 10
399.2612331874
 20
154.0045227128
 30
0.0
 11
402.9364634756
 21
148.7745198065
 31
0.0
  0
LINE
  5
1E3
330
1F
100
AcDbEntity
  8
0
  6
Continuous
 62
     7
100
AcDbLine
 10
402.9364634756
 20
148.7745198065
 30
0.0
 11
402.9760820998
 21
148.7211207912
 31
0.0
  0
LINE
  5
1E4
330
1F
100
AcDbEntity
  8
0
  6
Continuous
 62
     7
100
AcDbLine
 10
430.0576510654
 20
205.3530157757
 30
0.0
 11
430.0579955752
 21
205.3530157757
 31
0.0
  0
LINE
  5
1E5
330
1F
100
AcDbEntity
  8
0
  6
Continuous
 62
     7
100
AcDbLine
 10
311.9032856348
 20
181.5456556374
 30
0.0
 11
311.9032856348
 21
171.5452258656
 31
0.0
  0
LINE
  5
1E6
330
1F
100
AcDbEntity
  8
0
  6
Continuous
 62
     7
100
AcDbLine
 10
311.9032856348
 20
171.5452258656
 30
0.0
 11
308.8032856348
 21
171.5452258656
 31
0.0
  0
LINE
  5
1E7
330
1F
100
AcDbEntity
  8
0
  6
Continuous
 62
     7
100
AcDbLine
 10
308.8032856348
 20
171.5452258656
 30
0.0
 11
308.8032856348
 21
181.5456556374
 31
0.0
  0
LINE
  5
1E8
330
1F
100
AcDbEntity
  8
0
  6
Continuous
 62
     7
100
AcDbLine
 10
308.8032856348
 20
181.5456556374
 30
0.0
 11
311.9032856348
 21
181.5456556374
 31
0.0
  0
LINE
  5
1E9
330
1F
100
AcDbEntity
  8
0
  6
Continuous
 62
     7
100
AcDbLine
 10
427.4243796529
 20
217.723440555
 30
0.0
 11
422.3206282182
 21
230.75999383
 31
0.0
  0
LINE
  5
1EA
330
1F
100
AcDbEntity
  8
0
  6
Continuous
 62
     7
100
AcDbLine
 10
422.3206282182
 20
230.75999383
 30
0.0
 11
418.595898711
 21
229.3017791344
 31
0.0
  0
LINE
  5
1EB
330
1F
100
AcDbEntity
  8
0
  6
Continuous
 62
     7
100
AcDbLine
 10
418.595898711
 20
229.3017791344
 30
0.0
 11
423.6996501458
 21
216.2652258594
 31
0.0
  0
LINE
  5
1EC
330
1F
100
AcDbEntity
  8
0
  6
Continuous
 62
     7
100
AcDbLine
 10
423.6996501458
 20
216.2652258594
 30
0.0
 11
427.4243796529
 21
217.723440555
 31
0.0
  0
LINE
  5
1ED
330
1F
100
AcDbEntity
  8
0
  6
Continuous
 62
     7
100
AcDbLine
 10
427.7136305723
 20
192.7872628874
 30
0.0
 11
423.1688235239
 21
179.545483215
 31
0.0
  0
LINE
  5
1EE
330
1F
100
AcDbEntity
  8
0
  6
Continuous
 62
     7
100
AcDbLine
 10
423.1688235239
 20
179.545483215
 30
0.0
 11
419.3854579032
 21
180.8439995146
 31
0.0
  0
LINE
  5
1EF
330
1F
100
AcDbEntity
  8
0
  6
Continuous
 62
     7
100
AcDbLine
 10
419.3854579032
 20
180.8439995146
 30
0.0
 11
423.9302649517
 21
194.085779187
 31
0.0
  0
LINE
  5
1F0
330
1F
100
AcDbEntity
  8
0
  6
Continuous
 62
     7
100
AcDbLine
 10
423.9302649517
 20
194.085779187
 30
0.0
 11
427.7136305723
 21
192.7872628874
 31
0.0
  0
ARC
  5
1F1
330
1F
100
AcDbEntity
  8
0
  6
Continuous
 62
     7
100
AcDbCircle
 10
357.4163768396
 20
205.4413543597
 30
0.0
 40
72.64129446992963
100
AcDbArc
 50
359.9572244453
 51
51.1570818381
  0
ARC
  5
1F2
330
1F
100
AcDbEntity
  8
0
  6
Continuous
 62
     7
100
AcDbCircle
 10
359.7799643362
 20
207.8158859943
 30
0.0
 40
69.3708584088048
100
AcDbArc
 50
54.0234956473
 51
90.0263895106
  0
ARC
  5
1F3
330
1F
100
AcDbEntity
  8
0
  6
Continuous
 62
     7
100
AcDbCircle
 10
359.7323090767
 20
207.3067706485
 30
0.0
 40
69.87996816113115
100
AcDbArc
 50
89.9871238878
 51
95.7765122222
  0
ARC
  5
1F4
330
1F
100
AcDbEntity
  8
0
  6
Continuous
 62
     7
100
AcDbCircle
 10
343.8548310059
 20
166.7936559745
 30
0.0
 40
110.3930825950431
100
AcDbArc
 50
85.4048105466
 51
90.0095220085
  0
LWPOLYLINE
  5
1F5
330
1F
100
AcDbEntity
  8
0
  6
Continuous
 62
     7
100
AcDbPolyline
 90
       17
 70
   128
 43
0.0
 10
343.8364847355
 20
277.186737045
 10
340.7748081388
 20
277.1448933674
 10
337.7550221787
 20
277.0207627971
 10
334.7811089425
 20
276.8164460277
 10
331.8570505172
 20
276.5340437531
 10
328.9868289899
 20
276.175656667
 10
326.2241178275
 20
275.7517403202
 10
323.5209516713
 20
275.2585451683
 10
320.8811030691
 20
274.6980613656
 10
318.3083445685
 20
274.0722790662
 10
315.756153918
 20
273.3684801186
 10
313.2817560496
 20
272.600876951
 10
310.889159229
 20
271.7715840673
 10
308.582371722
 20
270.8827159717
 10
306.3654017945
 20
269.9363871679
 10
304.2422577123
 20
268.93471216
 10
302.2169477412
 20
267.8798054519
  0
LWPOLYLINE
  5
1F6
330
1F
100
AcDbEntity
  8
0
  6
Continuous
 62
     7
100
AcDbPolyline
 90
       16
 70
   128
 43
0.0
 10
299.4578416992
 20
266.4016716613
 10
297.7149320137
 20
265.1712583985
 10
296.068549961
 20
263.8775217577
 10
294.5268196962
 20
262.5258486233
 10
293.0978653743
 20
261.1216258802
 10
292.0595235739
 20
259.9849519825
 10
291.0997597678
 20
258.8217752745
 10
290.2225146451
 20
257.6347087093
 10
289.4317288945
 20
256.4263652401
 10
288.7180185284
 20
255.17414084
 10
288.1026225857
 20
253.9052591385
 10
287.5897279795
 20
252.6224963526
 10
287.1835216225
 20
251.3286286991
 10
286.8881904278
 20
250.0264323949
 10
286.7079213081
 20
248.718683657
 10
286.6469011765
 20
247.4081587021
  0
LWPOLYLINE
  5
1F7
330
1F
100
AcDbEntity
  8
0
  6
Continuous
 62
     7
100
AcDbPolyline
 90
       13
 70
   128
 43
0.0
 10
286.6469011765
 20
247.4081587021
 10
286.7017596564
 20
246.0860526407
 10
286.8648153285
 20
244.7785918056
 10
287.1337885413
 20
243.4869541225
 10
287.5063996433
 20
242.2123175174
 10
287.9803689829
 20
240.9558599159
 10
288.5534169087
 20
239.7187592439
 10
289.2232637692
 20
238.502193427
 10
290.0691773212
 20
237.1890946407
 10
291.0264249897
 20
235.9038361385
 10
292.0919725585
 20
234.6479857398
 10
293.2627858115
 20
233.4231112637
 10
294.5358305324
 20
232.2307805294
  0
ARC
  5
1F8
330
1F
100
AcDbEntity
  8
0
  6
Continuous
 62
     7
100
AcDbCircle
 10
362.5372213384
 20
205.4692567927
 30
0.0
 40
73.07782361459073
100
AcDbArc
 50
158.5181907123
 51
178.0232190565
  0
LWPOLYLINE
  5
1F9
330
1F
100
AcDbEntity
  8
0
  6
Continuous
 62
     7
100
AcDbPolyline
 90
        3
 70
   128
 43
0.0
 10
289.5163230991
 20
207.1645937523
 10
289.4378397814
 20
206.2604329279
 10
289.4177933032
 20
205.5388521203
  0
LWPOLYLINE
  5
1FA
330
1F
100
AcDbEntity
  8
0
  6
Continuous
 62
     7
100
AcDbPolyline
 90
        3
 70
   128
 43
0.0
 10
289.4177933032
 20
205.5388521203
 10
289.4599973713
 20
204.4808630177
 10
289.5476734887
 20
203.6643744302
  0
ARC
  5
1FB
330
1F
100
AcDbEntity
  8
0
  6
Continuous
 62
     7
100
AcDbCircle
 10
362.5154728115
 20
205.2656708209
 30
0.0
 40
73.0556401352371
100
AcDbArc
 50
181.9737906263
 51
201.4847996049
  0
LWPOLYLINE
  5
1FC
330
1F
100
AcDbEntity
  8
0
  6
Continuous
 62
     7
100
AcDbPolyline
 90
       14
 70
   128
 43
0.0
 10
294.5361208608
 20
178.5087228646
 10
293.3746286303
 20
177.4260841923
 10
292.2973972512
 20
176.3164553564
 10
291.3067063749
 20
175.1810111077
 10
290.4048356531
 20
174.0209261968
 10
289.5940647372
 20
172.8373753747
 10
288.8766732787
 20
171.631533392
 10
288.2549409291
 20
170.4045749995
 10
287.7710004611
 20
169.26231628
 10
287.3711116692
 20
168.1042058849
 10
287.0570304655
 20
166.9311486712
 10
286.8305127621
 20
165.7440494964
 10
286.6933144712
 20
164.5438132175
 10
286.6471915049
 20
163.3313446919
  0
LWPOLYLINE
  5
1FD
330
1F
100
AcDbEntity
  8
0
  6
Continuous
 62
     7
100
AcDbPolyline
 90
       16
 70
   128
 43
0.0
 10
286.6471915049
 20
163.3313446919
 10
286.7079471732
 20
162.0237301026
 10
286.8874411332
 20
160.7188517541
 10
287.1815138176
 20
159.4194702812
 10
287.5860056589
 20
158.1283463189
 10
288.0967570896
 20
156.848240502
 10
288.697793538
 20
155.6043896256
 10
289.3933754475
 20
154.376445193
 10
290.1795621294
 20
153.1670225732
 10
291.0524128946
 20
151.978737135
 10
292.1990540218
 20
150.5952980042
 10
293.4562848571
 20
149.2499343909
 10
294.817456738
 20
147.9470589005
 10
296.2759210018
 20
146.6910841387
 10
297.8250289859
 20
145.486422711
 10
299.4581320276
 20
144.3374872229
  0
LWPOLYLINE
  5
1FE
330
1F
100
AcDbEntity
  8
0
  6
Continuous
 62
     7
100
AcDbPolyline
 90
       16
 70
   128
 43
0.0
 10
302.2169477412
 20
142.8603325673
 10
304.2377309014
 20
141.8076702985
 10
306.3559304331
 20
140.8080031062
 10
308.5675642493
 20
139.863431684
 10
310.8686502627
 20
138.9760567258
 10
313.2552063864
 20
138.1479789253
 10
315.6784868089
 20
137.3944391124
 10
318.1765984049
 20
136.7021141032
 10
320.7457686269
 20
136.0729940517
 10
323.382224927
 20
135.5090691123
 10
326.6033634975
 20
134.9254944894
 10
329.9081505973
 20
134.4404948345
 10
333.2902212487
 20
134.0574279016
 10
336.7432104739
 20
133.7796514446
 10
340.2607532954
 20
133.6105232174
 10
343.8364847355
 20
133.5534009742
  0
ARC
  5
1FF
330
1F
100
AcDbEntity
  8
0
  6
Continuous
 62
     7
100
AcDbCircle
 10
343.8583528463
 20
243.8585215178
 30
0.0
 40
110.3051227113261
100
AcDbArc
 50
269.9886410492
 51
274.5970263957
  0
ARC
  5
200
330
1F
100
AcDbEntity
  8
0
  6
Continuous
 62
     7
100
AcDbCircle
 10
359.7392945393
 20
203.5721339239
 30
0.0
 40
70.01873349251034
100
AcDbArc
 50
264.2292294453
 51
270.0071344447
  0
ARC
  5
201
330
1F
100
AcDbEntity
  8
0
  6
Continuous
 62
     7
100
AcDbCircle
 10
359.7801506729
 20
202.9236776891
 30
0.0
 40
69.37028415909346
100
AcDbArc
 50
269.9734563678
 51
305.9766584743
  0
ARC
  5
202
330
1F
100
AcDbEntity
  8
0
  6
Continuous
 62
     7
100
AcDbCircle
 10
357.4384803433
 20
205.2885578682
 30
0.0
 40
72.61919932906355
100
AcDbArc
 50
308.8345657935
 51
0.0508566134
  0
LWPOLYLINE
  5
203
330
1F
100
AcDbEntity
  8
0
  6
Continuous
 62
     7
100
AcDbPolyline
 90
        3
 70
   128
 43
0.0
 10
430.0579955752
 20
205.3530157757
 10
430.0577924632
 20
205.3623366999
 10
430.0576510654
 20
205.3698967547
  0
LWPOLYLINE
  5
204
330
1F
100
AcDbEntity
  8
0
  6
Continuous
 62
     7
100
AcDbPolyline
 90
        3
 70
   128
 43
0.0
 10
430.0576510654
 20
205.3698967547
 10
430.0578541773
 20
205.379532842
 10
430.0579955752
 20
205.3871222435
  0
ARC
  5
205
330
1F
100
AcDbEntity
  8
0
  6
Continuous
 62
     7
100
AcDbCircle
 10
411.6022573405
 20
234.2673753528
 30
0.0
 40
5.996527467023268
100
AcDbArc
 50
359.9669805814
 51
90.0330194186
  0
ARC
  5
206
330
1F
100
AcDbEntity
  8
0
  6
Continuous
 62
     7
100
AcDbCircle
 10
411.595166117
 20
234.2675550082
 30
0.0
 40
5.996347917899191
100
AcDbArc
 50
89.965262965
 51
180.034737035
  0
ARC
  5
207
330
1F
100
AcDbEntity
  8
0
  6
Continuous
 62
     7
100
AcDbCircle
 10
411.5955307686
 20
234.260648781
 30
0.0
 40
5.996712359453702
100
AcDbArc
 50
179.968749152
 51
270.031250848
  0
ARC
  5
208
330
1F
100
AcDbEntity
  8
0
  6
Continuous
 62
     7
100
AcDbCircle
 10
411.60189088
 20
234.2608302452
 30
0.0
 40
5.996893727403996
100
AcDbArc
 50
269.9704838505
 51
0.0295161495
  0
ARC
  5
209
330
1F
100
AcDbEntity
  8
0
  6
Continuous
 62
     7
100
AcDbCircle
 10
313.7111612146
 20
259.6704713182
 30
0.0
 40
5.996527467023324
100
AcDbArc
 50
179.9669805814
 51
270.0330194186
  0
ARC
  5
20A
330
1F
100
AcDbEntity
  8
0
  6
Continuous
 62
     7
100
AcDbCircle
 10
313.7180692377
 20
259.6704748631
 30
0.0
 40
5.996531009918402
100
AcDbArc
 50
269.9670144722
 51
0.0329855278
  0
ARC
  5
20B
330
1F
100
AcDbEntity
  8
0
  6
Continuous
 62
     7
100
AcDbCircle
 10
313.717149116
 20
259.6771479088
 30
0.0
 40
5.997451002732538
100
AcDbArc
 50
359.969230489
 51
90.0241902172
  0
ARC
  5
20C
330
1F
100
AcDbEntity
  8
0
  6
Continuous
 62
     7
100
AcDbCircle
 10
313.7120616756
 20
259.6771711118
 30
0.0
 40
5.997427809598591
100
AcDbArc
 50
89.9755879966
 51
180.0309912972
  0
ARC
  5
20D
330
1F
100
AcDbEntity
  8
0
  6
Continuous
 62
     7
100
AcDbCircle
 10
411.6026018502
 20
176.5488965355
 30
0.0
 40
5.996527467023212
100
AcDbArc
 50
359.9669805814
 51
90.0330194186
  0
ARC
  5
20E
330
1F
100
AcDbEntity
  8
0
  6
Continuous
 62
     7
100
AcDbCircle
 10
411.5953274399
 20
176.5492593778
 30
0.0
 40
5.996164844890457
100
AcDbArc
 50
89.9635114791
 51
180.0364885209
  0
ARC
  5
20F
330
1F
100
AcDbEntity
  8
0
  6
Continuous
 62
     7
100
AcDbCircle
 10
411.5956938271
 20
176.5419885124
 30
0.0
 40
5.996531009918176
100
AcDbArc
 50
179.9670144722
 51
270.0329855278
  0
ARC
  5
210
330
1F
100
AcDbEntity
  8
0
  6
Continuous
 62
     7
100
AcDbCircle
 10
411.6022353898
 20
176.5423514279
 30
0.0
 40
5.996893727403939
100
AcDbArc
 50
269.9704838505
 51
0.0295161495
  0
ARC
  5
211
330
1F
100
AcDbEntity
  8
0
  6
Continuous
 62
     7
100
AcDbCircle
 10
314.6654532935
 20
150.2913735811
 30
0.0
 40
5.996527467023268
100
AcDbArc
 50
179.9669805814
 51
270.0330194186
  0
ARC
  5
212
330
1F
100
AcDbEntity
  8
0
  6
Continuous
 62
     7
100
AcDbCircle
 10
314.6725445169
 20
150.2911939257
 30
0.0
 40
5.996347917899219
100
AcDbArc
 50
269.965262965
 51
0.034737035
  0
ARC
  5
213
330
1F
100
AcDbEntity
  8
0
  6
Continuous
 62
     7
100
AcDbCircle
 10
314.6716226941
 20
150.2982316501
 30
0.0
 40
5.997269603770055
100
AcDbArc
 50
359.9674957784
 51
90.0259249278
  0
ARC
  5
214
330
1F
100
AcDbEntity
  8
0
  6
Continuous
 62
     7
100
AcDbCircle
 10
314.6663537545
 20
150.2980733747
 30
0.0
 40
5.997427809598449
100
AcDbArc
 50
89.9755879966
 51
180.0309912972
  0
ENDSEC
  0
SECTION
  2
OBJECTS
  0
DICTIONARY
  5
C
330
0
100
AcDbDictionary
281
     1
  3
ACAD_GROUP
350
D
  3
ACAD_LAYOUT
350
1A
  3
ACAD_MLEADERSTYLE
350
216
  3
ACAD_MLINESTYLE
350
17
  3
ACAD_PLOTSETTINGS
350
19
  3
ACAD_PLOTSTYLENAME
350
E
  3
ACAD_TABLESTYLE
350
215
  3
ACAD_VISUALSTYLE
350
2A
  3
AcDbVariableDictionary
350
217
  0
DICTIONARY
  5
D
102
{ACAD_REACTORS
330
C
102
}
330
C
100
AcDbDictionary
281
     1
  0
DICTIONARY
  5
1A
102
{ACAD_REACTORS
330
C
102
}
330
C
100
AcDbDictionary
281
     1
  3
Layout1
350
1E
  3
Layout2
350
26
  3
Model
350
22
  0
DICTIONARY
  5
216
102
{ACAD_REACTORS
330
C
102
}
330
C
100
AcDbDictionary
281
     1
  0
DICTIONARY
  5
17
102
{ACAD_REACTORS
330
C
102
}
330
C
100
AcDbDictionary
281
     1
  3
Standard
350
18
  0
DICTIONARY
  5
19
102
{ACAD_REACTORS
330
C
102
}
330
C
100
AcDbDictionary
281
     1
  0
ACDBDICTIONARYWDFLT
  5
E
102
{ACAD_REACTORS
330
C
102
}
330
C
100
AcDbDictionary
281
     1
  3
Normal
350
F
100
AcDbDictionaryWithDefault
340
F
  0
DICTIONARY
  5
215
102
{ACAD_REACTORS
330
C
102
}
330
C
100
AcDbDictionary
281
     1
  0
DICTIONARY
  5
2A
102
{ACAD_REACTORS
330
C
102
}
330
C
100
AcDbDictionary
281
     1
  3
2dWireframe
350
2F
  3
3D Hidden
350
31
  3
3dWireframe
350
30
  3
Basic
350
32
  3
Brighten
350
36
  3
ColorChange
350
3A
  3
Conceptual
350
34
  3
Dim
350
35
  3
Facepattern
350
39
  3
Flat
350
2B
  3
FlatWithEdges
350
2C
  3
Gouraud
350
2D
  3
GouraudWithEdges
350
2E
  3
Linepattern
350
38
  3
Realistic
350
33
  3
Thicken
350
37
  0
DICTIONARY
  5
217
102
{ACAD_REACTORS
330
C
102
}
330
C
100
AcDbDictionary
281
     1
  3
PSOLHEIGHT
350
219
  3
PSOLWIDTH
350
218
  0
LAYOUT
  5
1E
102
{ACAD_REACTORS
330
1A
102
}
330
1A
100
AcDbPlotSettings
  1

  2
none_device
  4

  6

 40
0.0
 41
0.0
 42
0.0
 43
0.0
 44
0.0
 45
0.0
 46
0.0
 47
0.0
 48
0.0
 49
0.0
140
0.0
141
0.0
142
1.0
143
1.0
 70
   688
 72
     0
 73
     0
 74
     5
  7

 75
    16
147
1.0
148
0.0
149
0.0
100
AcDbLayout
  1
Layout1
 70
     1
 71
     1
 10
0.0
 20
0.0
 11
420.0
 21
297.0
 12
0.0
 22
0.0
 32
0.0
 14
1.0000000000E+20
 24
1.0000000000E+20
 34
1.0000000000E+20
 15
-1.0000000000E+20
 25
-1.0000000000E+20
 35
-1.0000000000E+20
146
0.0
 13
0.0
 23
0.0
 33
0.0
 16
1.0
 26
0.0
 36
0.0
 17
0.0
 27
1.0
 37
0.0
 76
     0
330
1B
  0
LAYOUT
  5
26
102
{ACAD_REACTORS
330
1A
102
}
330
1A
100
AcDbPlotSettings
  1

  2
none_device
  4

  6

 40
0.0
 41
0.0
 42
0.0
 43
0.0
 44
0.0
 45
0.0
 46
0.0
 47
0.0
 48
0.0
 49
0.0
140
0.0
141
0.0
142
1.0
143
1.0
 70
   688
 72
     0
 73
     0
 74
     5
  7

 75
    16
147
1.0
148
0.0
149
0.0
100
AcDbLayout
  1
Layout2
 70
     1
 71
     2
 10
0.0
 20
0.0
 11
0.0
 21
0.0
 12
0.0
 22
0.0
 32
0.0
 14
0.0
 24
0.0
 34
0.0
 15
0.0
 25
0.0
 35
0.0
146
0.0
 13
0.0
 23
0.0
 33
0.0
 16
1.0
 26
0.0
 36
0.0
 17
0.0
 27
1.0
 37
0.0
 76
     0
330
23
  0
LAYOUT
  5
22
102
{ACAD_REACTORS
330
1A
102
}
330
1A
100
AcDbPlotSettings
  1

  2
none_device
  4

  6

 40
0.0
 41
0.0
 42
0.0
 43
0.0
 44
0.0
 45
0.0
 46
0.0
 47
0.0
 48
0.0
 49
0.0
140
0.0
141
0.0
142
1.0
143
1.0
 70
  1712
 72
     0
 73
     0
 74
     0
  7

 75
     0
147
1.0
148
0.0
149
0.0
100
AcDbLayout
  1
Model
 70
     1
 71
     0
 10
0.0
 20
0.0
 11
431.8
 21
279.4
 12
0.0
 22
0.0
 32
0.0
 14
0.0
 24
0.0
 34
0.0
 15
431.8
 25
279.4
 35
0.0
146
0.0
 13
0.0
 23
0.0
 33
0.0
 16
1.0
 26
0.0
 36
0.0
 17
0.0
 27
1.0
 37
0.0
 76
     0
330
1F
331
29
  0
MLINESTYLE
  5
18
102
{ACAD_REACTORS
330
17
102
}
330
17
100
AcDbMlineStyle
  2
Standard
 70
     0
  3

 62
   256
 51
90.0
 52
90.0
 71
     2
 49
0.5
 62
   256
  6
BYLAYER
 49
-0.5
 62
   256
  6
BYLAYER
  0
ACDBPLACEHOLDER
  5
F
102
{ACAD_REACTORS
330
E
102
}
330
E
  0
VISUALSTYLE
  5
2F
102
{ACAD_REACTORS
330
2A
102
}
330
2A
100
AcDbVisualStyle
  2
2dWireframe
 70
     4
 71
     0
 72
     2
 73
     0
 90
        0
 40
-0.6
 41
-30.0
 62
     5
 63
     7
 74
     1
 91
        4
 64
     7
 65
   257
 75
     1
175
     1
 42
1.0
 92
        0
 66
   257
 43
1.0
 76
     1
 77
     6
 78
     2
 67
     7
 79
     5
170
     0
171
     0
290
     0
174
     0
 93
        1
 44
0.0
173
     0
291
     0
 45
0.0
1001
ACAD
1000
AcDbSavedByObjectVersion
1070
     0
  0
VISUALSTYLE
  5
31
102
{ACAD_REACTORS
330
2A
102
}
330
2A
100
AcDbVisualStyle
  2
3D Hidden
 70
     6
 71
     1
 72
     2
 73
     2
 90
        0
 40
-0.6
 41
-30.0
 62
     5
 63
     7
 74
     2
 91
        2
 64
     7
 65
   257
 75
     2
175
     1
 42
40.0
 92
        0
 66
   257
 43
1.0
 76
     1
 77
     6
 78
     2
 67
     7
 79
     3
170
     0
171
     0
290
     0
174
     0
 93
        1
 44
0.0
173
     0
291
     0
 45
0.0
1001
ACAD
1000
AcDbSavedByObjectVersion
1070
     0
  0
VISUALSTYLE
  5
30
102
{ACAD_REACTORS
330
2A
102
}
330
2A
100
AcDbVisualStyle
  2
3dWireframe
 70
     5
 71
     0
 72
     2
 73
     0
 90
        0
 40
-0.6
 41
-30.0
 62
     5
 63
     7
 74
     1
 91
        4
 64
     7
 65
   257
 75
     1
175
     1
 42
1.0
 92
        0
 66
   257
 43
1.0
 76
     1
 77
     6
 78
     2
 67
     7
 79
     5
170
     0
171
     0
290
     0
174
     0
 93
        1
 44
0.0
173
     0
291
     0
 45
0.0
1001
ACAD
1000
AcDbSavedByObjectVersion
1070
     0
  0
VISUALSTYLE
  5
32
102
{ACAD_REACTORS
330
2A
102
}
330
2A
100
AcDbVisualStyle
  2
Basic
 70
     7
 71
     1
 72
     0
 73
     1
 90
        0
 40
-0.6
 41
-30.0
 62
     5
 63
     7
 74
     0
 91
        4
 64
     7
 65
   257
 75
     1
175
     1
 42
1.0
 92
        8
 66
     7
 43
1.0
 76
     1
 77
     6
 78
     2
 67
     7
 79
     5
170
     0
171
     0
290
     0
174
     0
 93
        1
 44
0.0
173
     0
291
     1
 45
0.0
1001
ACAD
1000
AcDbSavedByObjectVersion
1070
     0
  0
VISUALSTYLE
  5
36
102
{ACAD_REACTORS
330
2A
102
}
330
2A
100
AcDbVisualStyle
  2
Brighten
 70
    12
 71
     2
 72
     2
 73
     0
 90
        0
 40
-0.6
 41
-30.0
 62
     5
 63
     7
 74
     1
 91
        4
 64
     7
 65
   257
 75
     1
175
     1
 42
1.0
 92
        8
 66
     7
 43
1.0
 76
     1
 77
     6
 78
     2
 67
     7
 79
     5
170
     0
171
     0
290
     0
174
     0
 93
        1
 44
50.0
173
     0
291
     1
 45
0.0
1001
ACAD
1000
AcDbSavedByObjectVersion
1070
     0
  0
VISUALSTYLE
  5
3A
102
{ACAD_REACTORS
330
2A
102
}
330
2A
100
AcDbVisualStyle
  2
ColorChange
 70
    16
 71
     2
 72
     2
 73
     3
 90
        0
 40
-0.6
 41
-30.0
 62
     5
 63
     8
 74
     1
 91
        4
 64
     7
 65
   257
 75
     1
175
     1
 42
1.0
 92
        8
 66
     8
 43
1.0
 76
     1
 77
     6
 78
     2
 67
     7
 79
     5
170
     0
171
     0
290
     0
174
     0
 93
        1
 44
0.0
173
     0
291
     1
 45
0.0
1001
ACAD
1000
AcDbSavedByObjectVersion
1070
     0
  0
VISUALSTYLE
  5
34
102
{ACAD_REACTORS
330
2A
102
}
330
2A
100
AcDbVisualStyle
  2
Conceptual
 70
     9
 71
     3
 72
     2
 73
     0
 90
        0
 40
-0.6
 41
-30.0
 62
     5
 63
     7
 74
     2
 91
        2
 64
     7
 65
   257
 75
     1
175
     1
 42
40.0
 92
        8
 66
     7
 43
1.0
 76
     1
 77
     6
 78
     2
 67
     7
 79
     3
170
     0
171
     0
290
     0
174
     0
 93
        1
 44
0.0
173
     0
291
     0
 45
0.0
1001
ACAD
1000
AcDbSavedByObjectVersion
1070
     0
  0
VISUALSTYLE
  5
35
102
{ACAD_REACTORS
330
2A
102
}
330
2A
100
AcDbVisualStyle
  2
Dim
 70
    11
 71
     2
 72
     2
 73
     0
 90
        0
 40
-0.6
 41
-30.0
 62
     5
 63
     7
 74
     1
 91
        4
 64
     7
 65
   257
 75
     1
175
     1
 42
1.0
 92
        8
 66
     7
 43
1.0
 76
     1
 77
     6
 78
     2
 67
     7
 79
     5
170
     0
171
     0
290
     0
174
     0
 93
        1
 44
-50.0
173
     0
291
     1
 45
0.0
1001
ACAD
1000
AcDbSavedByObjectVersion
1070
     0
  0
VISUALSTYLE
  5
39
102
{ACAD_REACTORS
330
2A
102
}
330
2A
100
AcDbVisualStyle
  2
Facepattern
 70
    15
 71
     2
 72
     2
 73
     0
 90
        0
 40
-0.6
 41
-30.0
 62
     5
 63
     7
 74
     1
 91
        4
 64
     7
 65
   257
 75
     1
175
     1
 42
1.0
 92
        8
 66
     7
 43
1.0
 76
     1
 77
     6
 78
     2
 67
     7
 79
     5
170
     0
171
     0
290
     0
174
     0
 93
        1
 44
0.0
173
     0
291
     1
 45
0.0
1001
ACAD
1000
AcDbSavedByObjectVersion
1070
     0
  0
VISUALSTYLE
  5
2B
102
{ACAD_REACTORS
330
2A
102
}
330
2A
100
AcDbVisualStyle
  2
Flat
 70
     0
 71
     2
 72
     1
 73
     1
 90
        2
 40
-0.6
 41
30.0
 62
     5
 63
     7
 74
     0
 91
        4
 64
     7
 65
   257
 75
     1
175
     1
 42
1.0
 92
        8
 66
     7
 43
1.0
 76
     1
 77
     6
 78
     2
 67
     7
 79
     5
170
     0
171
     0
290
     0
174
     0
 93
       13
 44
0.0
173
     0
291
     1
 45
0.0
1001
ACAD
1000
AcDbSavedByObjectVersion
1070
     0
  0
VISUALSTYLE
  5
2C
102
{ACAD_REACTORS
330
2A
102
}
330
2A
100
AcDbVisualStyle
  2
FlatWithEdges
 70
     1
 71
     2
 72
     1
 73
     1
 90
        2
 40
-0.6
 41
30.0
 62
     5
 63
     7
 74
     1
 91
        4
 64
     7
 65
   257
 75
     1
175
     1
 42
1.0
 92
        0
 66
   257
 43
1.0
 76
     1
 77
     6
 78
     2
 67
     7
 79
     5
170
     0
171
     0
290
     0
174
     0
 93
       13
 44
0.0
173
     0
291
     1
 45
0.0
1001
ACAD
1000
AcDbSavedByObjectVersion
1070
     0
  0
VISUALSTYLE
  5
2D
102
{ACAD_REACTORS
330
2A
102
}
330
2A
100
AcDbVisualStyle
  2
Gouraud
 70
     2
 71
     2
 72
     2
 73
     1
 90
        2
 40
-0.6
 41
30.0
 62
     5
 63
     7
 74
     0
 91
        4
 64
     7
 65
   257
 75
     1
175
     1
 42
1.0
 92
        0
 66
     7
 43
1.0
 76
     1
 77
     6
 78
     2
 67
     7
 79
     5
170
     0
171
     0
290
     0
174
     0
 93
       13
 44
0.0
173
     0
291
     1
 45
0.0
1001
ACAD
1000
AcDbSavedByObjectVersion
1070
     0
  0
VISUALSTYLE
  5
2E
102
{ACAD_REACTORS
330
2A
102
}
330
2A
100
AcDbVisualStyle
  2
GouraudWithEdges
 70
     3
 71
     2
 72
     2
 73
     1
 90
        2
 40
-0.6
 41
30.0
 62
     5
 63
     7
 74
     1
 91
        4
 64
     7
 65
   257
 75
     1
175
     1
 42
1.0
 92
        0
 66
   257
 43
1.0
 76
     1
 77
     6
 78
     2
 67
     7
 79
     5
170
     0
171
     0
290
     0
174
     0
 93
       13
 44
0.0
173
     0
291
     1
 45
0.0
1001
ACAD
1000
AcDbSavedByObjectVersion
1070
     0
  0
VISUALSTYLE
  5
38
102
{ACAD_REACTORS
330
2A
102
}
330
2A
100
AcDbVisualStyle
  2
Linepattern
 70
    14
 71
     2
 72
     2
 73
     0
 90
        0
 40
-0.6
 41
-30.0
 62
     5
 63
     7
 74
     1
 91
        4
 64
     7
 65
   257
 75
     7
175
     7
 42
1.0
 92
        8
 66
     7
 43
1.0
 76
     1
 77
     6
 78
     2
 67
     7
 79
     5
170
     0
171
     0
290
     0
174
     0
 93
        1
 44
0.0
173
     0
291
     1
 45
0.0
1001
ACAD
1000
AcDbSavedByObjectVersion
1070
     0
  0
VISUALSTYLE
  5
33
102
{ACAD_REACTORS
330
2A
102
}
330
2A
100
AcDbVisualStyle
  2
Realistic
 70
     8
 71
     2
 72
     2
 73
     0
 90
        0
 40
-0.6
 41
-30.0
 62
     5
 63
     7
 74
     1
 91
        0
 64
     7
 65
   257
 75
     1
175
     1
 42
1.0
 92
        8
 66
     8
 43
1.0
 76
     1
 77
     6
 78
     2
 67
     7
 79
     5
170
     0
171
     0
290
     0
174
     0
 93
       13
 44
0.0
173
     0
291
     0
 45
0.0
1001
ACAD
1000
AcDbSavedByObjectVersion
1070
     0
  0
VISUALSTYLE
  5
37
102
{ACAD_REACTORS
330
2A
102
}
330
2A
100
AcDbVisualStyle
  2
Thicken
 70
    13
 71
     2
 72
     2
 73
     0
 90
        0
 40
-0.6
 41
-30.0
 62
     5
 63
     7
 74
     1
 91
        4
 64
     7
 65
   257
 75
     1
175
     1
 42
1.0
 92
       12
 66
     7
 43
1.0
 76
     1
 77
     6
 78
     2
 67
     7
 79
     5
170
     0
171
     0
290
     0
174
     0
 93
        1
 44
0.0
173
     0
291
     1
 45
0.0
1001
ACAD
1000
AcDbSavedByObjectVersion
1070
     0
  0
DICTIONARYVAR
  5
219
102
{ACAD_REACTORS
330
217
102
}
330
217
100
DictionaryVariables
280
     0
  1
80.000000
  0
DICTIONARYVAR
  5
218
102
{ACAD_REACTORS
330
217
102
}
330
217
100
DictionaryVariables
280
     0
  1
5.000000
  0
ENDSEC
  0
EOF
